<svg width="20" height="20" viewBox="0 0 20 20" fill="none" xmlns="http://www.w3.org/2000/svg">
<g clip-path="url(#clip0_813_61)">
<path d="M18.3333 4.3165L8.82499 13.8332L5.29166 10.2998L6.46666 9.12484L8.82499 11.4832L17.1583 3.14984L18.3333 4.3165ZM9.99999 16.6665C6.32499 16.6665 3.33332 13.6748 3.33332 9.99984C3.33332 6.32484 6.32499 3.33317 9.99999 3.33317C11.3083 3.33317 12.5333 3.7165 13.5667 4.37484L14.775 3.1665C13.4167 2.22484 11.775 1.6665 9.99999 1.6665C5.39999 1.6665 1.66666 5.39984 1.66666 9.99984C1.66666 14.5998 5.39999 18.3332 9.99999 18.3332C11.4417 18.3332 12.8 17.9665 13.9833 17.3165L12.7333 16.0665C11.9 16.4498 10.975 16.6665 9.99999 16.6665ZM15.8333 12.4998H13.3333V14.1665H15.8333V16.6665H17.5V14.1665H20V12.4998H17.5V9.99984H15.8333V12.4998Z" fill="#34485C"/>
</g>
<defs>
<clipPath id="clip0_813_61">
<rect width="20" height="20" fill="white"/>
</clipPath>
</defs>
</svg>
