<svg width="65" height="64" viewBox="0 0 65 64" fill="none" xmlns="http://www.w3.org/2000/svg">
<path d="M53.3671 28.2697L32.1646 10.601L10.9622 28.2697V53.0059H31.2662" stroke="#34485C" stroke-width="2" stroke-miterlimit="10" stroke-linecap="round" stroke-linejoin="round"/>
<g clip-path="url(#clip0_757_2593)">
<path d="M51.3165 45.6489L47.8109 43.0197V37.664C47.8109 37.1255 47.3756 36.6902 46.8371 36.6902C46.2986 36.6902 45.8633 37.1255 45.8633 37.664V43.5067C45.8633 43.8134 46.0074 44.1026 46.2528 44.2857L50.1479 47.207C50.3231 47.3385 50.5277 47.4018 50.7312 47.4018C51.0282 47.4018 51.3203 47.2684 51.5112 47.0113C51.8346 46.5818 51.7469 45.9712 51.3165 45.6489Z" fill="#FF4D72"/>
<path d="M46.8373 30.8572C39.905 30.8572 34.2659 36.4963 34.2659 43.4286C34.2659 50.3609 39.905 56 46.8373 56C53.7696 56 59.4087 50.3609 59.4087 43.4286C59.4087 36.4963 53.7696 30.8572 46.8373 30.8572ZM46.8373 54.0525C40.98 54.0525 36.2134 49.2859 36.2134 43.4286C36.2134 37.5714 40.98 32.8047 46.8373 32.8047C52.6955 32.8047 57.4612 37.5714 57.4612 43.4286C57.4612 49.2859 52.6946 54.0525 46.8373 54.0525Z" fill="#34485C"/>
</g>
<path d="M27.4087 52.8094H28.4087V51.8094V39.4761C28.4087 38.3715 27.5133 37.4761 26.4087 37.4761H17.3611C16.2565 37.4761 15.3611 38.3715 15.3611 39.4761V51.8094V52.8094H16.3611H27.4087Z" fill="#FF4D72" stroke="#34485C" stroke-width="2"/>
<defs>
<clipPath id="clip0_757_2593">
<rect width="25.1429" height="25.1429" fill="white" transform="translate(34.2659 30.8572)"/>
</clipPath>
</defs>
</svg>
