<svg width="49" height="48" viewBox="0 0 49 48" fill="none" xmlns="http://www.w3.org/2000/svg">
<path d="M34.0422 44.6571C32.4422 44.6571 30.8136 44.2286 29.185 43.4286C27.6993 42.6857 26.0422 42.3143 24.2993 42.3143C21.3279 42.3143 19.0422 43.4286 19.0422 43.4286C17.4707 44.2286 15.8993 44.6 14.2136 44.6C12.0422 44.6 10.185 43.9429 8.6993 43.4C7.95645 43.1429 7.32787 42.9143 6.78502 42.8286H4.87073C4.72787 42.8286 4.61359 42.7714 4.4993 42.6857C4.41359 42.6 4.35645 42.4571 4.35645 42.3143V33.0286C4.35645 32.8857 4.41359 32.7714 4.4993 32.6571C4.58502 32.5714 4.72787 32.5143 4.87073 32.5143H6.87073C7.87073 32.5143 8.8993 32.8571 9.98502 33.2571C10.6136 33.4857 11.2707 33.7143 11.9564 33.8857C12.9279 34.1429 13.7564 34.2286 14.585 34.2286C15.9564 34.2286 17.2707 33.9143 18.585 33.2286C18.6136 33.2286 21.0707 32 24.3279 32C24.7564 32 25.185 32.0286 25.585 32.0571C27.0136 32.2 28.385 32.6 29.6707 33.2286C31.2136 34 32.6422 34.3714 34.0422 34.3714C34.8422 34.3714 35.6422 34.2571 36.5279 34C37.185 33.8 37.8136 33.5714 38.385 33.3143C39.385 32.9143 40.3564 32.5143 41.3564 32.5143H43.3564C43.4136 32.5143 43.4993 32.5143 43.5564 32.5429C43.6136 32.5714 43.6707 32.6 43.7279 32.6571C43.785 32.7143 43.8136 32.7714 43.8422 32.8286C43.8707 32.8857 43.8707 32.9714 43.8707 33.0286V42.2857C43.8707 42.3429 43.8707 42.4286 43.8422 42.4857C43.8136 42.5429 43.785 42.6 43.7279 42.6571C43.6707 42.7143 43.6136 42.7429 43.5564 42.7714C43.4993 42.8 43.4136 42.8 43.3564 42.8H41.3564C40.7279 42.8 39.985 43.0857 39.0422 43.4571C38.385 43.7143 37.6422 44 36.8136 44.2571C35.8707 44.5429 34.9564 44.6571 34.0422 44.6571ZM24.2993 41.2571C26.2136 41.2571 28.0136 41.6857 29.6422 42.4857C31.185 43.2571 32.6136 43.6286 34.0136 43.6286C34.8136 43.6286 35.6136 43.5143 36.4993 43.2571C37.1564 43.0571 37.785 42.8286 38.3564 42.5714C39.3564 42.1714 40.3279 41.7714 41.3279 41.7714H42.785V33.5143H41.3279C40.6993 33.5143 39.9564 33.8 39.0136 34.1714C38.3564 34.4286 37.6136 34.7143 36.785 34.9429C35.8422 35.2 34.9564 35.3429 34.0422 35.3429C32.4422 35.3429 30.8136 34.9143 29.185 34.1143C28.0422 33.5429 26.785 33.1714 25.4707 33.0571C25.0993 33.0286 24.6993 33 24.2993 33C21.3279 33 19.0422 34.1143 19.0422 34.1143C17.585 34.8571 16.0993 35.2 14.5564 35.2C13.6422 35.2 12.6993 35.0857 11.6993 34.8286C10.8707 34.6286 10.0707 34.3714 9.38502 34.1429C8.38502 33.8 7.4993 33.5143 6.84216 33.5143H5.38502V41.7714H6.87073C6.8993 41.7714 6.92787 41.7714 6.95645 41.7714C7.72787 41.8857 8.55644 42.1714 9.41359 42.4857C10.8422 42.9714 12.4422 43.5429 14.2993 43.5429C15.7564 43.5429 17.1564 43.2 18.585 42.4857C18.585 42.4857 21.0422 41.2571 24.2993 41.2571Z" fill="#34485C"/>
<path d="M34.0425 40.0284C32.4425 40.0284 30.8139 39.5998 29.1854 38.7998C27.6996 38.057 26.0425 37.6856 24.2996 37.6856C21.3282 37.6856 19.0425 38.7998 19.0425 38.7998C17.5854 39.5427 16.0996 39.8856 14.5282 39.8856C13.6139 39.8856 12.6996 39.7713 11.6711 39.5141C10.8425 39.3141 10.0425 39.057 9.35678 38.8284C8.35678 38.4856 7.47107 38.1998 6.84249 38.1998H4.98535V37.1713H6.84249C7.84249 37.1713 8.87107 37.5141 9.95678 37.9141C10.5854 38.1427 11.2425 38.3713 11.9282 38.5427C12.8996 38.7998 13.7282 38.8856 14.5568 38.8856C15.9282 38.8856 17.2425 38.5713 18.5568 37.8856C18.5854 37.8856 21.0425 36.657 24.2996 36.657C24.7282 36.657 25.1568 36.6856 25.5568 36.7141C26.9854 36.857 28.3568 37.257 29.6425 37.8856C31.1854 38.657 32.6139 39.0284 34.0139 39.0284C34.8139 39.0284 35.6139 38.9141 36.4996 38.657C37.1568 38.457 37.7854 38.2284 38.3568 37.9713C39.3568 37.5713 40.3282 37.1713 41.3282 37.1713H43.1854V38.1998H41.3282C40.6996 38.1998 39.9568 38.4856 39.0139 38.857C38.3568 39.1141 37.6139 39.3998 36.7854 39.6284C35.8711 39.8856 34.9568 40.0284 34.0425 40.0284Z" fill="#34485C"/>
<path d="M15.614 34.2V29.1714H16.6711V34.2H15.614ZM11.6426 34.2V29.1714H12.6711V34.2H11.6426Z" fill="#34485C"/>
<path d="M35.5283 34.2V29.1714H36.5569V34.2H35.5283ZM31.5283 34.2V29.1714H32.5569V34.2H31.5283Z" fill="#34485C"/>
<path d="M42.0139 18.2571C41.5853 18.2571 41.1567 18.1428 40.8139 17.9428L24.0996 8.65707L7.41387 17.9428C7.04244 18.1428 6.61387 18.2571 6.1853 18.2571C5.27101 18.2571 4.41387 17.7714 3.9853 16.9714C3.67101 16.3999 3.5853 15.7142 3.75672 15.0571C3.92815 14.3999 4.35672 13.8856 4.95672 13.5428L22.871 3.59993C23.2424 3.39993 23.671 3.28564 24.0996 3.28564C24.5282 3.28564 24.9567 3.39993 25.3282 3.59993L43.2424 13.5428C43.8139 13.8571 44.2424 14.3999 44.4424 15.0571C44.6139 15.7142 44.5567 16.3714 44.2139 16.9714C43.7853 17.7714 42.9282 18.2571 42.0139 18.2571ZM24.0996 7.54279C24.1853 7.54279 24.271 7.57136 24.3567 7.59993L41.2996 17.0285C41.5282 17.1428 41.7567 17.2285 42.0139 17.2285C42.5567 17.2285 43.0424 16.9428 43.2996 16.4571C43.4996 16.1142 43.5282 15.7142 43.4424 15.3428C43.3282 14.9714 43.071 14.6571 42.7282 14.4571L24.8139 4.51422C24.5853 4.39993 24.3567 4.34279 24.0996 4.34279C23.8424 4.34279 23.6139 4.39993 23.3853 4.51422L5.47101 14.4571C5.12815 14.6571 4.87101 14.9714 4.75672 15.3428C4.64244 15.7142 4.69958 16.1142 4.89958 16.4571C5.15672 16.9142 5.64244 17.2285 6.1853 17.2285C6.44244 17.2285 6.67101 17.1714 6.89958 17.0285L23.8424 7.59993C23.9282 7.57136 24.0139 7.54279 24.0996 7.54279Z" fill="#34485C"/>
<path d="M10.6711 15.8857H9.64258V24.8857H10.6711V15.8857Z" fill="#34485C"/>
<path d="M38.5569 15.8857H37.5283V24.8857H38.5569V15.8857Z" fill="#34485C"/>
<path d="M27.5566 24.8857V19.7428C27.5566 18.3142 26.9852 17.2857 25.8424 16.7142C24.9852 16.2857 24.1281 16.2857 24.0709 16.2857C24.0424 16.2857 23.1566 16.2857 22.2995 16.7142C21.1852 17.2857 20.5852 18.2857 20.5852 19.7428V24.9142H19.5566V19.7428C19.5566 17.4285 20.7852 16.3142 21.8424 15.7999C22.9281 15.2571 24.0138 15.2571 24.0709 15.2571C24.1281 15.2571 25.2138 15.2571 26.2995 15.7999C27.3281 16.3142 28.5852 17.4285 28.5852 19.7428V24.9142H27.5566V24.8857Z" fill="#34485C"/>
<path d="M9.49939 29.543C7.1851 29.543 6.07081 28.3144 5.55653 27.2573C5.01367 26.143 5.01367 25.0573 5.01367 25.0287C5.01367 24.8858 5.07081 24.743 5.15653 24.6573C5.24224 24.5715 5.3851 24.5144 5.52796 24.5144H42.6708C42.8137 24.5144 42.928 24.5715 43.0422 24.6573C43.1565 24.743 43.1851 24.8858 43.1851 25.0287C43.1851 27.343 41.9565 28.4573 40.8994 28.9715C39.8137 29.5144 38.728 29.5144 38.6708 29.5144H9.49939V29.543ZM6.12796 25.7144C6.12796 25.743 6.24224 26.2573 6.49939 26.8001C7.07081 27.9144 8.07081 28.5144 9.52796 28.5144H38.728C38.7565 28.5144 39.6422 28.5144 40.4994 28.0858C41.1565 27.743 41.9851 27.0858 42.1565 25.743L42.1851 25.5715H6.09939L6.12796 25.7144Z" fill="#FF4D72"/>
<path d="M9.49939 29.5427C7.1851 29.5427 6.07081 28.3142 5.55653 27.257C5.01367 26.1427 5.01367 25.057 5.01367 25.0284C5.01367 24.8856 5.07081 24.7427 5.15653 24.657C5.24224 24.5713 5.3851 24.5142 5.52796 24.5142H42.6708C42.8137 24.5142 42.928 24.5713 43.0422 24.657C43.1565 24.7427 43.1851 24.8856 43.1851 25.0284C43.1851 27.3427 41.9565 28.457 40.8994 28.9713C39.8137 29.5142 38.728 29.5142 38.6708 29.5142H9.49939V29.5427Z" fill="#FF4D72"/>
</svg>
