<svg width="17" height="18" viewBox="0 0 17 18" fill="none" xmlns="http://www.w3.org/2000/svg">
<path d="M15.3737 7.68474C15.1066 7.68474 14.8771 7.48431 14.8467 7.21302C14.5775 4.82169 12.7195 2.96586 10.3282 2.70023C10.0371 2.66765 9.8267 2.40556 9.85928 2.11373C9.89116 1.82261 10.1525 1.60515 10.4458 1.64481C13.3337 1.96498 15.5777 4.20615 15.9021 7.09402C15.9354 7.38586 15.725 7.64862 15.4339 7.6812C15.414 7.68333 15.3935 7.68474 15.3737 7.68474Z" fill="#FF4D72"/>
<path d="M12.8651 7.6925C12.6158 7.6925 12.3941 7.51683 12.3445 7.26325C12.1405 6.21491 11.3323 5.4067 10.2854 5.20341C9.99709 5.14745 9.80938 4.86908 9.86534 4.58079C9.92129 4.2925 10.2068 4.10479 10.488 4.16075C11.962 4.44691 13.1003 5.5845 13.3872 7.05925C13.4431 7.34825 13.2554 7.62662 12.9678 7.68258C12.9331 7.68895 12.8991 7.6925 12.8651 7.6925Z" fill="#FF4D72"/>
<path fill-rule="evenodd" clip-rule="evenodd" d="M5.29992 12.1449C8.63833 15.484 10.8611 16.3595 12.265 16.3595C12.9577 16.3595 13.4522 16.1463 13.7815 15.9097C13.7964 15.9012 15.3207 14.9691 15.5878 13.5581C15.7139 12.8958 15.5297 12.2406 15.0565 11.6626C13.1072 9.29603 12.1141 9.51703 11.0176 10.0504C10.344 10.3805 9.81204 10.6369 8.30966 9.13594C6.80814 7.63378 7.06715 7.10176 7.39506 6.42825C7.92915 5.33175 8.14887 4.33842 5.78159 2.38767C5.205 1.91663 4.55404 1.73247 3.89246 1.85642C2.502 2.11638 1.56559 3.61592 1.56559 3.61592C0.820419 4.66213 0.314671 7.16042 5.29992 12.1449ZM4.10921 2.89626C4.17154 2.88634 4.23317 2.88067 4.29409 2.88067C4.57175 2.88067 4.8395 2.98905 5.10654 3.20863C7.01549 4.78112 6.77397 5.27696 6.43963 5.96333C5.93743 6.99537 5.67463 8.00261 7.55812 9.88749C9.4437 11.7724 10.4517 11.5096 11.4823 11.0059L11.484 11.0051C12.1695 10.6719 12.6651 10.431 14.2356 12.3376C14.504 12.6649 14.6067 12.9921 14.5487 13.3371C14.4148 14.1304 13.4925 14.8409 13.2135 15.0137C12.214 15.7263 9.80779 15.1504 6.05075 11.3941C2.29517 7.63782 1.71859 5.23163 2.45667 4.19392C2.604 3.9538 3.31729 3.03013 4.10921 2.89626Z" fill="#34485C"/>
</svg>
