<svg width="32" height="32" viewBox="0 0 32 32" fill="none" xmlns="http://www.w3.org/2000/svg">
<path d="M8.64001 12.8202C8.50741 12.8202 8.38023 12.7675 8.28646 12.6737C8.19269 12.58 8.14001 12.4528 8.14001 12.3202V11.0952C8.14001 10.9626 8.19269 10.8354 8.28646 10.7416C8.38023 10.6479 8.50741 10.5952 8.64001 10.5952C8.77262 10.5952 8.8998 10.6479 8.99357 10.7416C9.08734 10.8354 9.14001 10.9626 9.14001 11.0952V11.5002L10.87 10.6352C10.9887 10.5762 11.126 10.5668 11.2516 10.609C11.3772 10.6512 11.481 10.7416 11.54 10.8602C11.5993 10.9783 11.6095 11.115 11.5682 11.2406C11.527 11.3661 11.4378 11.4702 11.32 11.5302L8.86501 12.7602C8.79578 12.7976 8.71869 12.8182 8.64001 12.8202Z" fill="#FF4D72"/>
<path d="M10.595 17.7249H9.14001C8.8748 17.7249 8.62044 17.6195 8.43291 17.432C8.24537 17.2445 8.14001 16.9901 8.14001 16.7249V15.2749C8.14001 15.0097 8.24537 14.7553 8.43291 14.5678C8.62044 14.3803 8.8748 14.2749 9.14001 14.2749H10.595C10.8602 14.2749 11.1146 14.3803 11.3021 14.5678C11.4897 14.7553 11.595 15.0097 11.595 15.2749V16.7249C11.595 16.9901 11.4897 17.2445 11.3021 17.432C11.1146 17.6195 10.8602 17.7249 10.595 17.7249ZM9.14001 15.2749V16.7249H10.595V15.2749H9.14001Z" fill="#FF4D72"/>
<path d="M23.42 12.21H13.42C13.2874 12.21 13.1602 12.1573 13.0665 12.0635C12.9727 11.9697 12.92 11.8426 12.92 11.71C12.92 11.5774 12.9727 11.4502 13.0665 11.3564C13.1602 11.2626 13.2874 11.21 13.42 11.21H23.42C23.5526 11.21 23.6798 11.2626 23.7736 11.3564C23.8673 11.4502 23.92 11.5774 23.92 11.71C23.92 11.8426 23.8673 11.9697 23.7736 12.0635C23.6798 12.1573 23.5526 12.21 23.42 12.21Z" fill="#FF4D72"/>
<path d="M23.42 16.5H13.42C13.2874 16.5 13.1602 16.4473 13.0665 16.3536C12.9727 16.2598 12.92 16.1326 12.92 16C12.92 15.8674 12.9727 15.7402 13.0665 15.6464C13.1602 15.5527 13.2874 15.5 13.42 15.5H23.42C23.5526 15.5 23.6798 15.5527 23.7736 15.6464C23.8673 15.7402 23.92 15.8674 23.92 16C23.92 16.1326 23.8673 16.2598 23.7736 16.3536C23.6798 16.4473 23.5526 16.5 23.42 16.5Z" fill="#FF4D72"/>
<path d="M19.405 7.915H12.595C12.0646 7.915 11.5559 7.70429 11.1808 7.32921C10.8057 6.95414 10.595 6.44543 10.595 5.915V4C10.595 3.46957 10.8057 2.96086 11.1808 2.58579C11.5559 2.21071 12.0646 2 12.595 2H19.405C19.9354 2 20.4441 2.21071 20.8192 2.58579C21.1943 2.96086 21.405 3.46957 21.405 4V5.905C21.4063 6.16848 21.3556 6.42963 21.2556 6.67344C21.1557 6.91724 21.0086 7.13891 20.8228 7.32568C20.6369 7.51246 20.416 7.66067 20.1727 7.76181C19.9294 7.86294 19.6685 7.915 19.405 7.915ZM12.595 3C12.3298 3 12.0754 3.10536 11.8879 3.29289C11.7004 3.48043 11.595 3.73478 11.595 4V5.905C11.595 6.17022 11.7004 6.42457 11.8879 6.61211C12.0754 6.79964 12.3298 6.905 12.595 6.905H19.405C19.6702 6.905 19.9246 6.79964 20.1121 6.61211C20.2996 6.42457 20.405 6.17022 20.405 5.905V4C20.405 3.73478 20.2996 3.48043 20.1121 3.29289C19.9246 3.10536 19.6702 3 19.405 3H12.595Z" fill="#34485C"/>
<path d="M23.65 29.9998H8.35C7.64493 29.9985 6.96912 29.7178 6.47056 29.2193C5.972 28.7207 5.69132 28.0449 5.69 27.3398V7.12484C5.69 6.41937 5.97025 5.74279 6.4691 5.24394C6.96795 4.74509 7.64453 4.46484 8.35 4.46484H11.095C11.2276 4.46484 11.3548 4.51752 11.4486 4.61129C11.5423 4.70506 11.595 4.83224 11.595 4.96484C11.595 5.09745 11.5423 5.22463 11.4486 5.3184C11.3548 5.41217 11.2276 5.46484 11.095 5.46484H8.35C7.90974 5.46484 7.48752 5.63974 7.17621 5.95105C6.86489 6.26236 6.69 6.68458 6.69 7.12484V27.3398C6.69 27.7801 6.86489 28.2023 7.17621 28.5136C7.48752 28.825 7.90974 28.9998 8.35 28.9998H23.65C24.0903 28.9998 24.5125 28.825 24.8238 28.5136C25.1351 28.2023 25.31 27.7801 25.31 27.3398V7.12484C25.31 6.68458 25.1351 6.26236 24.8238 5.95105C24.5125 5.63974 24.0903 5.46484 23.65 5.46484H20.905C20.7724 5.46484 20.6452 5.41217 20.5514 5.3184C20.4577 5.22463 20.405 5.09745 20.405 4.96484C20.405 4.83224 20.4577 4.70506 20.5514 4.61129C20.6452 4.51752 20.7724 4.46484 20.905 4.46484H23.65C24.3555 4.46484 25.0321 4.74509 25.5309 5.24394C26.0298 5.74279 26.31 6.41937 26.31 7.12484V27.3398C26.3087 28.0449 26.028 28.7207 25.5294 29.2193C25.0309 29.7178 24.3551 29.9985 23.65 29.9998Z" fill="#34485C"/>
<path d="M10.595 22.7249H9.14001C8.8748 22.7249 8.62044 22.6195 8.43291 22.432C8.24537 22.2445 8.14001 21.9901 8.14001 21.7249V20.2749C8.14001 20.0097 8.24537 19.7553 8.43291 19.5678C8.62044 19.3803 8.8748 19.2749 9.14001 19.2749H10.595C10.8602 19.2749 11.1146 19.3803 11.3021 19.5678C11.4897 19.7553 11.595 20.0097 11.595 20.2749V21.7249C11.595 21.9901 11.4897 22.2445 11.3021 22.432C11.1146 22.6195 10.8602 22.7249 10.595 22.7249ZM9.14001 20.2749V21.7249H10.595V20.2749H9.14001Z" fill="#34485C"/>
<path d="M23.42 21.5H13.42C13.2874 21.5 13.1602 21.4473 13.0665 21.3536C12.9727 21.2598 12.92 21.1326 12.92 21C12.92 20.8674 12.9727 20.7402 13.0665 20.6464C13.1602 20.5527 13.2874 20.5 13.42 20.5H23.42C23.5526 20.5 23.6798 20.5527 23.7736 20.6464C23.8673 20.7402 23.92 20.8674 23.92 21C23.92 21.1326 23.8673 21.2598 23.7736 21.3536C23.6798 21.4473 23.5526 21.5 23.42 21.5Z" fill="#34485C"/>
</svg>
