<svg width="61" height="61" viewBox="0 0 61 61" fill="none" xmlns="http://www.w3.org/2000/svg">
<path d="M18.0277 41.612H14.8056C9.64769 41.612 5.45138 37.4157 5.45138 32.2578C5.45138 27.8553 8.57383 24.0052 12.8757 23.1033C13.0827 23.0598 13.2631 22.9343 13.3757 22.7553C13.4882 22.5763 13.5233 22.3593 13.4728 22.154C13.3572 21.6842 13.2986 21.2021 13.2986 20.7209C13.2986 17.4255 15.9795 14.7445 19.2749 14.7445C20.2074 14.7445 21.1022 14.9546 21.9342 15.3689C22.1243 15.4636 22.3447 15.4765 22.5447 15.4049C22.7447 15.3333 22.9066 15.1831 22.9933 14.9893C23.7319 13.3372 25.0058 11.9323 26.5802 11.0332C26.9541 10.8197 27.0841 10.3436 26.8705 9.9697C26.6571 9.59584 26.1808 9.46592 25.8071 9.67941C24.1713 10.6135 22.8103 12.0101 21.9123 13.6611C21.0714 13.3453 20.1873 13.1857 19.2749 13.1857C15.1198 13.1857 11.7395 16.566 11.7395 20.7211C11.7395 21.0687 11.7637 21.4165 11.8119 21.7616C9.69166 22.367 7.78027 23.6173 6.36872 25.3356C4.77174 27.2793 3.89233 29.7377 3.89233 32.2578C3.89233 38.2754 8.78804 43.1711 14.8056 43.1711H18.0277C18.4582 43.1711 18.8072 42.8221 18.8072 42.3915C18.8072 41.9609 18.4582 41.612 18.0277 41.612Z" fill="#34485C"/>
<path d="M53.4124 28.6812C53.8647 27.4675 54.0935 26.1914 54.0935 24.8781C54.0935 18.8605 49.1978 13.9648 43.1802 13.9648C42.1308 13.9648 41.0991 14.1127 40.1033 14.405C38.4977 10.7543 34.8606 8.35107 30.8251 8.35107C30.3923 8.35107 29.9562 8.37872 29.5289 8.43329C29.1018 8.48775 28.7999 8.87813 28.8544 9.30521C28.9087 9.73228 29.2985 10.0339 29.7263 9.97975C30.0883 9.93361 30.4581 9.91012 30.8251 9.91012C34.4575 9.91012 37.7084 12.2111 38.9146 15.6356C38.984 15.8328 39.1298 15.9939 39.3191 16.0827C39.5085 16.1714 39.7255 16.1802 39.9214 16.1074C40.9632 15.7201 42.0597 15.5238 43.1802 15.5238C48.3381 15.5238 52.5345 19.7201 52.5345 24.8781C52.5345 26.2108 52.26 27.4983 51.7185 28.7045C51.5475 29.0854 51.7069 29.5334 52.0802 29.7205C54.2196 30.7935 55.5486 32.9446 55.5486 35.3343C55.5486 38.7957 52.7325 41.6118 49.271 41.6118H43.0195C42.589 41.6118 42.24 41.9607 42.24 42.3913C42.24 42.8219 42.589 43.1708 43.0195 43.1708H49.271C53.5921 43.1708 57.1076 39.6554 57.1076 35.3343C57.1076 32.5944 55.7089 30.1064 53.4124 28.6812Z" fill="#34485C"/>
<path d="M28.0375 33.2846C28.8219 32.3494 28.6993 30.9502 27.7641 30.1657C27.3111 29.7856 26.7374 29.6046 26.1481 29.6564C25.559 29.708 25.0253 29.9859 24.645 30.4393C24.2706 30.9138 23.5455 31.2743 22.7269 31.2676C20.7841 31.2676 19.2034 29.687 19.2034 27.7442C19.2034 25.8014 20.7841 24.2208 22.7269 24.2208C23.4332 24.2208 24.1139 24.4284 24.6954 24.8214C25.7071 25.5044 27.0858 25.2374 27.769 24.2262C28.1002 23.7361 28.2205 23.1465 28.1082 22.5659C27.9958 21.9853 27.664 21.4833 27.174 21.1521C25.8577 20.263 24.3199 19.793 22.7269 19.793C18.3426 19.793 14.7758 23.3597 14.7758 27.7441C14.7758 28.2486 14.8237 28.7539 14.918 29.2459C14.9992 29.6686 15.4074 29.9454 15.8306 29.8644C16.2533 29.7833 16.5303 29.3747 16.4492 28.9519C16.3734 28.5566 16.3348 28.1502 16.3348 27.7441C16.3348 24.2195 19.2023 21.352 22.7269 21.352C24.0077 21.352 25.2437 21.7296 26.3012 22.4441C26.4461 22.5419 26.5442 22.6904 26.5775 22.8621C26.6108 23.0338 26.5751 23.2083 26.4772 23.3533C26.2751 23.6523 25.8672 23.7312 25.5682 23.5294C24.7281 22.9616 23.7456 22.6615 22.7269 22.6615C19.9244 22.6615 17.6444 24.9415 17.6444 27.744C17.6444 30.5464 19.9244 32.8265 22.7269 32.8265C23.9559 32.7998 25.0156 32.4134 25.8397 31.4408C25.9521 31.3067 26.1099 31.2246 26.2841 31.2092C26.4576 31.1939 26.6281 31.2475 26.7621 31.3599C27.0387 31.5919 27.0749 32.0059 26.843 32.2825C25.9398 33.3938 24.3627 34.1592 22.7268 34.1359C20.8486 34.1359 19.0716 33.3112 17.8516 31.8732C17.5731 31.5449 17.0812 31.5045 16.7529 31.7831C16.4246 32.0617 16.3843 32.5535 16.6628 32.8819C18.1797 34.6696 20.3899 35.6949 22.7268 35.6949C24.8225 35.679 26.6728 34.8904 28.0375 33.2846Z" fill="#FF4D72"/>
<path d="M41.6534 20.8548C40.4513 20.1601 39.0796 19.793 37.6867 19.793C33.3025 19.793 29.7356 23.3597 29.7356 27.7441C29.7356 32.1284 33.3025 35.6952 37.6867 35.6952C42.0709 35.6952 45.6378 32.1284 45.6378 27.7441C45.6378 26.3062 45.2481 24.8962 44.5107 23.6665C44.2894 23.2971 43.8105 23.1772 43.4412 23.3987C43.0721 23.6201 42.9521 24.0989 43.1736 24.4681C43.7657 25.4558 44.0788 26.5886 44.0788 27.7442C44.0788 31.2688 41.2113 34.1363 37.6867 34.1363C34.1621 34.1363 31.2946 31.2688 31.2946 27.7442C31.2946 24.2196 34.1621 21.3521 37.6867 21.3521C38.8061 21.3521 39.908 21.647 40.8734 22.2048C41.2462 22.4201 41.723 22.2926 41.9383 21.9198C42.1538 21.547 42.0262 21.0701 41.6534 20.8548Z" fill="#FF4D72"/>
<path d="M37.6866 22.6616C34.8841 22.6616 32.6041 24.9417 32.6041 27.7441C32.6041 30.5465 34.8842 32.8266 37.6866 32.8266C40.489 32.8266 42.7691 30.5465 42.7691 27.7441C42.7691 24.9417 40.489 22.6616 37.6866 22.6616ZM37.6866 31.2676C35.7437 31.2676 34.1632 29.687 34.1632 27.7442C34.1632 25.8014 35.7438 24.2208 37.6866 24.2208C39.6294 24.2208 41.21 25.8014 41.21 27.7442C41.21 29.687 39.6294 31.2676 37.6866 31.2676Z" fill="#FF4D72"/>
<path d="M49.9719 35.7567C50.4206 35.0872 50.775 34.5583 50.7835 33.7683C50.7902 33.1491 50.5508 32.5623 50.1094 32.1161C49.6634 31.6653 49.0709 31.417 48.4407 31.417C47.3446 31.417 46.393 32.1822 46.1546 33.2453C46.0632 33.6531 46.2754 34.0786 46.6748 34.2013C47.1239 34.3393 47.5832 34.0569 47.6716 33.6071C47.7434 33.2414 48.0668 32.976 48.4407 32.976C48.6512 32.976 48.8501 33.06 49.001 33.2124C49.1474 33.3604 49.2268 33.5518 49.2246 33.7515C49.2214 34.0488 49.081 34.2853 48.6811 34.8822C47.7333 36.236 47.1573 36.9946 46.8477 37.4025C46.4352 37.9455 46.247 38.1933 46.3792 38.6209C46.4313 38.7891 46.5335 38.9312 46.6714 39.0323C46.7825 39.1138 46.9154 39.1593 47.0521 39.1769C47.6875 39.2585 49.1501 39.1933 50.2753 39.1914C50.7058 39.1847 51.0492 38.8301 51.0424 38.3997C51.0358 37.9734 50.688 37.6325 50.2632 37.6325C50.2591 37.6325 50.2548 37.6325 50.2506 37.6326C49.6988 37.6413 49.1159 37.6479 48.611 37.6512C48.8861 37.281 49.3969 36.579 49.9719 35.7567Z" fill="#FF4D72"/>
<path d="M23.9607 48.9911L22.793 50.1588C22.8386 49.8238 22.9229 49.592 23.0211 49.3234C23.1895 48.8628 23.3803 48.3411 23.3803 47.3503C23.3803 46.3596 23.1895 45.8376 23.0211 45.3772C22.8734 44.9733 22.7567 44.6542 22.7567 43.9397C22.7567 43.2252 22.8734 42.9062 23.021 42.5023C23.1894 42.0419 23.3803 41.5201 23.3803 40.5295C23.3803 40.0989 23.0313 39.75 22.6008 39.75C22.1703 39.75 21.8213 40.0989 21.8213 40.5295C21.8213 41.244 21.7046 41.563 21.557 41.9669C21.3886 42.4273 21.1977 42.9491 21.1977 43.9397C21.1977 44.9304 21.3885 45.4522 21.5569 45.9127C21.7046 46.3166 21.8213 46.6357 21.8213 47.3503C21.8213 48.0649 21.7046 48.384 21.5569 48.7879C21.4499 49.0806 21.334 49.3985 21.2636 49.8452L20.4094 48.9911C20.105 48.6867 19.6114 48.6867 19.3071 48.9911C19.0026 49.2956 19.0026 49.7891 19.3071 50.0935L21.6339 52.4203C21.786 52.5725 21.9856 52.6486 22.185 52.6486C22.3845 52.6486 22.5841 52.5725 22.7362 52.4203L25.063 50.0935C25.3675 49.789 25.3675 49.2955 25.063 48.9911C24.7587 48.6867 24.2651 48.6867 23.9607 48.9911Z" fill="#34485C"/>
<path d="M32.2755 48.9911L31.1078 50.1588C31.1534 49.8238 31.2377 49.592 31.3359 49.3234C31.5043 48.8628 31.6951 48.3411 31.6951 47.3503C31.6951 46.3596 31.5043 45.8376 31.3359 45.3772C31.1882 44.9733 31.0715 44.6542 31.0715 43.9397C31.0715 43.2252 31.1882 42.9062 31.3358 42.5023C31.5042 42.0419 31.6951 41.5201 31.6951 40.5295C31.6951 40.0989 31.3461 39.75 30.9156 39.75C30.4851 39.75 30.1361 40.0989 30.1361 40.5295C30.1361 41.244 30.0194 41.563 29.8718 41.9669C29.7034 42.4273 29.5125 42.9491 29.5125 43.9397C29.5125 44.9304 29.7033 45.4522 29.8717 45.9127C30.0194 46.3166 30.1361 46.6357 30.1361 47.3503C30.1361 48.0649 30.0194 48.384 29.8717 48.7879C29.7647 49.0806 29.6488 49.3985 29.5784 49.8452L28.7242 48.9911C28.4198 48.6867 27.9262 48.6867 27.6219 48.9911C27.3174 49.2956 27.3174 49.7891 27.6219 50.0935L29.9487 52.4203C30.1009 52.5725 30.3004 52.6486 30.4999 52.6486C30.6993 52.6486 30.8989 52.5725 31.051 52.4203L33.3779 50.0935C33.6823 49.789 33.6823 49.2955 33.3779 48.9911C33.0735 48.6867 32.5799 48.6867 32.2755 48.9911Z" fill="#34485C"/>
<path d="M40.5905 48.9911L39.4227 50.1588C39.4684 49.8238 39.5527 49.592 39.6509 49.3234C39.8192 48.8628 40.0101 48.3411 40.0101 47.3503C40.0101 46.3596 39.8192 45.8376 39.6509 45.3772C39.5032 44.9733 39.3865 44.6542 39.3865 43.9397C39.3865 43.2252 39.5032 42.9062 39.6508 42.5023C39.8191 42.0419 40.0101 41.5201 40.0101 40.5295C40.0101 40.0989 39.6611 39.75 39.2306 39.75C38.8001 39.75 38.451 40.0989 38.451 40.5295C38.451 41.244 38.3343 41.563 38.1867 41.9669C38.0183 42.4273 37.8274 42.9491 37.8274 43.9397C37.8274 44.9304 38.0182 45.4522 38.1866 45.9127C38.3343 46.3166 38.451 46.6357 38.451 47.3503C38.451 48.0649 38.3343 48.384 38.1866 48.7879C38.0797 49.0806 37.9638 49.3985 37.8933 49.8452L37.0392 48.9911C36.7347 48.6867 36.2411 48.6867 35.9368 48.9911C35.6324 49.2956 35.6324 49.7891 35.9368 50.0935L38.2636 52.4203C38.4158 52.5725 38.6154 52.6486 38.8148 52.6486C39.0143 52.6486 39.2138 52.5725 39.366 52.4203L41.6928 50.0935C41.9972 49.789 41.9972 49.2955 41.6928 48.9911C41.3885 48.6867 40.8949 48.6867 40.5905 48.9911Z" fill="#34485C"/>
</svg>
