<svg width="48" height="48" viewBox="0 0 48 48" fill="none" xmlns="http://www.w3.org/2000/svg">
<path d="M26.8572 35.7145V34.162H28.0775V31.1311H26.8572V29.83H28.0775V28.3662C28.0775 27.3904 28.3584 26.6117 28.9201 26.0302C29.4916 25.4388 30.3535 25.1431 31.5061 25.1431C32.0775 25.1431 32.6393 25.2367 33.1913 25.424C33.7434 25.6113 34.2034 25.8774 34.5715 26.2224L33.9322 27.5974C33.5933 27.2623 33.2204 27.0257 32.8136 26.8877C32.4068 26.7399 32 26.6659 31.5933 26.6659C31.0315 26.6659 30.615 26.8089 30.3439 27.0947C30.0727 27.3707 29.9371 27.7699 29.9371 28.2923V29.83H32.3487V31.1311H29.9371V34.162H34.3681V35.7145H26.8572Z" fill="#FF4D72"/>
<path d="M39.4531 25.018C38.4204 23.4089 36.9656 22.1213 35.2458 21.2946C34.8522 21.1053 34.3799 21.271 34.1908 21.6645C34.0016 22.0581 34.1672 22.5303 34.5608 22.7195C37.5577 24.1601 39.494 27.2383 39.494 30.5614C39.494 31.9834 39.1435 33.3936 38.4805 34.6398C38.2754 35.0252 38.4216 35.5039 38.8071 35.7089C38.9253 35.7719 39.0524 35.8018 39.1777 35.8018C39.4605 35.8018 39.7341 35.6495 39.8762 35.3824C40.6605 33.9086 41.075 32.2414 41.075 30.5614C41.075 28.5883 40.5142 26.6714 39.4531 25.018Z" fill="#FF4D72"/>
<path d="M32.0373 20.2847L31.9841 20.2847C31.5476 20.2847 31.1936 20.6386 31.1936 21.0752C31.1936 21.5118 31.5476 21.8657 31.9841 21.8657L32.0299 21.8658C32.0312 21.8658 32.0323 21.8658 32.0337 21.8658C32.4685 21.8658 32.8221 21.5143 32.8241 21.079C32.8261 20.6424 32.4738 20.2868 32.0373 20.2847Z" fill="#FF4D72"/>
<path d="M27.0362 38.4031C24.0394 36.9623 22.103 33.8842 22.103 30.5611C22.103 29.1391 22.4535 27.7289 23.1165 26.4828C23.3216 26.0974 23.1754 25.6187 22.79 25.4136C22.4047 25.2085 21.9258 25.3547 21.7208 25.7402C20.9365 27.2141 20.522 28.8811 20.522 30.5611C20.522 32.5342 21.0828 34.451 22.1439 36.1046C23.1766 37.7136 24.6315 39.0012 26.3512 39.828C26.4616 39.8812 26.5783 39.9062 26.6932 39.9062C26.9876 39.9062 27.2701 39.7411 27.4062 39.4581C27.5952 39.0646 27.4297 38.5922 27.0362 38.4031Z" fill="#FF4D72"/>
<path d="M29.6128 39.257L29.567 39.2568C29.1285 39.256 28.7749 39.607 28.773 40.0436C28.7709 40.4802 29.1233 40.8358 29.5598 40.8379L29.6128 40.838C30.0493 40.838 30.4033 40.484 30.4033 40.0475C30.4033 39.611 30.0493 39.257 29.6128 39.257Z" fill="#FF4D72"/>
<path d="M34.3881 17.6101C34.2919 17.3808 34.174 17.1648 34.0369 16.9644H36.0949C38.0999 16.9644 39.7313 15.3331 39.7313 13.328C39.7313 11.323 38.0999 9.69169 36.0949 9.69169H29.7645C30.1669 9.10655 30.4032 8.39865 30.4032 7.63636C30.4032 5.6313 28.7719 4 26.7668 4H7.3993C5.39424 4 3.76294 5.6313 3.76294 7.63636C3.76294 9.64141 5.39424 11.2727 7.3993 11.2727H13.7297C13.3273 11.8579 13.091 12.5658 13.091 13.328C13.091 14.0903 13.3272 14.7982 13.7297 15.3834H11.6681C9.66301 15.3834 8.03171 17.0147 8.03171 19.0197C8.03171 20.1713 8.57036 21.1989 9.40838 21.8656C8.57036 22.5323 8.03171 23.5599 8.03171 24.7114C8.03171 25.863 8.57036 26.8905 9.40838 27.5573C8.57036 28.224 8.03171 29.2516 8.03171 30.4031C8.03171 31.5547 8.57036 32.5822 9.40838 33.249C8.57036 33.9157 8.03171 34.9433 8.03171 36.0948C8.03171 38.0999 9.66301 39.7312 11.6681 39.7312H20.9843C23.4385 42.3562 26.9299 44 30.7985 44C38.2086 44 44.2372 37.9714 44.2372 30.5613C44.2372 24.394 40.061 19.1844 34.3881 17.6101ZM36.0949 11.2727C37.2283 11.2727 38.1502 12.1948 38.1502 13.328C38.1502 14.4613 37.2283 15.3834 36.0949 15.3834H31.0356H16.7273C15.594 15.3834 14.672 14.4613 14.672 13.328C14.672 12.1948 15.594 11.2727 16.7273 11.2727H36.0949ZM7.3993 9.69169C6.26594 9.69169 5.34396 8.76964 5.34396 7.63636C5.34396 6.50308 6.26594 5.58102 7.3993 5.58102H26.7668C27.9002 5.58102 28.8222 6.50308 28.8222 7.63636C28.8222 8.76964 27.9002 9.69169 26.7668 9.69169H7.3993ZM11.6681 16.9644H31.0356C31.354 16.9644 31.6589 17.0384 31.9325 17.1709C31.5585 17.1395 31.1805 17.1226 30.7985 17.1226C27.0875 17.1226 23.7231 18.6348 21.2888 21.0751H11.6681C10.5348 21.0751 9.61273 20.153 9.61273 19.0197C9.61273 17.8865 10.5348 16.9644 11.6681 16.9644ZM11.6681 22.6561H19.938C19.0406 23.8856 18.3468 25.2723 17.9062 26.7668H11.6681C10.5347 26.7668 9.61273 25.8448 9.61273 24.7114C9.61273 23.5781 10.5347 22.6561 11.6681 22.6561ZM11.6681 28.3478H17.5432C17.4232 29.0682 17.3598 29.8074 17.3598 30.5613C17.3598 31.2052 17.4064 31.8384 17.4944 32.4584H11.6681C10.5347 32.4584 9.61273 31.5365 9.61273 30.4031C9.61273 29.2698 10.5347 28.3478 11.6681 28.3478ZM11.6681 38.1501C10.5347 38.1501 9.61273 37.2282 9.61273 36.0948C9.61273 34.9614 10.5347 34.0395 11.6681 34.0395H17.8171C18.216 35.5267 18.864 36.9127 19.7138 38.1501H11.6681ZM30.7985 42.419C24.2602 42.419 18.9409 37.0996 18.9409 30.5613C18.9409 24.023 24.2602 18.7036 30.7985 18.7036C37.3369 18.7036 42.6562 24.023 42.6562 30.5613C42.6562 37.0996 37.3369 42.419 30.7985 42.419Z" fill="#34485C"/>
</svg>
