<svg width="56" height="55" viewBox="0 0 56 55" fill="none" xmlns="http://www.w3.org/2000/svg">
<path fill-rule="evenodd" clip-rule="evenodd" d="M27.9996 6.30176C25.7572 6.30176 23.8451 7.73412 23.1364 9.7391C22.82 10.6341 21.8381 11.1032 20.9431 10.7868C20.0481 10.4705 19.579 9.48855 19.8953 8.59359C21.0743 5.25811 24.2553 2.86426 27.9996 2.86426C31.7442 2.86426 34.9251 5.25811 36.1039 8.59359C36.4204 9.48855 35.9513 10.4705 35.0561 10.7868C34.1612 11.1032 33.1793 10.6341 32.863 9.7391C32.1542 7.73412 30.242 6.30176 27.9996 6.30176Z" fill="#FF4D72"/>
<path fill-rule="evenodd" clip-rule="evenodd" d="M22.0996 23.4979C23.0441 23.4035 23.8864 24.0926 23.9808 25.0372L25.1266 36.4956C25.2213 37.44 24.5319 38.2824 23.5875 38.3768C22.643 38.4712 21.8007 37.7821 21.7062 36.8375L20.5604 25.3791C20.466 24.4347 21.1551 23.5923 22.0996 23.4979Z" fill="#FF4D72"/>
<path fill-rule="evenodd" clip-rule="evenodd" d="M33.9 23.4979C34.8444 23.5923 35.5337 24.4347 35.4391 25.3791L34.2932 36.8375C34.1988 37.7821 33.3566 38.4712 32.412 38.3768C31.4676 38.2824 30.7785 37.44 30.8729 36.4956L32.0187 25.0372C32.1132 24.0926 32.9553 23.4035 33.9 23.4979Z" fill="#FF4D72"/>
<path fill-rule="evenodd" clip-rule="evenodd" d="M6.802 13.75C6.802 12.8008 7.57152 12.0312 8.52075 12.0312H47.4793C48.4285 12.0312 49.1981 12.8008 49.1981 13.75C49.1981 14.6992 48.4285 15.4688 47.4793 15.4688H8.52075C7.57152 15.4688 6.802 14.6992 6.802 13.75Z" fill="#34485C"/>
<path fill-rule="evenodd" clip-rule="evenodd" d="M12.2261 17.7636C13.1732 17.7005 13.9922 18.4171 14.0553 19.3643L15.1094 35.1747C15.3153 38.2636 15.462 40.4127 15.7842 42.0297C16.0966 43.5984 16.5328 44.4286 17.1594 45.0149C17.7859 45.6008 18.6434 45.981 20.2292 46.1884C21.8641 46.4022 24.0184 46.4057 27.114 46.4057H28.8863C31.9819 46.4057 34.1361 46.4022 35.771 46.1884C37.3568 45.981 38.2143 45.6008 38.8409 45.0149C39.4674 44.4286 39.9035 43.5984 40.2161 42.0297C40.5383 40.4127 40.685 38.2636 40.8908 35.1747L41.945 19.3643C42.008 18.4171 42.827 17.7005 43.7742 17.7636C44.7213 17.8268 45.4379 18.6458 45.3749 19.5929L44.3127 35.5239C44.1168 38.4637 43.9586 40.8381 43.5874 42.7014C43.2015 44.6386 42.5451 46.2567 41.1894 47.5249C39.8336 48.7934 38.1754 49.3406 36.2169 49.5968C34.333 49.8432 31.9533 49.8432 29.0071 49.8432H26.9932C24.047 49.8432 21.6672 49.8432 19.7834 49.5968C17.8248 49.3406 16.1667 48.7934 14.8109 47.5249C13.4552 46.2567 12.7988 44.6386 12.4129 42.7014C12.0417 40.8381 11.8835 38.4637 11.6875 35.5239L10.6255 19.5929C10.5623 18.6458 11.2789 17.8268 12.2261 17.7636Z" fill="#34485C"/>
</svg>
