<svg width="32" height="32" viewBox="0 0 32 32" fill="none" xmlns="http://www.w3.org/2000/svg">
<path d="M14.8488 16.4951H13.2759C13.0207 16.4951 12.8175 16.7034 12.8175 16.9534C12.8175 17.2087 13.0259 17.4118 13.2759 17.4118H14.8488C15.104 17.4118 15.3071 17.2034 15.3071 16.9534C15.3071 16.6982 15.104 16.4951 14.8488 16.4951Z" fill="#FF4D72"/>
<path d="M17.4479 24.844V25.7659H22.0051C22.2603 25.7659 22.4634 25.5575 22.4634 25.3075V6.69319C22.4634 6.43799 22.2551 6.23486 22.0051 6.23486H17.4531V7.15673H21.5468V24.844H17.4479Z" fill="#FF4D72"/>
<path d="M24.2343 4.00146H17.4479V4.92333H23.7759V27.0793H23.1197C22.8645 27.0793 22.6614 27.2876 22.6614 27.5376C22.6614 27.7928 22.8697 27.996 23.1197 27.996H24.2343C24.4895 27.996 24.6926 27.7876 24.6926 27.5376V4.465C24.6978 4.2098 24.4895 4.00146 24.2343 4.00146Z" fill="#34485C"/>
<path d="M22.1508 27.5379C22.1508 27.2827 21.9425 27.0796 21.6925 27.0796H17.4529V28.0015H21.6925C21.9425 28.0015 22.1508 27.7931 22.1508 27.5379Z" fill="#34485C"/>
<path d="M17.4478 27.078V25.7655V24.8436V7.15636V6.23449V4.92201V4.00015V3.12516C17.4478 2.98453 17.3801 2.84912 17.2655 2.76058C17.1509 2.67204 17.0051 2.646 16.8645 2.68245L7.67709 5.13555C7.47397 5.18763 7.33334 5.36992 7.33334 5.57825V7.06261C7.33334 7.31781 7.54167 7.52094 7.79167 7.52094C8.04688 7.52094 8.25 7.31261 8.25 7.06261V5.93241L16.5259 3.72411V28.3124L8.25521 26.6561V8.61467C8.25521 8.35947 8.04688 8.15635 7.79688 8.15635C7.54167 8.15635 7.33855 8.36468 7.33855 8.61467V27.0311C7.33855 27.2499 7.4948 27.4374 7.70834 27.4842L16.9009 29.3228C16.9322 29.328 16.9634 29.3332 16.9895 29.3332C17.0936 29.3332 17.1978 29.2967 17.2811 29.229C17.3853 29.1405 17.4478 29.0103 17.4478 28.8748V27.9999V27.078Z" fill="#34485C"/>
</svg>
