<svg width="20" height="20" viewBox="0 0 20 20" fill="none" xmlns="http://www.w3.org/2000/svg">
<path d="M16.4442 16.8726H11.13C10.785 16.8726 10.505 16.5926 10.505 16.2476C10.505 15.9026 10.785 15.6226 11.13 15.6226H16.4442C16.7892 15.6226 17.0692 15.9026 17.0692 16.2476C17.0692 16.5926 16.7892 16.8726 16.4442 16.8726Z" fill="#FF4D72"/>
<path fill-rule="evenodd" clip-rule="evenodd" d="M13.3817 9.32634L14.4043 7.96392C14.911 7.28892 15.1243 6.45726 15.0052 5.62142C14.886 4.78558 14.4493 4.04725 13.7743 3.54058C12.3818 2.49558 10.3968 2.77642 9.351 4.17058L3.72432 11.6664C2.04766 13.9023 3.53932 16.5656 3.60349 16.6781C3.69016 16.8289 3.83599 16.9364 4.00599 16.9756C4.05432 16.9873 4.52099 17.0906 5.17182 17.0906C6.22432 17.0906 7.75599 16.8214 8.77766 15.4598L13.2515 9.49976C13.2775 9.47526 13.3017 9.44826 13.3239 9.41876C13.3462 9.38917 13.3654 9.35826 13.3817 9.32634ZM4.56432 15.8014C5.21516 15.8806 6.85682 15.9364 7.77766 14.7089L11.9411 9.16242L8.88716 6.86952L4.72349 12.4164C3.78432 13.6698 4.30099 15.2039 4.56432 15.8014ZM9.63733 5.87025L12.6917 8.16246L13.4043 7.21308C14.0368 6.37142 13.866 5.17225 13.0243 4.53975C12.1818 3.90892 10.9818 4.07976 10.3502 4.92058L9.63733 5.87025Z" fill="#34485C"/>
</svg>
