<svg width="49" height="48" viewBox="0 0 49 48" fill="none" xmlns="http://www.w3.org/2000/svg">
<path d="M38.0355 44.3998H11.2679C10.9988 44.3998 10.7803 44.1813 10.7803 43.9121V8.37609C10.7803 8.10693 10.9988 7.88843 11.2679 7.88843H38.0355C38.3047 7.88843 38.5232 8.10693 38.5232 8.37609V43.9089C38.5232 44.1781 38.3047 44.3966 38.0355 44.3966V44.3998ZM11.7556 43.4213H37.5447V8.86375H11.7556V43.4181V43.4213Z" fill="#34485C"/>
<path fill-rule="evenodd" clip-rule="evenodd" d="M38.1554 44.5196H11.2678C10.9324 44.5196 10.6602 44.2474 10.6602 43.912V8.37597C10.6602 8.04053 10.9324 7.76831 11.2678 7.76831H38.0354C38.3708 7.76831 38.6431 8.04053 38.6431 8.37597V43.9088C38.6431 44.2032 38.4334 44.4489 38.1554 44.5046V44.5196ZM38.0354 44.3965C38.3046 44.3965 38.5231 44.178 38.5231 43.9088V8.37597C38.5231 8.10681 38.3046 7.88831 38.0354 7.88831H11.2678C10.9987 7.88831 10.7802 8.10681 10.7802 8.37597V43.912C10.7802 44.1811 10.9987 44.3996 11.2678 44.3996H38.0354V44.3965ZM37.5446 43.4211H11.7555V8.86364H37.5446V43.4211ZM37.4246 8.98364H11.8755V43.3011H37.4246V8.98364Z" fill="#34485C"/>
<path fill-rule="evenodd" clip-rule="evenodd" d="M16.1543 12.8762H22.9056V19.6275H16.1543V12.8762ZM17.1556 13.8659H21.8937V18.6039H17.1556V13.8659Z" fill="#34485C"/>
<path fill-rule="evenodd" clip-rule="evenodd" d="M16.1543 22.8157H22.9056V29.5669H16.1543V22.8157ZM17.1557 23.8054H21.8938V28.5434H17.1557V23.8054Z" fill="#34485C"/>
<path d="M22.9056 33.2808H16.1543V40.032H22.9056V33.2808Z" fill="#FF4D72"/>
<path fill-rule="evenodd" clip-rule="evenodd" d="M26.4199 12.8762H33.1712V19.6275H26.4199V12.8762ZM27.4212 13.8659H32.1593V18.6039H27.4212V13.8659Z" fill="#34485C"/>
<path fill-rule="evenodd" clip-rule="evenodd" d="M26.4199 22.8157H33.1712V29.5669H26.4199V22.8157ZM27.4213 23.8054H32.1594V28.5434H27.4213V23.8054Z" fill="#34485C"/>
<path d="M33.1712 33.2808H26.4199V40.032H33.1712V33.2808Z" fill="#FF4D72"/>
<path fill-rule="evenodd" clip-rule="evenodd" d="M8.71306 3.6001H40.4863C41.0678 3.6001 41.5392 4.07149 41.5392 4.653V7.60985C41.5392 8.19135 41.0678 8.66275 40.4863 8.66275H8.71306C8.13156 8.66275 7.66016 8.19136 7.66016 7.60985V4.653C7.66016 4.0715 8.13156 3.6001 8.71306 3.6001ZM8.71306 4.38977C8.56768 4.38977 8.44983 4.50762 8.44983 4.653V7.60985C8.44983 7.75523 8.56768 7.87308 8.71306 7.87308H40.4863C40.6317 7.87308 40.7495 7.75523 40.7495 7.60985V4.653C40.7495 4.50762 40.6317 4.38977 40.4863 4.38977H8.71306Z" fill="#34485C"/>
<path fill-rule="evenodd" clip-rule="evenodd" d="M8.71294 3.47998H40.4862C41.134 3.47998 41.6591 4.0051 41.6591 4.65288V7.60973C41.6591 8.25751 41.134 8.78263 40.4862 8.78263H8.71294C8.06517 8.78263 7.54004 8.25751 7.54004 7.60973V4.65288C7.54004 4.00511 8.06517 3.47998 8.71294 3.47998ZM8.71294 4.50966C8.63384 4.50966 8.56972 4.57378 8.56972 4.65288V7.60973C8.56972 7.68883 8.63384 7.75296 8.71294 7.75296H40.4862C40.5653 7.75296 40.6294 7.68883 40.6294 7.60973V4.65288C40.6294 4.57378 40.5653 4.50966 40.4862 4.50966H8.71294ZM40.4862 3.59998H8.71294C8.13144 3.59998 7.66004 4.07138 7.66004 4.65288V7.60973C7.66004 8.19124 8.13144 8.66263 8.71294 8.66263H40.4862C41.0677 8.66263 41.5391 8.19124 41.5391 7.60973V4.65288C41.5391 4.07138 41.0677 3.59998 40.4862 3.59998ZM8.44972 4.65288C8.44972 4.50751 8.56757 4.38966 8.71294 4.38966H40.4862C40.6316 4.38966 40.7494 4.50751 40.7494 4.65288V7.60973C40.7494 7.75511 40.6316 7.87296 40.4862 7.87296H8.71294C8.56757 7.87296 8.44972 7.75511 8.44972 7.60973V4.65288Z" fill="#34485C"/>
</svg>
