<svg width="18" height="18" viewBox="0 0 18 18" fill="none" xmlns="http://www.w3.org/2000/svg">
<path fill-rule="evenodd" clip-rule="evenodd" d="M9.00024 12.8708C8.65508 12.8708 8.37524 12.591 8.37524 12.2458V9C8.37524 8.65483 8.65508 8.375 9.00024 8.375C9.34541 8.375 9.62524 8.65483 9.62524 9V12.2458C9.62524 12.591 9.34541 12.8708 9.00024 12.8708Z" fill="#FF4D72"/>
<path fill-rule="evenodd" clip-rule="evenodd" d="M9.62859 6.0835C9.62859 6.42867 9.34876 6.7085 9.00359 6.7085H8.99609C8.65093 6.7085 8.37109 6.42867 8.37109 6.0835C8.37109 5.73832 8.65093 5.4585 8.99609 5.4585H9.00359C9.34876 5.4585 9.62859 5.73832 9.62859 6.0835Z" fill="#FF4D72"/>
<path fill-rule="evenodd" clip-rule="evenodd" d="M14.5801 14.5799C15.5993 13.5607 16.0834 11.8556 16.0834 8.99985C16.0834 6.14409 15.5993 4.43895 14.5801 3.4198C13.561 2.40065 11.8558 1.9165 9.00005 1.9165C6.14433 1.9165 4.43919 2.40065 3.42005 3.4198C2.40091 4.43895 1.91675 6.14409 1.91675 8.99985C1.91675 11.8556 2.40091 13.5607 3.42005 14.5799C4.43919 15.599 6.14433 16.0832 9.00005 16.0832C11.8558 16.0832 13.561 15.599 14.5801 14.5799ZM15.464 15.4638C14.0742 16.8536 11.9251 17.3332 9.00005 17.3332C6.07501 17.3332 3.92598 16.8536 2.53616 15.4638C1.14635 14.0739 0.666748 11.9249 0.666748 8.99985C0.666748 6.07475 1.14635 3.92573 2.53616 2.53591C3.92598 1.1461 6.07501 0.666504 9.00005 0.666504C11.9251 0.666504 14.0742 1.1461 15.464 2.53591C16.8538 3.92573 17.3334 6.07475 17.3334 8.99985C17.3334 11.9249 16.8538 14.0739 15.464 15.4638Z" fill="#34485C"/>
</svg>
