<svg width="32" height="32" viewBox="0 0 32 32" fill="none" xmlns="http://www.w3.org/2000/svg">
<path d="M26.0195 25.336C26.0195 26.2422 25.2821 26.9796 24.3758 26.9796H22.3365V27.8103C22.3365 29.1079 21.2806 30.1637 19.983 30.1637C19.1959 30.1637 18.4988 29.7752 18.0711 29.1802C17.6434 29.7752 16.9463 30.1637 16.1592 30.1637C15.3721 30.1637 14.675 29.7752 14.2473 29.1802C13.8196 29.7752 13.1225 30.1637 12.3354 30.1637C11.5483 30.1637 10.8512 29.7752 10.4235 29.1802C9.99685 29.7752 9.29976 30.1637 8.5127 30.1637C7.21511 30.1637 6.15925 29.1079 6.15925 27.8103V26.9796H4.11986C3.21358 26.9796 2.4762 26.2422 2.4762 25.336C2.4762 24.4297 3.21358 23.6923 4.11986 23.6923H6.15925V14.6643H4.11986C3.21358 14.6643 2.4762 13.9269 2.4762 13.0206C2.4762 12.1144 3.21358 11.377 4.11986 11.377H6.15925V10.5463C6.15925 9.24872 7.21511 8.19287 8.5127 8.19287C9.29976 8.19287 9.99685 8.58143 10.4246 9.17642C10.8524 8.58143 11.5494 8.19287 12.3365 8.19287C13.1236 8.19287 13.8207 8.58143 14.2484 9.17642C14.6762 8.58143 15.3732 8.19287 16.1603 8.19287C16.9474 8.19287 17.6445 8.58143 18.0722 9.17642C18.5 8.58143 19.197 8.19287 19.9841 8.19287C21.2817 8.19287 22.3376 9.24872 22.3376 10.5463V11.377H24.377C25.2832 11.377 26.0206 12.1144 26.0206 13.0206C26.0206 13.9269 25.2832 14.6643 24.377 14.6643H22.3376V23.6923H24.377C25.2827 23.6923 26.0195 24.4297 26.0195 25.336ZM22.337 12.2601V13.7812H24.3764C24.7959 13.7812 25.137 13.4401 25.137 13.0206C25.137 12.6012 24.7959 12.2601 24.3764 12.2601H22.337ZM6.15925 13.7812V12.2601H4.11986C3.70039 12.2601 3.35929 12.6012 3.35929 13.0206C3.35929 13.4401 3.70039 13.7812 4.11986 13.7812H6.15925ZM6.15925 26.0965V24.5754H4.11986C3.70039 24.5754 3.35929 24.9165 3.35929 25.336C3.35929 25.7554 3.70039 26.0965 4.11986 26.0965H6.15925ZM9.98306 27.8103V10.5463C9.98306 9.73553 9.32349 9.07597 8.5127 9.07597C7.70191 9.07597 7.04235 9.73553 7.04235 10.5463V11.8185V14.2228V24.1338V26.5381V27.8103C7.04235 28.6211 7.70191 29.2806 8.5127 29.2806C9.32349 29.2806 9.98306 28.6211 9.98306 27.8103ZM13.8063 27.8103V10.5463C13.8063 9.73553 13.1467 9.07597 12.336 9.07597C11.5252 9.07597 10.8656 9.73553 10.8656 10.5463V27.8103C10.8656 28.6211 11.5252 29.2806 12.336 29.2806C13.1467 29.2806 13.8063 28.6211 13.8063 27.8103ZM17.6301 27.8103V10.5463C17.6301 9.73553 16.9705 9.07597 16.1598 9.07597C15.349 9.07597 14.6894 9.73553 14.6894 10.5463V27.8103C14.6894 28.6211 15.349 29.2806 16.1598 29.2806C16.9705 29.2806 17.6301 28.6211 17.6301 27.8103ZM21.4539 26.5381V24.1338V14.2228V11.8185V10.5463C21.4539 9.73553 20.7943 9.07597 19.9836 9.07597C19.1728 9.07597 18.5132 9.73553 18.5132 10.5463V27.8103C18.5132 28.6211 19.1728 29.2806 19.9836 29.2806C20.7943 29.2806 21.4539 28.6211 21.4539 27.8103V26.5381ZM25.1364 25.336C25.1364 24.9165 24.7953 24.5754 24.3758 24.5754H22.3365V26.0965H24.3758C24.7953 26.0965 25.1364 25.7554 25.1364 25.336Z" fill="#34485C"/>
<path d="M29.5239 21.369C29.5239 21.613 29.3263 21.8106 29.0823 21.8106C28.8384 21.8106 28.6408 21.613 28.6408 21.369C28.6402 19.0906 26.7863 17.2367 24.5079 17.2361C24.2639 17.2361 24.0663 17.0385 24.0663 16.7946C24.0663 16.5506 24.2639 16.353 24.5079 16.353C27.2736 16.3536 29.5239 18.6038 29.5239 21.369ZM24.5084 18.0077C24.2645 18.0077 24.0669 18.2053 24.0669 18.4493C24.0669 18.6932 24.2645 18.8908 24.5084 18.8908C25.875 18.8908 26.9866 20.003 26.9866 21.369C26.9866 21.613 27.1842 21.8106 27.4282 21.8106C27.6721 21.8106 27.8697 21.613 27.8697 21.369C27.8697 19.5156 26.3618 18.0077 24.5084 18.0077ZM24.509 19.6619C24.265 19.6619 24.0674 19.8595 24.0674 20.1034C24.0674 20.3474 24.265 20.545 24.509 20.545C24.9632 20.545 25.3325 20.9148 25.333 21.369C25.333 21.613 25.5306 21.8106 25.7746 21.8106C26.0185 21.8106 26.2161 21.613 26.2161 21.369C26.2156 20.428 25.4495 19.6619 24.509 19.6619ZM24.3169 22.0032C24.5609 22.0032 24.7585 21.8056 24.7585 21.5616C24.7585 21.3177 24.5609 21.1201 24.3169 21.1201H24.3164C24.0724 21.1201 23.8754 21.3177 23.8754 21.5616C23.8754 21.8056 24.0735 22.0032 24.3169 22.0032Z" fill="#FF4D72"/>
<path d="M10.2601 5.99738C10.0879 6.16958 10.0879 6.44941 10.2601 6.62162C10.3462 6.70772 10.4593 6.75077 10.5725 6.75077C10.6856 6.75077 10.7982 6.70772 10.8849 6.62162L11.1801 6.32633C11.7205 5.78599 11.7205 4.90676 11.1801 4.36641C10.9842 4.17048 10.9842 3.85146 11.1801 3.65552L11.4451 3.39059C11.6173 3.21839 11.6173 2.93856 11.4451 2.76635C11.2729 2.59415 10.993 2.59415 10.8208 2.76635L10.5559 3.03128C10.0156 3.57163 10.0156 4.45086 10.5559 4.9912C10.7518 5.18714 10.7518 5.50616 10.5559 5.70209L10.2601 5.99738ZM17.04 5.99738C16.8678 6.16958 16.8678 6.44941 17.04 6.62162C17.1261 6.70772 17.2393 6.75077 17.3524 6.75077C17.4656 6.75077 17.5787 6.70772 17.6648 6.62162L17.9601 6.32633C18.5005 5.78599 18.5005 4.90676 17.9601 4.36641C17.7642 4.17048 17.7642 3.85146 17.9601 3.65552L18.225 3.39059C18.3972 3.21839 18.3972 2.93856 18.225 2.76635C18.0528 2.59415 17.773 2.59415 17.6008 2.76635L17.3359 3.03128C16.7955 3.57163 16.7955 4.45086 17.3359 4.9912C17.5318 5.18714 17.5318 5.50616 17.3359 5.70209L17.04 5.99738ZM13.8013 5.90962C13.6291 6.08182 13.6291 6.36166 13.8013 6.53386C13.8874 6.61996 14.0005 6.66301 14.1137 6.66301C14.2268 6.66301 14.34 6.61996 14.4261 6.53386L14.7804 6.17952C15.3942 5.56577 15.3942 4.56676 14.7804 3.95301C14.5111 3.68367 14.5111 3.24488 14.7804 2.97554L15.0978 2.65818C15.27 2.48597 15.27 2.20614 15.0978 2.03394C14.9256 1.86173 14.6457 1.86173 14.4735 2.03394L14.1562 2.3513C13.5424 2.96505 13.5424 3.96405 14.1562 4.5778C14.4255 4.84715 14.4255 5.28594 14.1562 5.55528L13.8013 5.90962Z" fill="#FF4D72"/>
</svg>
