<svg width="64" height="64" viewBox="0 0 64 64" fill="none" xmlns="http://www.w3.org/2000/svg">
<path d="M52.039 50.672C52.039 52.4846 50.5642 53.9594 48.7517 53.9594H44.6729V55.6207C44.6729 58.2159 42.5612 60.3276 39.966 60.3276C38.3919 60.3276 36.9977 59.5504 36.1422 58.3605C35.2867 59.5504 33.8925 60.3276 32.3184 60.3276C30.7443 60.3276 29.3501 59.5504 28.4946 58.3605C27.6391 59.5504 26.2449 60.3276 24.6708 60.3276C23.0967 60.3276 21.7025 59.5504 20.847 58.3605C19.9937 59.5504 18.5995 60.3276 17.0254 60.3276C14.4302 60.3276 12.3185 58.2159 12.3185 55.6207V53.9594H8.23971C6.42716 53.9594 4.95239 52.4846 4.95239 50.672C4.95239 48.8595 6.42716 47.3847 8.23971 47.3847H12.3185V29.3287H8.23971C6.42716 29.3287 4.95239 27.854 4.95239 26.0414C4.95239 24.2289 6.42716 22.7541 8.23971 22.7541H12.3185V21.0928C12.3185 18.4976 14.4302 16.3859 17.0254 16.3859C18.5995 16.3859 19.9937 17.163 20.8492 18.353C21.7047 17.163 23.0989 16.3859 24.673 16.3859C26.2471 16.3859 27.6413 17.163 28.4968 18.353C29.3523 17.163 30.7465 16.3859 32.3206 16.3859C33.8947 16.3859 35.2889 17.163 36.1444 18.353C36.9999 17.163 38.3941 16.3859 39.9682 16.3859C42.5634 16.3859 44.6751 18.4976 44.6751 21.0928V22.7541H48.7539C50.5665 22.7541 52.0412 24.2289 52.0412 26.0414C52.0412 27.854 50.5665 29.3287 48.7539 29.3287H44.6751V47.3847H48.7539C50.5654 47.3847 52.039 48.8595 52.039 50.672ZM44.674 24.5203V27.5625H48.7528C49.5917 27.5625 50.2739 26.8803 50.2739 26.0414C50.2739 25.2025 49.5917 24.5203 48.7528 24.5203H44.674ZM12.3185 27.5625V24.5203H8.23971C7.40077 24.5203 6.71858 25.2025 6.71858 26.0414C6.71858 26.8803 7.40077 27.5625 8.23971 27.5625H12.3185ZM12.3185 52.1932V49.1509H8.23971C7.40077 49.1509 6.71858 49.8331 6.71858 50.672C6.71858 51.511 7.40077 52.1932 8.23971 52.1932H12.3185ZM19.9661 55.6207V21.0928C19.9661 19.4712 18.647 18.1521 17.0254 18.1521C15.4038 18.1521 14.0847 19.4712 14.0847 21.0928V23.6372V28.4456V48.2678V53.0763V55.6207C14.0847 57.2423 15.4038 58.5614 17.0254 58.5614C18.647 58.5614 19.9661 57.2423 19.9661 55.6207ZM27.6126 55.6207V21.0928C27.6126 19.4712 26.2935 18.1521 24.6719 18.1521C23.0503 18.1521 21.7312 19.4712 21.7312 21.0928V55.6207C21.7312 57.2423 23.0503 58.5614 24.6719 58.5614C26.2935 58.5614 27.6126 57.2423 27.6126 55.6207ZM35.2602 55.6207V21.0928C35.2602 19.4712 33.9411 18.1521 32.3195 18.1521C30.6979 18.1521 29.3788 19.4712 29.3788 21.0928V55.6207C29.3788 57.2423 30.6979 58.5614 32.3195 58.5614C33.9411 58.5614 35.2602 57.2423 35.2602 55.6207ZM42.9078 53.0763V48.2678V28.4456V23.6372V21.0928C42.9078 19.4712 41.5887 18.1521 39.9671 18.1521C38.3455 18.1521 37.0264 19.4712 37.0264 21.0928V55.6207C37.0264 57.2423 38.3455 58.5614 39.9671 58.5614C41.5887 58.5614 42.9078 57.2423 42.9078 55.6207V53.0763ZM50.2728 50.672C50.2728 49.8331 49.5906 49.1509 48.7517 49.1509H44.6729V52.1932H48.7517C49.5906 52.1932 50.2728 51.511 50.2728 50.672Z" fill="#34485C"/>
<path d="M59.0478 42.7385C59.0478 43.2264 58.6526 43.6216 58.1647 43.6216C57.6768 43.6216 57.2816 43.2264 57.2816 42.7385C57.2805 38.1817 53.5726 34.4738 49.0158 34.4727C48.5279 34.4727 48.1327 34.0775 48.1327 33.5896C48.1327 33.1017 48.5279 32.7065 49.0158 32.7065C54.5473 32.7076 59.0478 37.2081 59.0478 42.7385ZM49.0169 36.0159C48.529 36.0159 48.1338 36.4111 48.1338 36.899C48.1338 37.3869 48.529 37.7821 49.0169 37.7821C51.7501 37.7821 53.9733 40.0064 53.9733 42.7385C53.9733 43.2264 54.3685 43.6216 54.8564 43.6216C55.3443 43.6216 55.7395 43.2264 55.7395 42.7385C55.7395 39.0317 52.7237 36.0159 49.0169 36.0159ZM49.018 39.3242C48.5301 39.3242 48.1349 39.7194 48.1349 40.2073C48.1349 40.6952 48.5301 41.0904 49.018 41.0904C49.9265 41.0904 50.665 41.83 50.6661 42.7385C50.6661 43.2264 51.0613 43.6216 51.5492 43.6216C52.0371 43.6216 52.4323 43.2264 52.4323 42.7385C52.4312 40.8564 50.899 39.3242 49.018 39.3242ZM48.6339 44.0068C49.1218 44.0068 49.517 43.6117 49.517 43.1238C49.517 42.6358 49.1218 42.2407 48.6339 42.2407H48.6328C48.1448 42.2407 47.7508 42.6358 47.7508 43.1238C47.7508 43.6117 48.1471 44.0068 48.6339 44.0068Z" fill="#FF4D72"/>
<path d="M20.5201 11.9948C20.1757 12.3392 20.1757 12.8988 20.5201 13.2432C20.6923 13.4154 20.9186 13.5015 21.1449 13.5015C21.3712 13.5015 21.5964 13.4154 21.7697 13.2432L22.3603 12.6527C23.441 11.572 23.441 9.81351 22.3603 8.73283C21.9684 8.34095 21.9684 7.70292 22.3603 7.31104L22.8902 6.78119C23.2346 6.43678 23.2346 5.87712 22.8902 5.53271C22.5457 5.1883 21.9861 5.1883 21.6417 5.53271L21.1118 6.06257C20.0311 7.14325 20.0311 8.90172 21.1118 9.9824C21.5037 10.3743 21.5037 11.0123 21.1118 11.4042L20.5201 11.9948ZM34.0801 11.9948C33.7357 12.3392 33.7357 12.8988 34.0801 13.2432C34.2523 13.4154 34.4786 13.5015 34.7049 13.5015C34.9312 13.5015 35.1574 13.4154 35.3297 13.2432L35.9202 12.6527C37.0009 11.572 37.0009 9.81351 35.9202 8.73283C35.5283 8.34095 35.5283 7.70292 35.9202 7.31104L36.4501 6.78119C36.7945 6.43678 36.7945 5.87712 36.4501 5.53271C36.1057 5.1883 35.546 5.1883 35.2016 5.53271L34.6717 6.06257C33.5911 7.14325 33.5911 8.90172 34.6717 9.9824C35.0636 10.3743 35.0636 11.0123 34.6717 11.4042L34.0801 11.9948ZM27.6026 11.8192C27.2582 12.1636 27.2582 12.7233 27.6026 13.0677C27.7748 13.2399 28.0011 13.326 28.2274 13.326C28.4537 13.326 28.6799 13.2399 28.8521 13.0677L29.5608 12.359C30.7883 11.1315 30.7883 9.13353 29.5608 7.90603C29.0221 7.36734 29.0221 6.48976 29.5608 5.95108L30.1956 5.31635C30.54 4.97194 30.54 4.41228 30.1956 4.06788C29.8511 3.72347 29.2915 3.72347 28.9471 4.06788L28.3124 4.7026C27.0849 5.9301 27.0849 7.9281 28.3124 9.15561C28.851 9.6943 28.851 10.5719 28.3124 11.1106L27.6026 11.8192Z" fill="#FF4D72"/>
</svg>
