<svg width="43" height="40" viewBox="0 0 43 40" fill="none" xmlns="http://www.w3.org/2000/svg">
<path fill-rule="evenodd" clip-rule="evenodd" d="M13.8711 21.7143C13.8711 21.3198 14.1909 21 14.5854 21H28.2997C28.6942 21 29.014 21.3198 29.014 21.7143V38.8571H27.5854V22.4286H15.2997V38.8571H13.8711V21.7143Z" fill="#61CFC5"/>
<path fill-rule="evenodd" clip-rule="evenodd" d="M0.356934 38.8571C0.356934 38.3838 0.740689 38 1.21408 38H41.6712C42.1446 38 42.5283 38.3838 42.5283 38.8571C42.5283 39.3305 42.1446 39.7143 41.6712 39.7143H1.21408C0.740689 39.7143 0.356934 39.3305 0.356934 38.8571Z" fill="#34485C"/>
<path fill-rule="evenodd" clip-rule="evenodd" d="M38.2424 14.5713C38.7158 14.5713 39.0995 14.955 39.0995 15.4284V38.857C39.0995 39.3304 38.7158 39.7141 38.2424 39.7141C37.769 39.7141 37.3853 39.3304 37.3853 38.857V15.4284C37.3853 14.955 37.769 14.5713 38.2424 14.5713Z" fill="#34485C"/>
<path fill-rule="evenodd" clip-rule="evenodd" d="M4.64279 14.5715C5.11617 14.5715 5.49993 14.9553 5.49993 15.4287V38.8572C5.49993 39.3306 5.11617 39.7144 4.64279 39.7144C4.1694 39.7144 3.78564 39.3306 3.78564 38.8572V15.4287C3.78564 14.9553 4.1694 14.5715 4.64279 14.5715Z" fill="#34485C"/>
<path fill-rule="evenodd" clip-rule="evenodd" d="M20.8885 0.488877C21.2082 0.2179 21.6771 0.2179 21.9968 0.488877L42.2254 17.6317C42.5865 17.9378 42.6312 18.4786 42.3251 18.8398C42.0191 19.2009 41.4782 19.2456 41.117 18.9395L21.4426 2.26633L1.76826 18.9395C1.40711 19.2456 0.866239 19.2009 0.560184 18.8398C0.254129 18.4786 0.298788 17.9378 0.659933 17.6317L20.8885 0.488877Z" fill="#34485C"/>
<path fill-rule="evenodd" clip-rule="evenodd" d="M24.1567 28.5715C24.1567 28.177 24.4765 27.8572 24.871 27.8572H28.2996C28.6941 27.8572 29.0139 28.177 29.0139 28.5715C29.0139 28.966 28.6941 29.2858 28.2996 29.2858H24.871C24.4765 29.2858 24.1567 28.966 24.1567 28.5715Z" fill="#61CFC5"/>
</svg>
