<svg width="49" height="48" viewBox="0 0 49 48" fill="none" xmlns="http://www.w3.org/2000/svg">
<path fill-rule="evenodd" clip-rule="evenodd" d="M31.0908 22.6349C31.0908 22.3193 31.3467 22.0635 31.6622 22.0635H38.1808C38.4964 22.0635 38.7522 22.3193 38.7522 22.6349V30.783C38.7522 31.0986 38.4964 31.3545 38.1808 31.3545C37.8652 31.3545 37.6093 31.0986 37.6093 30.783V23.2063H31.6622C31.3467 23.2063 31.0908 22.9505 31.0908 22.6349Z" fill="#61CFC5"/>
<path fill-rule="evenodd" clip-rule="evenodd" d="M32.0283 30.7831C32.0283 30.3886 32.3481 30.0688 32.7426 30.0688H44.537C44.9315 30.0688 45.2513 30.3886 45.2513 30.7831C45.2513 31.1776 44.9315 31.4974 44.537 31.4974H32.7426C32.3481 31.4974 32.0283 31.1776 32.0283 30.7831Z" fill="#34485C"/>
<path fill-rule="evenodd" clip-rule="evenodd" d="M42.9076 18.9329C43.3021 18.9329 43.6219 19.2527 43.6219 19.6471V30.7829C43.6219 31.1774 43.3021 31.4972 42.9076 31.4972C42.5132 31.4972 42.1934 31.1774 42.1934 30.7829V19.6471C42.1934 19.2527 42.5132 18.9329 42.9076 18.9329Z" fill="#34485C"/>
<path fill-rule="evenodd" clip-rule="evenodd" d="M34.4691 12.3047C34.7358 12.0861 35.1206 12.0892 35.3838 12.3122L44.9986 20.4603C45.2995 20.7154 45.3367 21.1661 45.0817 21.467C44.8267 21.768 44.3759 21.8052 44.075 21.5502L34.9144 13.787L27.7971 19.6224C27.492 19.8726 27.0419 19.828 26.7918 19.5229C26.5417 19.2179 26.5862 18.7678 26.8913 18.5177L34.4691 12.3047Z" fill="#34485C"/>
<path fill-rule="evenodd" clip-rule="evenodd" d="M35.9805 25.8942C35.9805 25.5786 36.2363 25.3228 36.5519 25.3228H38.1815C38.4971 25.3228 38.753 25.5786 38.753 25.8942C38.753 26.2098 38.4971 26.4656 38.1815 26.4656H36.5519C36.2363 26.4656 35.9805 26.2098 35.9805 25.8942Z" fill="#61CFC5"/>
<path fill-rule="evenodd" clip-rule="evenodd" d="M11.1408 23.2063H17.0879V22.0635H10.5694C10.2538 22.0635 9.99794 22.3193 9.99794 22.6349V30.783H11.1408V23.2063Z" fill="#FF4D72"/>
<path fill-rule="evenodd" clip-rule="evenodd" d="M16.7227 30.7831C16.7227 30.3886 16.4029 30.0688 16.0084 30.0688H4.21394C3.81945 30.0688 3.49965 30.3886 3.49965 30.7831C3.49965 31.1776 3.81945 31.4974 4.21394 31.4974H16.0084C16.4029 31.4974 16.7227 31.1776 16.7227 30.7831Z" fill="#34485C"/>
<path fill-rule="evenodd" clip-rule="evenodd" d="M5.84431 18.9329C5.44982 18.9329 5.13002 19.2527 5.13002 19.6471V30.7829C5.13002 31.1774 5.44982 31.4972 5.84431 31.4972C6.2388 31.4972 6.55859 31.1774 6.55859 30.7829V19.6471C6.55859 19.2527 6.2388 18.9329 5.84431 18.9329Z" fill="#34485C"/>
<path fill-rule="evenodd" clip-rule="evenodd" d="M14.2819 12.3047C14.0152 12.0861 13.6303 12.0892 13.3672 12.3122L3.75241 20.4603C3.45145 20.7154 3.41424 21.1661 3.66928 21.467C3.92433 21.768 4.37506 21.8052 4.67601 21.5502L13.8366 13.787L20.9539 19.6224C21.259 19.8726 21.709 19.828 21.9592 19.5229C22.2093 19.2179 22.1647 18.7678 21.8597 18.5177L14.2819 12.3047Z" fill="#34485C"/>
<path fill-rule="evenodd" clip-rule="evenodd" d="M12.7705 25.8942C12.7705 25.5786 12.5147 25.3228 12.1991 25.3228H10.5694C10.2538 25.3228 9.998 25.5786 9.998 25.8942C9.998 26.2098 10.2538 26.4656 10.5694 26.4656H12.1991C12.5147 26.4656 12.7705 26.2098 12.7705 25.8942Z" fill="#FF4D72"/>
<path fill-rule="evenodd" clip-rule="evenodd" d="M20.9053 26.7091C20.9053 26.3935 21.1611 26.1377 21.4767 26.1377H27.9952C28.3108 26.1377 28.5667 26.3935 28.5667 26.7091V34.8573H27.4238V27.2806H22.0481V34.8573H20.9053V26.7091Z" fill="#FF4D72"/>
<path fill-rule="evenodd" clip-rule="evenodd" d="M14.4072 34.8574C14.4072 34.4629 14.727 34.1431 15.1215 34.1431H34.3511C34.7456 34.1431 35.0654 34.4629 35.0654 34.8574C35.0654 35.2518 34.7456 35.5716 34.3511 35.5716H15.1215C14.727 35.5716 14.4072 35.2518 14.4072 34.8574Z" fill="#34485C"/>
<path fill-rule="evenodd" clip-rule="evenodd" d="M32.7211 23.0073C33.1156 23.0073 33.4354 23.3271 33.4354 23.7216V34.8574C33.4354 35.2519 33.1156 35.5717 32.7211 35.5717C32.3266 35.5717 32.0068 35.2519 32.0068 34.8574V23.7216C32.0068 23.3271 32.3266 23.0073 32.7211 23.0073Z" fill="#34485C"/>
<path fill-rule="evenodd" clip-rule="evenodd" d="M16.7514 23.0073C17.1459 23.0073 17.4657 23.3271 17.4657 23.7216V34.8574C17.4657 35.2519 17.1459 35.5717 16.7514 35.5717C16.3569 35.5717 16.0371 35.2519 16.0371 34.8574V23.7216C16.0371 23.3271 16.3569 23.0073 16.7514 23.0073Z" fill="#34485C"/>
<path fill-rule="evenodd" clip-rule="evenodd" d="M24.2745 16.3864C24.541 16.1606 24.9317 16.1606 25.1981 16.3864L34.8129 24.5345C35.1139 24.7896 35.1511 25.2403 34.8961 25.5413C34.641 25.8422 34.1903 25.8794 33.8893 25.6244L24.7363 17.8676L15.5833 25.6244C15.2824 25.8794 14.8316 25.8422 14.5766 25.5413C14.3216 25.2403 14.3588 24.7896 14.6597 24.5345L24.2745 16.3864Z" fill="#34485C"/>
<path fill-rule="evenodd" clip-rule="evenodd" d="M25.7949 29.9684C25.7949 29.6528 26.0508 29.397 26.3664 29.397H27.996C28.3116 29.397 28.5674 29.6528 28.5674 29.9684C28.5674 30.284 28.3116 30.5398 27.996 30.5398H26.3664C26.0508 30.5398 25.7949 30.284 25.7949 29.9684Z" fill="#FF4D72"/>
<path fill-rule="evenodd" clip-rule="evenodd" d="M34.7853 1.14282C35.1009 1.14282 35.3567 1.39866 35.3567 1.71425L35.3567 9.99996C35.3567 10.3156 35.1009 10.5714 34.7853 10.5714C34.4697 10.5714 34.2139 10.3156 34.2139 9.99996L34.2139 1.71425C34.2139 1.39866 34.4697 1.14282 34.7853 1.14282Z" fill="#61CFC5"/>
<path fill-rule="evenodd" clip-rule="evenodd" d="M38.3704 7.06677C38.5703 7.31103 38.5343 7.67104 38.29 7.87088L35.1472 10.4423C34.9029 10.6422 34.5429 10.6062 34.3431 10.3619C34.1432 10.1176 34.1792 9.75764 34.4235 9.55779L37.5663 6.98636C37.8106 6.78652 38.1706 6.82252 38.3704 7.06677Z" fill="#61CFC5"/>
<path fill-rule="evenodd" clip-rule="evenodd" d="M31.2009 7.06677C31.001 7.31103 31.037 7.67104 31.2813 7.87088L34.4241 10.4423C34.6684 10.6422 35.0284 10.6062 35.2282 10.3619C35.4281 10.1176 35.3921 9.75764 35.1478 9.55779L32.005 6.98636C31.7607 6.78652 31.4007 6.82252 31.2009 7.06677Z" fill="#61CFC5"/>
</svg>
