<svg width="49" height="48" viewBox="0 0 49 48" fill="none" xmlns="http://www.w3.org/2000/svg">
<path fill-rule="evenodd" clip-rule="evenodd" d="M16.8711 25.7143C16.8711 25.3198 17.1909 25 17.5854 25H31.2997C31.6942 25 32.014 25.3198 32.014 25.7143V42.8571H30.5854V26.4286H18.2997V42.8571H16.8711V25.7143Z" fill="#61CFC5"/>
<path fill-rule="evenodd" clip-rule="evenodd" d="M3.35693 42.8571C3.35693 42.3838 3.74069 42 4.21408 42H44.6712C45.1446 42 45.5283 42.3838 45.5283 42.8571C45.5283 43.3305 45.1446 43.7143 44.6712 43.7143H4.21408C3.74069 43.7143 3.35693 43.3305 3.35693 42.8571Z" fill="#34485C"/>
<path fill-rule="evenodd" clip-rule="evenodd" d="M41.2424 18.5713C41.7158 18.5713 42.0995 18.955 42.0995 19.4284V42.857C42.0995 43.3304 41.7158 43.7141 41.2424 43.7141C40.769 43.7141 40.3853 43.3304 40.3853 42.857V19.4284C40.3853 18.955 40.769 18.5713 41.2424 18.5713Z" fill="#34485C"/>
<path fill-rule="evenodd" clip-rule="evenodd" d="M7.64279 18.5715C8.11617 18.5715 8.49993 18.9553 8.49993 19.4287V42.8572C8.49993 43.3306 8.11617 43.7144 7.64279 43.7144C7.1694 43.7144 6.78564 43.3306 6.78564 42.8572V19.4287C6.78564 18.9553 7.1694 18.5715 7.64279 18.5715Z" fill="#34485C"/>
<path fill-rule="evenodd" clip-rule="evenodd" d="M23.8885 4.48888C24.2082 4.2179 24.6771 4.2179 24.9968 4.48888L45.2254 21.6317C45.5865 21.9378 45.6312 22.4786 45.3251 22.8398C45.0191 23.2009 44.4782 23.2456 44.117 22.9395L24.4426 6.26633L4.76826 22.9395C4.40711 23.2456 3.86624 23.2009 3.56018 22.8398C3.25413 22.4786 3.29879 21.9378 3.65993 21.6317L23.8885 4.48888Z" fill="#34485C"/>
<path fill-rule="evenodd" clip-rule="evenodd" d="M27.1567 32.5715C27.1567 32.177 27.4765 31.8572 27.871 31.8572H31.2996C31.6941 31.8572 32.0139 32.177 32.0139 32.5715C32.0139 32.966 31.6941 33.2858 31.2996 33.2858H27.871C27.4765 33.2858 27.1567 32.966 27.1567 32.5715Z" fill="#61CFC5"/>
</svg>
