<svg width="49" height="48" viewBox="0 0 49 48" fill="none" xmlns="http://www.w3.org/2000/svg">
<path fill-rule="evenodd" clip-rule="evenodd" d="M35.5575 23.0001H27.1289V21.5715H36.2718C36.6663 21.5715 36.9861 21.8913 36.9861 22.2858V33.7144H35.5575V23.0001Z" fill="#FF4D72"/>
<path fill-rule="evenodd" clip-rule="evenodd" d="M27.7856 33.7143C27.7856 33.2409 28.1694 32.8572 28.6428 32.8572H45.1856C45.659 32.8572 46.0428 33.2409 46.0428 33.7143C46.0428 34.1877 45.659 34.5715 45.1856 34.5715H28.6428C28.1694 34.5715 27.7856 34.1877 27.7856 33.7143Z" fill="#34485C"/>
<path fill-rule="evenodd" clip-rule="evenodd" d="M42.9001 17.2383C43.3735 17.2383 43.7573 17.622 43.7573 18.0954V33.7145C43.7573 34.1878 43.3735 34.5716 42.9001 34.5716C42.4267 34.5716 42.043 34.1878 42.043 33.7145V18.0954C42.043 17.622 42.4267 17.2383 42.9001 17.2383Z" fill="#34485C"/>
<path fill-rule="evenodd" clip-rule="evenodd" d="M31.1566 7.90866C31.4767 7.64626 31.9385 7.65001 32.2542 7.91759L45.74 19.3461C46.1011 19.6522 46.1458 20.1931 45.8397 20.5542C45.5336 20.9154 44.9928 20.96 44.6316 20.654L31.691 9.68735L21.615 17.9486C21.2489 18.2488 20.7088 18.1953 20.4087 17.8292C20.1085 17.4632 20.162 16.9231 20.5281 16.6229L31.1566 7.90866Z" fill="#34485C"/>
<path fill-rule="evenodd" clip-rule="evenodd" d="M33.4146 26.8573C33.4146 26.5417 33.6704 26.2859 33.986 26.2859H36.2717C36.5873 26.2859 36.8432 26.5417 36.8432 26.8573C36.8432 27.1729 36.5873 27.4287 36.2717 27.4287H33.986C33.6704 27.4287 33.4146 27.1729 33.4146 26.8573Z" fill="#FF4D72"/>
<path fill-rule="evenodd" clip-rule="evenodd" d="M12.1284 28.0002C12.1284 27.6057 12.4482 27.2859 12.8427 27.2859H21.9856C22.3801 27.2859 22.6999 27.6057 22.6999 28.0002V39.4287H21.2713V28.7145H13.557V39.4287H12.1284V28.0002Z" fill="#61CFC5"/>
<path fill-rule="evenodd" clip-rule="evenodd" d="M3.07129 39.4287C3.07129 38.9553 3.45505 38.5715 3.92843 38.5715H30.8998C31.3732 38.5715 31.757 38.9553 31.757 39.4287C31.757 39.9021 31.3732 40.2858 30.8998 40.2858H3.92843C3.45505 40.2858 3.07129 39.9021 3.07129 39.4287Z" fill="#34485C"/>
<path fill-rule="evenodd" clip-rule="evenodd" d="M28.6145 22.9526C29.0879 22.9526 29.4716 23.3364 29.4716 23.8098V39.4288C29.4716 39.9022 29.0879 40.286 28.6145 40.286C28.1411 40.286 27.7573 39.9022 27.7573 39.4288V23.8098C27.7573 23.3364 28.1411 22.9526 28.6145 22.9526Z" fill="#34485C"/>
<path fill-rule="evenodd" clip-rule="evenodd" d="M6.21408 22.9526C6.68746 22.9526 7.07122 23.3364 7.07122 23.8098V39.4288C7.07122 39.9022 6.68746 40.286 6.21408 40.286C5.74069 40.286 5.35693 39.9022 5.35693 39.4288V23.8098C5.35693 23.3364 5.74069 22.9526 6.21408 22.9526Z" fill="#34485C"/>
<path fill-rule="evenodd" clip-rule="evenodd" d="M16.86 13.6319C17.1797 13.361 17.6486 13.361 17.9683 13.6319L31.454 25.0605C31.8152 25.3666 31.8598 25.9074 31.5538 26.2686C31.2477 26.6297 30.7068 26.6744 30.3457 26.3683L17.4142 15.4094L4.48261 26.3683C4.12147 26.6744 3.58059 26.6297 3.27454 26.2686C2.96848 25.9074 3.01314 25.3666 3.37429 25.0605L16.86 13.6319Z" fill="#34485C"/>
<path fill-rule="evenodd" clip-rule="evenodd" d="M18.9858 32.5717C18.9858 32.1772 19.3056 31.8574 19.7001 31.8574H21.9859C22.3804 31.8574 22.7002 32.1772 22.7002 32.5717C22.7002 32.9662 22.3804 33.286 21.9859 33.286H19.7001C19.3056 33.286 18.9858 32.9662 18.9858 32.5717Z" fill="#61CFC5"/>
</svg>
