<svg width="49" height="48" viewBox="0 0 49 48" fill="none" xmlns="http://www.w3.org/2000/svg">
<path fill-rule="evenodd" clip-rule="evenodd" d="M37.6097 23.2063H31.6626V22.0635H38.1811C38.4967 22.0635 38.7526 22.3193 38.7526 22.6349V30.783H37.6097V23.2063Z" fill="#FF4D72"/>
<path fill-rule="evenodd" clip-rule="evenodd" d="M32.0278 30.7831C32.0278 30.3886 32.3476 30.0688 32.7421 30.0688H44.5365C44.931 30.0688 45.2508 30.3886 45.2508 30.7831C45.2508 31.1776 44.931 31.4974 44.5365 31.4974H32.7421C32.3476 31.4974 32.0278 31.1776 32.0278 30.7831Z" fill="#34485C"/>
<path fill-rule="evenodd" clip-rule="evenodd" d="M42.9072 18.9329C43.3016 18.9329 43.6214 19.2527 43.6214 19.6471V30.7829C43.6214 31.1774 43.3016 31.4972 42.9072 31.4972C42.5127 31.4972 42.1929 31.1774 42.1929 30.7829V19.6471C42.1929 19.2527 42.5127 18.9329 42.9072 18.9329Z" fill="#34485C"/>
<path fill-rule="evenodd" clip-rule="evenodd" d="M34.4691 12.3047C34.7358 12.0861 35.1206 12.0892 35.3838 12.3122L44.9986 20.4603C45.2995 20.7154 45.3367 21.1661 45.0817 21.467C44.8267 21.768 44.3759 21.8052 44.075 21.5502L34.9144 13.787L27.7971 19.6224C27.492 19.8726 27.0419 19.828 26.7918 19.5229C26.5417 19.2179 26.5862 18.7678 26.8913 18.5177L34.4691 12.3047Z" fill="#34485C"/>
<path fill-rule="evenodd" clip-rule="evenodd" d="M35.98 25.8942C35.98 25.5786 36.2358 25.3228 36.5514 25.3228H38.1811C38.4966 25.3228 38.7525 25.5786 38.7525 25.8942C38.7525 26.2098 38.4966 26.4656 38.1811 26.4656H36.5514C36.2358 26.4656 35.98 26.2098 35.98 25.8942Z" fill="#FF4D72"/>
<path fill-rule="evenodd" clip-rule="evenodd" d="M11.1413 23.2063H17.0884V22.0635H10.5699C10.2543 22.0635 9.99843 22.3193 9.99843 22.6349V30.783H11.1413V23.2063Z" fill="#FF4D72"/>
<path fill-rule="evenodd" clip-rule="evenodd" d="M16.7231 30.7831C16.7231 30.3886 16.4033 30.0688 16.0089 30.0688H4.21443C3.81994 30.0688 3.50014 30.3886 3.50014 30.7831C3.50014 31.1776 3.81994 31.4974 4.21443 31.4974H16.0089C16.4033 31.4974 16.7231 31.1776 16.7231 30.7831Z" fill="#34485C"/>
<path fill-rule="evenodd" clip-rule="evenodd" d="M5.84382 18.9329C5.44933 18.9329 5.12953 19.2527 5.12953 19.6471V30.7829C5.12953 31.1774 5.44933 31.4972 5.84382 31.4972C6.23831 31.4972 6.55811 31.1774 6.55811 30.7829V19.6471C6.55811 19.2527 6.23831 18.9329 5.84382 18.9329Z" fill="#34485C"/>
<path fill-rule="evenodd" clip-rule="evenodd" d="M14.2819 12.3047C14.0152 12.0861 13.6303 12.0892 13.3672 12.3122L3.75241 20.4603C3.45145 20.7154 3.41424 21.1661 3.66928 21.467C3.92433 21.768 4.37506 21.8052 4.67601 21.5502L13.8366 13.787L20.9539 19.6224C21.259 19.8726 21.709 19.828 21.9592 19.5229C22.2093 19.2179 22.1647 18.7678 21.8597 18.5177L14.2819 12.3047Z" fill="#34485C"/>
<path fill-rule="evenodd" clip-rule="evenodd" d="M12.771 25.8942C12.771 25.5786 12.5152 25.3228 12.1996 25.3228H10.5699C10.2543 25.3228 9.99849 25.5786 9.99849 25.8942C9.99849 26.2098 10.2543 26.4656 10.5699 26.4656H12.1996C12.5152 26.4656 12.771 26.2098 12.771 25.8942Z" fill="#FF4D72"/>
<path fill-rule="evenodd" clip-rule="evenodd" d="M20.9058 26.7091C20.9058 26.3935 21.1616 26.1377 21.4772 26.1377H27.9957C28.3113 26.1377 28.5671 26.3935 28.5671 26.7091V34.8573C28.5671 35.1729 28.3113 35.4287 27.9957 35.4287C27.6801 35.4287 27.4243 35.1729 27.4243 34.8573V27.2806H22.0486V34.8573C22.0486 35.1729 21.7928 35.4287 21.4772 35.4287C21.1616 35.4287 20.9058 35.1729 20.9058 34.8573V26.7091Z" fill="#61CFC5"/>
<path fill-rule="evenodd" clip-rule="evenodd" d="M14.4072 34.8574C14.4072 34.4629 14.727 34.1431 15.1215 34.1431H34.3511C34.7456 34.1431 35.0654 34.4629 35.0654 34.8574C35.0654 35.2518 34.7456 35.5716 34.3511 35.5716H15.1215C14.727 35.5716 14.4072 35.2518 14.4072 34.8574Z" fill="#34485C"/>
<path fill-rule="evenodd" clip-rule="evenodd" d="M32.7216 23.0073C33.1161 23.0073 33.4359 23.3271 33.4359 23.7216V34.8574C33.4359 35.2519 33.1161 35.5717 32.7216 35.5717C32.3271 35.5717 32.0073 35.2519 32.0073 34.8574V23.7216C32.0073 23.3271 32.3271 23.0073 32.7216 23.0073Z" fill="#34485C"/>
<path fill-rule="evenodd" clip-rule="evenodd" d="M16.7514 23.0073C17.1459 23.0073 17.4657 23.3271 17.4657 23.7216V34.8574C17.4657 35.2519 17.1459 35.5717 16.7514 35.5717C16.3569 35.5717 16.0371 35.2519 16.0371 34.8574V23.7216C16.0371 23.3271 16.3569 23.0073 16.7514 23.0073Z" fill="#34485C"/>
<path fill-rule="evenodd" clip-rule="evenodd" d="M24.2745 16.3864C24.541 16.1606 24.9317 16.1606 25.1981 16.3864L34.8129 24.5345C35.1139 24.7896 35.1511 25.2403 34.8961 25.5413C34.641 25.8422 34.1903 25.8794 33.8893 25.6244L24.7363 17.8676L15.5833 25.6244C15.2824 25.8794 14.8316 25.8422 14.5766 25.5413C14.3216 25.2403 14.3588 24.7896 14.6597 24.5345L24.2745 16.3864Z" fill="#34485C"/>
<path fill-rule="evenodd" clip-rule="evenodd" d="M25.7944 29.9684C25.7944 29.6528 26.0503 29.397 26.3659 29.397H27.9955C28.3111 29.397 28.5669 29.6528 28.5669 29.9684C28.5669 30.284 28.3111 30.5398 27.9955 30.5398H26.3659C26.0503 30.5398 25.7944 30.284 25.7944 29.9684Z" fill="#61CFC5"/>
<path fill-rule="evenodd" clip-rule="evenodd" d="M24.7858 3.14282C25.1014 3.14282 25.3572 3.39866 25.3572 3.71425V13.1428C25.3572 13.4584 25.1014 13.7143 24.7858 13.7143C24.4702 13.7143 24.2144 13.4584 24.2144 13.1428V3.71425C24.2144 3.39866 24.4702 3.14282 24.7858 3.14282Z" fill="#61CFC5"/>
<path fill-rule="evenodd" clip-rule="evenodd" d="M28.6534 10.7769C28.8554 11.0194 28.8226 11.3797 28.5802 11.5817L25.1516 14.4389C24.9092 14.6409 24.5489 14.6081 24.3468 14.3657C24.1448 14.1233 24.1775 13.7629 24.42 13.5609L27.8486 10.7037C28.091 10.5017 28.4513 10.5345 28.6534 10.7769Z" fill="#61CFC5"/>
<path fill-rule="evenodd" clip-rule="evenodd" d="M20.9179 10.7769C20.7159 11.0194 20.7487 11.3797 20.9911 11.5817L24.4197 14.4389C24.6621 14.6409 25.0224 14.6081 25.2245 14.3657C25.4265 14.1233 25.3938 13.7629 25.1513 13.5609L21.7227 10.7037C21.4803 10.5017 21.12 10.5345 20.9179 10.7769Z" fill="#61CFC5"/>
</svg>
