<svg width="24" height="24" viewBox="0 0 24 24" fill="none" xmlns="http://www.w3.org/2000/svg">
<path fill-rule="evenodd" clip-rule="evenodd" d="M12.0003 16.645C11.5861 16.645 11.2503 16.3092 11.2503 15.895V12C11.2503 11.5858 11.5861 11.25 12.0003 11.25C12.4145 11.25 12.7503 11.5858 12.7503 12V15.895C12.7503 16.3092 12.4145 16.645 12.0003 16.645Z" fill="#FF4D72"/>
<path fill-rule="evenodd" clip-rule="evenodd" d="M12.7546 8.5C12.7546 8.91421 12.4188 9.25 12.0046 9.25H11.9956C11.5814 9.25 11.2456 8.91421 11.2456 8.5C11.2456 8.08579 11.5814 7.75 11.9956 7.75H12.0046C12.4188 7.75 12.7546 8.08579 12.7546 8.5Z" fill="#FF4D72"/>
<path fill-rule="evenodd" clip-rule="evenodd" d="M18.6963 18.696C19.9193 17.473 20.5002 15.4269 20.5002 12C20.5002 8.5731 19.9193 6.52693 18.6963 5.30395C17.4733 4.08098 15.4271 3.5 12.0002 3.5C8.57334 3.5 6.52717 4.08098 5.3042 5.30395C4.08123 6.52693 3.50024 8.5731 3.50024 12C3.50024 15.4269 4.08123 17.473 5.3042 18.696C6.52717 19.919 8.57334 20.5 12.0002 20.5C15.4271 20.5 17.4733 19.919 18.6963 18.696ZM19.7569 19.7567C18.0892 21.4245 15.5103 22 12.0002 22C8.49015 22 5.91132 21.4245 4.24354 19.7567C2.57576 18.0889 2.00024 15.5101 2.00024 12C2.00024 8.4899 2.57576 5.91107 4.24354 4.24329C5.91132 2.57552 8.49015 2 12.0002 2C15.5103 2 18.0892 2.57552 19.7569 4.24329C21.4247 5.91107 22.0002 8.4899 22.0002 12C22.0002 15.5101 21.4247 18.0889 19.7569 19.7567Z" fill="#34485C"/>
</svg>
