<svg width="270" height="40" viewBox="0 0 270 40" fill="none" xmlns="http://www.w3.org/2000/svg">
<path d="M20.5723 6.53484H14.8016L5.18377 18.6149V6.53484H0.567627V33.4648H5.18377V21.3075L15.7638 33.4648H21.88L10.0317 19.7688L20.5723 6.53484Z" fill="#34485C"/>
<path d="M78.9568 20.0766L70.1852 6.53507H65.9153V33.4644H70.5314V15.3832L78.9568 28.1944L87.3822 15.3832V33.4644H91.9983V6.53507H87.7277L78.9568 20.0766Z" fill="#34485C"/>
<path d="M117.735 20.0766L108.963 6.53507H104.693V33.4644H109.31V15.3832L117.735 28.1944L126.16 15.3832V33.4644H130.776V6.53507H126.506L117.735 20.0766Z" fill="#34485C"/>
<path d="M40.8628 6.53484L30.3987 33.4648H32.554C33.2899 33.4647 34.0085 33.2419 34.6154 32.8257C35.2223 32.4094 35.6889 31.8193 35.9541 31.1328L43.2091 12.3442L50.4649 31.1328C50.73 31.8193 51.1966 32.4095 51.8035 32.8258C52.4104 33.242 53.1291 33.4648 53.865 33.4648H56.0203L45.5562 6.53484H40.8628Z" fill="#34485C"/>
<path d="M155.969 6.53484H151.275L140.811 33.4648H142.966C143.702 33.4647 144.421 33.2419 145.028 32.8257C145.635 32.4094 146.101 31.8193 146.366 31.1328L153.622 12.3442L160.877 31.1328C161.142 31.8193 161.609 32.4095 162.216 32.8258C162.823 33.242 163.541 33.4648 164.277 33.4648H166.433L155.969 6.53484Z" fill="#34485C"/>
<path d="M176.432 39C176.432 39.5523 176.88 40 177.432 40C177.985 40 178.432 39.5523 178.432 39V1C178.432 0.447716 177.985 0 177.432 0C176.88 0 176.432 0.447716 176.432 1V39Z" fill="#19D3C5"/>
<path d="M190.48 15.112C190.267 15.112 190.102 15.0533 189.984 14.936C189.878 14.808 189.824 14.6373 189.824 14.424V4.392C189.824 4.168 189.883 4.00267 190 3.896C190.118 3.77867 190.283 3.72 190.496 3.72H194.288C195.494 3.72 196.422 4.00267 197.072 4.568C197.723 5.13333 198.048 5.93867 198.048 6.984C198.048 7.64533 197.899 8.22133 197.6 8.712C197.312 9.192 196.886 9.56 196.32 9.816C195.755 10.0613 195.078 10.184 194.288 10.184L194.448 9.976H194.768C195.184 9.976 195.547 10.0827 195.856 10.296C196.166 10.5093 196.448 10.8507 196.704 11.32L198.24 14.184C198.326 14.3333 198.363 14.4827 198.352 14.632C198.352 14.7707 198.304 14.888 198.208 14.984C198.112 15.0693 197.974 15.112 197.792 15.112C197.611 15.112 197.462 15.0693 197.344 14.984C197.227 14.8987 197.126 14.776 197.04 14.616L195.296 11.384C195.051 10.9253 194.768 10.6213 194.448 10.472C194.128 10.312 193.707 10.232 193.184 10.232H191.136V14.424C191.136 14.6373 191.083 14.808 190.976 14.936C190.87 15.0533 190.704 15.112 190.48 15.112ZM191.136 9.192H194.096C194.971 9.192 195.632 9.01067 196.08 8.648C196.528 8.27467 196.752 7.72 196.752 6.984C196.752 6.26933 196.528 5.73067 196.08 5.368C195.632 4.99467 194.971 4.808 194.096 4.808H191.136V9.192ZM201.247 15C201.013 15 200.831 14.9413 200.703 14.824C200.586 14.696 200.527 14.5147 200.527 14.28V4.44C200.527 4.20533 200.586 4.02933 200.703 3.912C200.831 3.784 201.013 3.72 201.247 3.72H207.199C207.381 3.72 207.519 3.768 207.615 3.864C207.711 3.96 207.759 4.09333 207.759 4.264C207.759 4.44533 207.711 4.584 207.615 4.68C207.519 4.776 207.381 4.824 207.199 4.824H201.807V8.728H206.863C207.045 8.728 207.183 8.776 207.279 8.872C207.375 8.95733 207.423 9.09067 207.423 9.272C207.423 9.45333 207.375 9.592 207.279 9.688C207.183 9.784 207.045 9.832 206.863 9.832H201.807V13.896H207.199C207.381 13.896 207.519 13.944 207.615 14.04C207.711 14.136 207.759 14.2693 207.759 14.44C207.759 14.6213 207.711 14.76 207.615 14.856C207.519 14.952 207.381 15 207.199 15H201.247ZM213.076 15.112C212.874 15.112 212.714 15.0533 212.596 14.936C212.479 14.808 212.42 14.6373 212.42 14.424V4.856H208.82C208.628 4.856 208.479 4.80267 208.372 4.696C208.266 4.58933 208.212 4.45067 208.212 4.28C208.212 4.09867 208.266 3.96 208.372 3.864C208.479 3.768 208.628 3.72 208.82 3.72H217.348C217.54 3.72 217.69 3.768 217.796 3.864C217.903 3.96 217.956 4.09867 217.956 4.28C217.956 4.46133 217.903 4.60533 217.796 4.712C217.69 4.808 217.54 4.856 217.348 4.856H213.748V14.424C213.748 14.6373 213.69 14.808 213.572 14.936C213.466 15.0533 213.3 15.112 213.076 15.112ZM219.933 15.112C219.72 15.112 219.555 15.0533 219.437 14.936C219.331 14.808 219.277 14.6373 219.277 14.424V4.392C219.277 4.168 219.336 4.00267 219.453 3.896C219.571 3.77867 219.736 3.72 219.949 3.72H223.741C224.947 3.72 225.875 4.00267 226.525 4.568C227.176 5.13333 227.501 5.93867 227.501 6.984C227.501 7.64533 227.352 8.22133 227.053 8.712C226.765 9.192 226.339 9.56 225.773 9.816C225.208 10.0613 224.531 10.184 223.741 10.184L223.901 9.976H224.221C224.637 9.976 225 10.0827 225.309 10.296C225.619 10.5093 225.901 10.8507 226.157 11.32L227.693 14.184C227.779 14.3333 227.816 14.4827 227.805 14.632C227.805 14.7707 227.757 14.888 227.661 14.984C227.565 15.0693 227.427 15.112 227.245 15.112C227.064 15.112 226.915 15.0693 226.797 14.984C226.68 14.8987 226.579 14.776 226.493 14.616L224.749 11.384C224.504 10.9253 224.221 10.6213 223.901 10.472C223.581 10.312 223.16 10.232 222.637 10.232H220.589V14.424C220.589 14.6373 220.536 14.808 220.429 14.936C220.323 15.0533 220.157 15.112 219.933 15.112ZM220.589 9.192H223.549C224.424 9.192 225.085 9.01067 225.533 8.648C225.981 8.27467 226.205 7.72 226.205 6.984C226.205 6.26933 225.981 5.73067 225.533 5.368C225.085 4.99467 224.424 4.808 223.549 4.808H220.589V9.192ZM234.638 15.144C233.593 15.144 232.681 14.9093 231.902 14.44C231.134 13.96 230.537 13.288 230.11 12.424C229.694 11.56 229.486 10.536 229.486 9.352C229.486 8.456 229.604 7.656 229.838 6.952C230.084 6.23733 230.43 5.63467 230.878 5.144C231.326 4.64267 231.865 4.25867 232.494 3.992C233.134 3.71467 233.849 3.576 234.638 3.576C235.705 3.576 236.622 3.81067 237.39 4.28C238.169 4.74933 238.766 5.416 239.182 6.28C239.609 7.13333 239.822 8.152 239.822 9.336C239.822 10.232 239.7 11.0373 239.454 11.752C239.209 12.4667 238.862 13.0747 238.414 13.576C237.966 14.0773 237.422 14.4667 236.782 14.744C236.153 15.0107 235.438 15.144 234.638 15.144ZM234.638 13.976C235.449 13.976 236.132 13.7947 236.686 13.432C237.252 13.0693 237.684 12.5413 237.982 11.848C238.281 11.1547 238.43 10.3227 238.43 9.352C238.43 7.89067 238.1 6.76 237.438 5.96C236.788 5.14933 235.854 4.744 234.638 4.744C233.849 4.744 233.172 4.92533 232.606 5.288C232.052 5.65067 231.625 6.17867 231.326 6.872C231.028 7.55467 230.878 8.38133 230.878 9.352C230.878 10.8027 231.209 11.9387 231.87 12.76C232.532 13.5707 233.454 13.976 234.638 13.976ZM242.872 15.112C242.648 15.112 242.472 15.0533 242.344 14.936C242.227 14.808 242.168 14.6267 242.168 14.392V4.44C242.168 4.20533 242.227 4.02933 242.344 3.912C242.472 3.784 242.653 3.72 242.888 3.72H248.696C248.877 3.72 249.016 3.768 249.112 3.864C249.208 3.96 249.256 4.09333 249.256 4.264C249.256 4.44533 249.208 4.584 249.112 4.68C249.016 4.776 248.877 4.824 248.696 4.824H243.48V8.76H248.36C248.541 8.76 248.68 8.808 248.776 8.904C248.883 9 248.936 9.13333 248.936 9.304C248.936 9.48533 248.883 9.624 248.776 9.72C248.68 9.816 248.541 9.864 248.36 9.864H243.48V14.392C243.48 14.872 243.277 15.112 242.872 15.112ZM251.59 15.112C251.376 15.112 251.211 15.0533 251.094 14.936C250.987 14.808 250.934 14.6373 250.934 14.424V4.296C250.934 4.072 250.987 3.90133 251.094 3.784C251.211 3.66667 251.376 3.608 251.59 3.608C251.803 3.608 251.963 3.66667 252.07 3.784C252.187 3.90133 252.246 4.072 252.246 4.296V14.424C252.246 14.6373 252.192 14.808 252.086 14.936C251.979 15.0533 251.814 15.112 251.59 15.112ZM258.467 15.112C258.264 15.112 258.104 15.0533 257.987 14.936C257.87 14.808 257.811 14.6373 257.811 14.424V4.856H254.211C254.019 4.856 253.87 4.80267 253.763 4.696C253.656 4.58933 253.603 4.45067 253.603 4.28C253.603 4.09867 253.656 3.96 253.763 3.864C253.87 3.768 254.019 3.72 254.211 3.72H262.739C262.931 3.72 263.08 3.768 263.187 3.864C263.294 3.96 263.347 4.09867 263.347 4.28C263.347 4.46133 263.294 4.60533 263.187 4.712C263.08 4.808 262.931 4.856 262.739 4.856H259.139V14.424C259.139 14.6373 259.08 14.808 258.963 14.936C258.856 15.0533 258.691 15.112 258.467 15.112ZM190.544 35C190.31 35 190.128 34.9413 190 34.824C189.883 34.696 189.824 34.5147 189.824 34.28V24.44C189.824 24.2053 189.883 24.0293 190 23.912C190.128 23.784 190.31 23.72 190.544 23.72H196.496C196.678 23.72 196.816 23.768 196.912 23.864C197.008 23.96 197.056 24.0933 197.056 24.264C197.056 24.4453 197.008 24.584 196.912 24.68C196.816 24.776 196.678 24.824 196.496 24.824H191.104V28.728H196.16C196.342 28.728 196.48 28.776 196.576 28.872C196.672 28.9573 196.72 29.0907 196.72 29.272C196.72 29.4533 196.672 29.592 196.576 29.688C196.48 29.784 196.342 29.832 196.16 29.832H191.104V33.896H196.496C196.678 33.896 196.816 33.944 196.912 34.04C197.008 34.136 197.056 34.2693 197.056 34.44C197.056 34.6213 197.008 34.76 196.912 34.856C196.816 34.952 196.678 35 196.496 35H190.544ZM198.883 35.112C198.702 35.112 198.553 35.064 198.435 34.968C198.329 34.872 198.265 34.7547 198.243 34.616C198.233 34.4773 198.286 34.3387 198.403 34.2L202.275 28.984V29.48L198.627 24.552C198.51 24.392 198.457 24.2427 198.467 24.104C198.478 23.9653 198.537 23.848 198.643 23.752C198.761 23.656 198.899 23.608 199.059 23.608C199.209 23.608 199.337 23.64 199.443 23.704C199.55 23.768 199.662 23.88 199.779 24.04L203.059 28.536H202.643L205.907 24.04C206.014 23.88 206.121 23.768 206.227 23.704C206.334 23.64 206.462 23.608 206.611 23.608C206.782 23.608 206.921 23.656 207.027 23.752C207.145 23.8373 207.209 23.9547 207.219 24.104C207.23 24.2427 207.177 24.392 207.059 24.552L203.411 29.48V28.984L207.283 34.2C207.39 34.3387 207.433 34.4773 207.411 34.616C207.401 34.7547 207.342 34.872 207.235 34.968C207.129 35.064 206.985 35.112 206.803 35.112C206.665 35.112 206.537 35.0747 206.419 35C206.313 34.936 206.201 34.8293 206.083 34.68L202.579 29.896H203.091L199.587 34.68C199.481 34.8293 199.369 34.936 199.251 35C199.134 35.0747 199.011 35.112 198.883 35.112ZM210.09 35.112C209.876 35.112 209.711 35.0533 209.594 34.936C209.487 34.808 209.434 34.6373 209.434 34.424V24.392C209.434 24.168 209.492 24.0027 209.61 23.896C209.727 23.7787 209.892 23.72 210.106 23.72H213.898C215.103 23.72 216.031 24.0187 216.682 24.616C217.332 25.2027 217.658 26.0347 217.658 27.112C217.658 28.1787 217.332 29.0107 216.682 29.608C216.031 30.2053 215.103 30.504 213.898 30.504H210.746V34.424C210.746 34.6373 210.692 34.808 210.586 34.936C210.479 35.0533 210.314 35.112 210.09 35.112ZM210.746 29.4H213.738C214.602 29.4 215.252 29.208 215.69 28.824C216.138 28.4293 216.362 27.8587 216.362 27.112C216.362 26.3547 216.138 25.784 215.69 25.4C215.252 25.0053 214.602 24.808 213.738 24.808H210.746V29.4ZM220.231 35C220.017 35 219.852 34.9413 219.735 34.824C219.617 34.696 219.559 34.5253 219.559 34.312V24.328C219.559 24.104 219.612 23.9333 219.719 23.816C219.836 23.6987 220.001 23.64 220.215 23.64C220.428 23.64 220.588 23.6987 220.695 23.816C220.812 23.9333 220.871 24.104 220.871 24.328V33.848H226.119C226.311 33.848 226.46 33.9013 226.567 34.008C226.673 34.104 226.727 34.2427 226.727 34.424C226.727 34.6053 226.673 34.7493 226.567 34.856C226.46 34.952 226.311 35 226.119 35H220.231ZM232.404 35.144C231.359 35.144 230.447 34.9093 229.668 34.44C228.9 33.96 228.303 33.288 227.876 32.424C227.46 31.56 227.252 30.536 227.252 29.352C227.252 28.456 227.369 27.656 227.604 26.952C227.849 26.2373 228.196 25.6347 228.644 25.144C229.092 24.6427 229.631 24.2587 230.26 23.992C230.9 23.7147 231.615 23.576 232.404 23.576C233.471 23.576 234.388 23.8107 235.156 24.28C235.935 24.7493 236.532 25.416 236.948 26.28C237.375 27.1333 237.588 28.152 237.588 29.336C237.588 30.232 237.465 31.0373 237.22 31.752C236.975 32.4667 236.628 33.0747 236.18 33.576C235.732 34.0773 235.188 34.4667 234.548 34.744C233.919 35.0107 233.204 35.144 232.404 35.144ZM232.404 33.976C233.215 33.976 233.897 33.7947 234.452 33.432C235.017 33.0693 235.449 32.5413 235.748 31.848C236.047 31.1547 236.196 30.3227 236.196 29.352C236.196 27.8907 235.865 26.76 235.204 25.96C234.553 25.1493 233.62 24.744 232.404 24.744C231.615 24.744 230.937 24.9253 230.372 25.288C229.817 25.6507 229.391 26.1787 229.092 26.872C228.793 27.5547 228.644 28.3813 228.644 29.352C228.644 30.8027 228.975 31.9387 229.636 32.76C230.297 33.5707 231.22 33.976 232.404 33.976ZM240.59 35.112C240.376 35.112 240.211 35.0533 240.094 34.936C239.987 34.808 239.934 34.6373 239.934 34.424V24.392C239.934 24.168 239.992 24.0027 240.11 23.896C240.227 23.7787 240.392 23.72 240.606 23.72H244.398C245.603 23.72 246.531 24.0027 247.182 24.568C247.832 25.1333 248.158 25.9387 248.158 26.984C248.158 27.6453 248.008 28.2213 247.71 28.712C247.422 29.192 246.995 29.56 246.43 29.816C245.864 30.0613 245.187 30.184 244.398 30.184L244.558 29.976H244.878C245.294 29.976 245.656 30.0827 245.966 30.296C246.275 30.5093 246.558 30.8507 246.814 31.32L248.35 34.184C248.435 34.3333 248.472 34.4827 248.462 34.632C248.462 34.7707 248.414 34.888 248.318 34.984C248.222 35.0693 248.083 35.112 247.902 35.112C247.72 35.112 247.571 35.0693 247.454 34.984C247.336 34.8987 247.235 34.776 247.15 34.616L245.406 31.384C245.16 30.9253 244.878 30.6213 244.558 30.472C244.238 30.312 243.816 30.232 243.294 30.232H241.246V34.424C241.246 34.6373 241.192 34.808 241.086 34.936C240.979 35.0533 240.814 35.112 240.59 35.112ZM241.246 29.192H244.206C245.08 29.192 245.742 29.0107 246.19 28.648C246.638 28.2747 246.862 27.72 246.862 26.984C246.862 26.2693 246.638 25.7307 246.19 25.368C245.742 24.9947 245.08 24.808 244.206 24.808H241.246V29.192ZM251.357 35C251.122 35 250.941 34.9413 250.813 34.824C250.696 34.696 250.637 34.5147 250.637 34.28V24.44C250.637 24.2053 250.696 24.0293 250.813 23.912C250.941 23.784 251.122 23.72 251.357 23.72H257.309C257.49 23.72 257.629 23.768 257.725 23.864C257.821 23.96 257.869 24.0933 257.869 24.264C257.869 24.4453 257.821 24.584 257.725 24.68C257.629 24.776 257.49 24.824 257.309 24.824H251.917V28.728H256.973C257.154 28.728 257.293 28.776 257.389 28.872C257.485 28.9573 257.533 29.0907 257.533 29.272C257.533 29.4533 257.485 29.592 257.389 29.688C257.293 29.784 257.154 29.832 256.973 29.832H251.917V33.896H257.309C257.49 33.896 257.629 33.944 257.725 34.04C257.821 34.136 257.869 34.2693 257.869 34.44C257.869 34.6213 257.821 34.76 257.725 34.856C257.629 34.952 257.49 35 257.309 35H251.357ZM260.621 35.112C260.408 35.112 260.242 35.0533 260.125 34.936C260.018 34.808 259.965 34.6373 259.965 34.424V24.392C259.965 24.168 260.024 24.0027 260.141 23.896C260.258 23.7787 260.424 23.72 260.637 23.72H264.429C265.634 23.72 266.562 24.0027 267.213 24.568C267.864 25.1333 268.189 25.9387 268.189 26.984C268.189 27.6453 268.04 28.2213 267.741 28.712C267.453 29.192 267.026 29.56 266.461 29.816C265.896 30.0613 265.218 30.184 264.429 30.184L264.589 29.976H264.909C265.325 29.976 265.688 30.0827 265.997 30.296C266.306 30.5093 266.589 30.8507 266.845 31.32L268.381 34.184C268.466 34.3333 268.504 34.4827 268.493 34.632C268.493 34.7707 268.445 34.888 268.349 34.984C268.253 35.0693 268.114 35.112 267.933 35.112C267.752 35.112 267.602 35.0693 267.485 34.984C267.368 34.8987 267.266 34.776 267.181 34.616L265.437 31.384C265.192 30.9253 264.909 30.6213 264.589 30.472C264.269 30.312 263.848 30.232 263.325 30.232H261.277V34.424C261.277 34.6373 261.224 34.808 261.117 34.936C261.01 35.0533 260.845 35.112 260.621 35.112ZM261.277 29.192H264.237C265.112 29.192 265.773 29.0107 266.221 28.648C266.669 28.2747 266.893 27.72 266.893 26.984C266.893 26.2693 266.669 25.7307 266.221 25.368C265.773 24.9947 265.112 24.808 264.237 24.808H261.277V29.192Z" fill="#34485C"/>
</svg>
