<svg width="64" height="64" viewBox="0 0 64 64" fill="none" xmlns="http://www.w3.org/2000/svg">
<path d="M4.40721 55.9542C4.76362 56.0746 5.15753 55.9515 5.38404 55.6499C6.51304 54.1492 8.23644 53.2886 10.1132 53.2886H10.117C11.9917 53.2895 13.7117 54.1501 14.8364 55.6491C15.0658 55.9555 15.4634 56.0725 15.8132 55.9543C16.1704 55.8355 16.4114 55.5013 16.4114 55.1244C16.4114 46.8811 16.4114 19.8411 16.4114 11.5968C16.4114 11.4071 16.35 11.2233 16.2362 11.0721C14.7786 9.12775 12.5485 8.01158 10.1184 8.01068C10.1162 8.00977 10.115 8.00977 10.1133 8.00977C7.68092 8.00977 5.4478 9.12593 3.98511 11.0711C3.87101 11.2223 3.80952 11.4069 3.80952 11.5967V55.1243C3.80941 55.5011 4.05035 55.8354 4.40721 55.9542ZM5.55974 42.0951V33.7243C7.92595 30.8555 12.2955 30.8483 14.6612 33.7234V42.0931C11.9741 40.0942 8.27838 40.0735 5.55974 42.0951ZM14.6611 31.234C11.974 29.2351 8.27838 29.2145 5.55963 31.2361V22.8653C7.92583 19.9964 12.2954 19.9892 14.6611 22.8643V31.234ZM10.1184 51.5383C10.1162 51.5383 10.115 51.5383 10.1133 51.5383C8.43908 51.5383 6.85877 52.0664 5.55974 53.0305V44.5833C7.92595 41.7144 12.2955 41.7073 14.6612 44.5824V53.0279C13.3655 52.0664 11.7892 51.5391 10.1184 51.5383ZM10.1132 9.7601C10.1144 9.7601 10.1158 9.7601 10.117 9.76101C11.8968 9.76192 13.5373 10.5379 14.6611 11.8993V20.3757C11.996 18.3929 8.29997 18.3395 5.55963 20.3778V11.9001C6.68738 10.537 8.33122 9.7601 10.1132 9.7601Z" fill="#34485C"/>
<path d="M44.9941 10.2337C45.4355 10.4234 45.9517 10.2208 46.144 9.77727C46.3359 9.3329 46.1312 8.8184 45.6873 8.6269C42.7641 7.36549 39.434 8.0549 37.2395 10.2703C35.8133 8.82795 33.893 8.01148 31.822 8.01068C31.8203 8.00978 31.8186 8.00978 31.8169 8.00978C29.7429 8.00978 27.8176 8.82761 26.3872 10.2731C24.1991 8.05762 20.867 7.37049 17.9341 8.63531C17.4906 8.8267 17.2859 9.3421 17.4777 9.78568C17.6691 10.2293 18.1824 10.4318 18.6281 10.2421C21.0549 9.19265 23.8448 9.87717 25.5096 11.9019V20.4491C23.6213 19.044 21.162 18.5817 18.7874 19.2756C18.3237 19.4115 18.058 19.8977 18.1938 20.3619C18.3288 20.8259 18.8164 21.09 19.2797 20.9558C21.5952 20.2748 24.0097 21.0358 25.5129 22.8774V31.2263C23.6229 29.8166 21.1653 29.3438 18.7873 30.0398C18.3236 30.1757 18.0579 30.6619 18.1937 31.1261C18.3287 31.5901 18.8163 31.8533 19.2795 31.72C21.5891 31.0406 24.0052 31.785 25.5094 33.6148V42.1612C23.6202 40.757 21.1618 40.293 18.7872 40.9878C18.3235 41.1237 18.0578 41.6099 18.1936 42.074C18.3286 42.5381 18.8162 42.8022 19.2794 42.668C21.5963 41.9875 24.0055 42.7476 25.5093 44.5851V53.0219C23.621 51.6168 21.1617 51.1537 18.7871 51.8484C18.3234 51.9843 18.0577 52.4705 18.1935 52.9347C18.3285 53.3987 18.8161 53.6619 19.2793 53.5286C21.6796 52.8235 24.1961 53.6542 25.6831 55.6456C25.689 55.6536 25.699 55.6563 25.7052 55.664C26.0764 56.1334 26.7526 56.094 27.0873 55.6498C28.2163 54.1491 29.9397 53.2885 31.8164 53.2885H31.8203C33.6872 53.2894 35.4002 54.1438 36.5252 55.6314C36.5263 55.633 36.5278 55.6342 36.5291 55.6359C36.5326 55.6405 36.5366 55.6443 36.5401 55.649C36.5428 55.6526 36.5475 55.6539 36.5503 55.6575C36.937 56.1521 37.651 56.061 37.9562 55.624C39.4575 53.6549 41.9604 52.8275 44.3435 53.5201C44.808 53.6551 45.293 53.3876 45.4284 52.9245C45.5629 52.4604 45.2963 51.9749 44.8323 51.8399C42.4656 51.1515 40.0091 51.6199 38.1153 53.0262V44.5824C39.6299 42.7512 42.0389 41.9904 44.3435 42.6593C44.808 42.7952 45.293 42.5268 45.4284 42.0637C45.5629 41.5996 45.2963 41.1141 44.8323 40.9791C42.4656 40.2898 40.0091 40.7599 38.1153 42.1654V33.7301C39.6298 31.8982 42.0373 31.1381 44.3435 31.808C44.808 31.9439 45.293 31.6755 45.4284 31.2123C45.5629 30.7483 45.2963 30.2628 44.8323 30.1278C42.4656 29.4385 40.0083 29.9077 38.1153 31.3132V22.8706C39.6288 21.0382 42.0386 20.2773 44.3435 20.9473C44.808 21.084 45.293 20.8148 45.4284 20.3517C45.4641 20.2283 45.4679 20.1048 45.4509 19.9855C45.4396 19.6163 45.2061 19.2792 44.8323 19.1705C42.4636 18.4809 40.0093 18.958 38.1153 20.3669V11.8989C39.7877 9.87762 42.5737 9.18833 44.9941 10.2337ZM27.2634 22.8654C29.6266 19.9999 33.9929 19.9873 36.3614 22.86V31.2315C33.6594 29.2242 29.966 29.227 27.2634 31.2361V22.8654ZM27.2634 33.7243C29.6266 30.859 33.9929 30.8463 36.3614 33.719V42.0905C33.6594 40.0832 29.966 40.0859 27.2634 42.095V33.7243ZM31.8169 9.76022C31.8181 9.76022 31.8195 9.76022 31.8208 9.76113C33.5991 9.76204 35.2378 10.5366 36.3614 11.8953V20.3731C33.6646 18.3691 29.9714 18.3637 27.2634 20.3779V11.9003C28.3915 10.5371 30.035 9.76022 31.8169 9.76022ZM31.822 51.5384C31.8203 51.5384 31.8186 51.5384 31.8169 51.5384C30.1431 51.5384 28.5624 52.0665 27.2634 53.0306V44.5834C29.6266 41.7181 33.9929 41.7053 36.3614 44.5781V53.0265C35.0664 52.0658 33.4916 51.5392 31.822 51.5384Z" fill="#FF4D72"/>
<path d="M53.5249 8.01068C53.5237 8.00977 53.522 8.00977 53.5203 8.00977C51.0884 8.00977 48.8553 9.12593 47.3926 11.0711C47.2785 11.2223 47.217 11.4069 47.217 11.5967V55.1243C47.217 55.5011 47.4576 55.8354 47.8148 55.9542C48.1712 56.0746 48.5656 55.9515 48.7916 55.6499C49.9206 54.1492 51.6436 53.2886 53.5203 53.2886H53.5241C55.3988 53.2895 57.1191 54.1501 58.2439 55.6491C58.4122 55.8739 58.6738 55.9995 58.9439 55.9995C59.0362 55.9995 59.1298 55.985 59.2208 55.9542C59.578 55.8354 59.819 55.5011 59.819 55.1243C59.819 40.6352 59.819 26.105 59.819 11.5967C59.819 11.407 59.7575 11.2232 59.6438 11.072C58.1857 9.12775 55.9556 8.01158 53.5249 8.01068ZM58.0686 31.2343C55.3923 29.2435 51.6964 29.2064 48.9671 31.2361V22.8651C51.3334 19.996 55.7028 19.9893 58.0686 22.8643V31.2343ZM48.9672 42.0951V33.7242C51.3335 30.8551 55.7029 30.8484 58.0687 33.7234V42.0933C55.3923 40.1025 51.6965 40.0655 48.9672 42.0951ZM53.5203 9.7601C53.5215 9.7601 53.5229 9.7601 53.5241 9.76101C55.3039 9.76192 56.9448 10.5379 58.0687 11.8993V20.376C55.4146 18.4013 51.7183 18.3314 48.9672 20.3778V11.9001C50.0948 10.5361 51.7388 9.7601 53.5203 9.7601ZM53.5249 51.5383C53.5237 51.5383 53.522 51.5383 53.5203 51.5383C51.8461 51.5383 50.2662 52.0664 48.9672 53.0305V44.5833C51.3335 41.7142 55.7029 41.7075 58.0687 44.5825V53.0288C56.7726 52.0664 55.1962 51.5391 53.5249 51.5383Z" fill="#34485C"/>
</svg>
