<svg width="64" height="64" viewBox="0 0 64 64" fill="none" xmlns="http://www.w3.org/2000/svg">
<path fill-rule="evenodd" clip-rule="evenodd" d="M18.8545 51.0779H7.2857C6.61416 51.0779 6.09525 50.5285 6.09525 49.8874V45.7666C6.09525 45.1256 6.64469 44.5762 7.2857 44.5762H18.8545C19.4955 44.5762 20.045 45.1256 20.045 45.7666V49.8874C20.045 50.5285 19.4955 51.0779 18.8545 51.0779ZM7.31623 49.8569H18.824V45.7972H7.31623V49.8569Z" fill="#34485C"/>
<path fill-rule="evenodd" clip-rule="evenodd" d="M31.5528 51.0779H20.0145C19.343 51.0779 18.824 50.5285 18.824 49.8874V45.7666C18.824 45.1256 19.343 44.5762 20.0145 44.5762H31.5528C32.2243 44.5762 32.7432 45.1256 32.7432 45.7666V49.8874C32.7432 50.5285 32.2243 51.0779 31.5528 51.0779ZM20.045 49.8569H31.5223V45.7972H20.045V49.8569Z" fill="#34485C"/>
<path fill-rule="evenodd" clip-rule="evenodd" d="M44.2816 51.0779H32.7128C32.0718 51.0779 31.5223 50.5285 31.5223 49.8874V45.7666C31.5223 45.1256 32.0718 44.5762 32.7128 44.5762H44.2816C44.9226 44.5762 45.4721 45.1256 45.4721 45.7666V49.8874C45.4721 50.5285 44.9226 51.0779 44.2816 51.0779ZM32.7433 49.8569H44.2511V45.7972H32.7433V49.8569Z" fill="#34485C"/>
<path fill-rule="evenodd" clip-rule="evenodd" d="M57.0104 51.0779H45.4416C44.8006 51.0779 44.2511 50.5285 44.2511 49.8874V45.7666C44.2511 45.1256 44.8006 44.5762 45.4416 44.5762H57.0104C57.6514 44.5762 58.2009 45.1256 58.2009 45.7666V49.8874C58.2009 50.5285 57.6514 51.0779 57.0104 51.0779ZM45.4721 49.8569H56.9799V45.7972H45.4721V49.8569Z" fill="#34485C"/>
<path fill-rule="evenodd" clip-rule="evenodd" d="M25.2037 45.7971H13.6349C12.9938 45.7971 12.4444 45.2782 12.4444 44.6067V40.4859C12.4444 39.8449 12.9938 39.2954 13.6349 39.2954H25.2037C25.8447 39.2954 26.3941 39.8449 26.3941 40.4859V44.6067C26.3941 45.2782 25.8752 45.7971 25.2037 45.7971ZM13.6654 44.5762H25.1731V40.5164H13.6654V44.5762Z" fill="#34485C"/>
<path fill-rule="evenodd" clip-rule="evenodd" d="M25.2037 56.3811H13.6349C12.9938 56.3811 12.4444 55.8622 12.4444 55.1907V51.0699C12.4444 50.4288 12.9938 49.8794 13.6349 49.8794H25.2037C25.8447 49.8794 26.3941 50.4288 26.3941 51.0699V55.1907C26.3941 55.8622 25.8752 56.3811 25.2037 56.3811ZM13.6654 55.1601H25.1731V51.1004H13.6654V55.1601Z" fill="#FF4D72"/>
<path fill-rule="evenodd" clip-rule="evenodd" d="M50.6305 45.7971H39.0923C38.4207 45.7971 37.9018 45.2782 37.9018 44.6067V40.4859C37.9018 39.8449 38.4207 39.2954 39.0923 39.2954H50.6305C51.3021 39.2954 51.821 39.8449 51.821 40.4859V44.6067C51.821 45.2782 51.3021 45.7971 50.6305 45.7971ZM39.1228 44.5762H50.6V40.5164H39.1228V44.5762Z" fill="#34485C"/>
<path fill-rule="evenodd" clip-rule="evenodd" d="M50.6305 56.3811H39.0923C38.4207 56.3811 37.9018 55.8622 37.9018 55.1907V51.0699C37.9018 50.4288 38.4207 49.8794 39.0923 49.8794H50.6305C51.3021 49.8794 51.821 50.4288 51.821 51.0699V55.1907C51.821 55.8622 51.3021 56.3811 50.6305 56.3811ZM39.1228 55.1601H50.6V51.1004H39.1228V55.1601Z" fill="#FF4D72"/>
<path fill-rule="evenodd" clip-rule="evenodd" d="M18.8545 40.5164H7.2857C6.61416 40.5164 6.09525 39.9975 6.09525 39.3259V35.2051C6.09525 34.5641 6.64469 34.0146 7.2857 34.0146H18.8545C19.4955 34.0146 20.045 34.5641 20.045 35.2051V39.3259C20.045 39.9975 19.4955 40.5164 18.8545 40.5164ZM7.31623 39.2954H18.824V35.2356H7.31623V39.2954Z" fill="#34485C"/>
<path fill-rule="evenodd" clip-rule="evenodd" d="M31.5528 40.5164H20.0145C19.343 40.5164 18.8241 39.9975 18.8241 39.3259V35.2051C18.8241 34.5641 19.343 34.0146 20.0145 34.0146H31.5528C32.2244 34.0146 32.7433 34.5641 32.7433 35.2051V39.3259C32.7433 39.9975 32.2244 40.5164 31.5528 40.5164ZM20.045 39.2954H31.5223V35.2356H20.045V39.2954Z" fill="#34485C"/>
<path fill-rule="evenodd" clip-rule="evenodd" d="M44.2816 40.5164H32.7127C32.0717 40.5164 31.5223 39.9975 31.5223 39.3259V35.2051C31.5223 34.5641 32.0717 34.0146 32.7127 34.0146H44.2816C44.9226 34.0146 45.472 34.5641 45.472 35.2051V39.3259C45.472 39.9975 44.9226 40.5164 44.2816 40.5164ZM32.7433 39.2954H44.251V35.2356H32.7433V39.2954Z" fill="#34485C"/>
<path fill-rule="evenodd" clip-rule="evenodd" d="M57.0104 40.5164H45.4416C44.8005 40.5164 44.2511 39.9975 44.2511 39.3259V35.2051C44.2511 34.5641 44.8005 34.0146 45.4416 34.0146H57.0104C57.6514 34.0146 58.2008 34.5641 58.2008 35.2051V39.3259C58.2008 39.9975 57.6514 40.5164 57.0104 40.5164ZM45.4721 39.2954H56.9798V35.2356H45.4721V39.2954Z" fill="#34485C"/>
<path fill-rule="evenodd" clip-rule="evenodd" d="M18.8545 29.9551H7.2857C6.61416 29.9551 6.09525 29.4362 6.09525 28.7952V24.6743C6.09525 24.0028 6.64469 23.4839 7.2857 23.4839H18.8545C19.4955 23.4839 20.045 24.0028 20.045 24.6743V28.7952C20.045 29.4362 19.4955 29.9551 18.8545 29.9551ZM7.31623 28.7341H18.824V24.7049H7.31623V28.7341Z" fill="#34485C"/>
<path fill-rule="evenodd" clip-rule="evenodd" d="M18.8545 19.3711H7.2857C6.61416 19.3711 6.09525 18.8522 6.09525 18.2112V14.0904C6.09525 13.4188 6.64469 12.8999 7.2857 12.8999H18.8545C19.4955 12.8999 20.045 13.4188 20.045 14.0904V18.2112C20.045 18.8522 19.4955 19.3711 18.8545 19.3711ZM7.31623 18.1501H18.824V14.1209H7.31623V18.1501Z" fill="#34485C"/>
<path fill-rule="evenodd" clip-rule="evenodd" d="M31.5528 29.9551H20.0145C19.343 29.9551 18.824 29.4362 18.824 28.7952V24.6743C18.824 24.0028 19.343 23.4839 20.0145 23.4839H31.5528C32.2243 23.4839 32.7432 24.0028 32.7432 24.6743V28.7952C32.7432 29.4362 32.2243 29.9551 31.5528 29.9551ZM20.045 28.7341H31.5223V24.7049H20.045V28.7341Z" fill="#34485C"/>
<path fill-rule="evenodd" clip-rule="evenodd" d="M44.2816 29.9551H32.7128C32.0718 29.9551 31.5223 29.4362 31.5223 28.7952V24.6743C31.5223 24.0028 32.0718 23.4839 32.7128 23.4839H44.2816C44.9226 23.4839 45.4721 24.0028 45.4721 24.6743V28.7952C45.4721 29.4362 44.9226 29.9551 44.2816 29.9551ZM32.7433 28.7341H44.2511V24.7049H32.7433V28.7341Z" fill="#34485C"/>
<path fill-rule="evenodd" clip-rule="evenodd" d="M44.2816 19.3711H32.7127C32.0717 19.3711 31.5223 18.8522 31.5223 18.2112V14.0904C31.5223 13.4188 32.0717 12.8999 32.7127 12.8999H44.2816C44.9226 12.8999 45.472 13.4188 45.472 14.0904V18.2112C45.472 18.8522 44.9226 19.3711 44.2816 19.3711ZM32.7433 18.1501H44.251V14.1209H32.7433V18.1501Z" fill="#34485C"/>
<path fill-rule="evenodd" clip-rule="evenodd" d="M57.0104 29.9551H45.4416C44.8006 29.9551 44.2511 29.4362 44.2511 28.7952V24.6743C44.2511 24.0028 44.8006 23.4839 45.4416 23.4839H57.0104C57.6514 23.4839 58.2009 24.0028 58.2009 24.6743V28.7952C58.2009 29.4362 57.6514 29.9551 57.0104 29.9551ZM45.4721 28.7341H56.9799V24.7049H45.4721V28.7341Z" fill="#34485C"/>
<path fill-rule="evenodd" clip-rule="evenodd" d="M57.0104 19.3711H45.4416C44.8005 19.3711 44.2511 18.8522 44.2511 18.2112V14.0904C44.2511 13.4188 44.8005 12.8999 45.4416 12.8999H57.0104C57.6514 12.8999 58.2008 13.4188 58.2008 14.0904V18.2112C58.2008 18.8522 57.6514 19.3711 57.0104 19.3711ZM45.4721 18.1501H56.9798V14.1209H45.4721V18.1501Z" fill="#34485C"/>
<path fill-rule="evenodd" clip-rule="evenodd" d="M25.2037 35.2359H13.6349C12.9938 35.2359 12.4444 34.7169 12.4444 34.0454V29.9246C12.4444 29.2836 12.9938 28.7646 13.6349 28.7646H25.2037C25.8447 28.7646 26.3941 29.2836 26.3941 29.9246V34.0454C26.3941 34.7169 25.8752 35.2359 25.2037 35.2359ZM13.6654 34.0149H25.1731V29.9551H13.6654V34.0149Z" fill="#FF4D72"/>
<path fill-rule="evenodd" clip-rule="evenodd" d="M37.9323 35.2359H26.3635C25.6919 35.2359 25.173 34.7169 25.173 34.0454V29.9246C25.173 29.2836 25.6919 28.7646 26.3635 28.7646H37.9323C38.5733 28.7646 39.1227 29.2836 39.1227 29.9246V34.0454C39.1227 34.7169 38.5733 35.2359 37.9323 35.2359ZM26.394 34.0149H37.9018V29.9551H26.394V34.0149Z" fill="#34485C"/>
<path fill-rule="evenodd" clip-rule="evenodd" d="M50.6305 35.2359H39.0923C38.4207 35.2359 37.9018 34.7169 37.9018 34.0454V29.9246C37.9018 29.2836 38.4207 28.7646 39.0923 28.7646H50.6305C51.3021 28.7646 51.821 29.2836 51.821 29.9246V34.0454C51.821 34.7169 51.3021 35.2359 50.6305 35.2359ZM39.1228 34.0149H50.6V29.9551H39.1228V34.0149Z" fill="#FF4D72"/>
<path fill-rule="evenodd" clip-rule="evenodd" d="M57.5902 35.2359H51.7906C51.1495 35.2359 50.6001 34.7169 50.6001 34.0454V29.9246C50.6001 29.2836 51.1495 28.7646 51.7906 28.7646H57.5902C58.3839 28.7646 58.3839 29.9856 57.5902 29.9856H51.8211V34.0149H57.5902C58.3839 34.0149 58.3839 35.2359 57.5902 35.2359Z" fill="#34485C"/>
<path fill-rule="evenodd" clip-rule="evenodd" d="M12.4749 35.2356H6.70576C5.91212 35.2356 5.91212 34.0146 6.70576 34.0146H12.4444V29.9549H6.70576C5.91212 29.9549 5.91212 28.7339 6.70576 28.7339H12.4749C13.1464 28.7339 13.6654 29.2833 13.6654 29.9243V34.0452C13.6654 34.7167 13.1464 35.2356 12.4749 35.2356Z" fill="#34485C"/>
<path fill-rule="evenodd" clip-rule="evenodd" d="M25.2037 24.7049H13.6349C12.9938 24.7049 12.4444 24.1554 12.4444 23.5144V19.3936C12.4444 18.722 12.9938 18.2031 13.6349 18.2031H25.2037C25.8447 18.2031 26.3941 18.722 26.3941 19.3936V23.5144C26.3941 24.1554 25.8752 24.7049 25.2037 24.7049ZM13.6654 23.4839H25.1731V19.4241H13.6654V23.4839Z" fill="#FF4D72"/>
<path fill-rule="evenodd" clip-rule="evenodd" d="M25.2037 14.1209H13.6349C12.9939 14.1209 12.4445 13.5714 12.4445 12.9304V8.8096C12.4445 8.13806 12.9939 7.61914 13.6349 7.61914H25.2037C25.8447 7.61914 26.3942 8.13806 26.3942 8.8096V12.9304C26.3942 13.5714 25.8753 14.1209 25.2037 14.1209ZM13.6654 12.8999H25.1732V8.84012H13.6654V12.8999Z" fill="#FF4D72"/>
<path fill-rule="evenodd" clip-rule="evenodd" d="M37.9323 24.7049H26.3635C25.6919 24.7049 25.173 24.1554 25.173 23.5144V19.3936C25.173 18.722 25.6919 18.2031 26.3635 18.2031H37.9323C38.5733 18.2031 39.1227 18.722 39.1227 19.3936V23.5144C39.1227 24.1554 38.5733 24.7049 37.9323 24.7049ZM26.394 23.4839H37.9018V19.4241H26.394V23.4839Z" fill="#34485C"/>
<path fill-rule="evenodd" clip-rule="evenodd" d="M37.9323 14.1209H26.3635C25.692 14.1209 25.1731 13.5714 25.1731 12.9304V8.8096C25.1731 8.13806 25.692 7.61914 26.3635 7.61914H37.9323C38.5734 7.61914 39.1228 8.13806 39.1228 8.8096V12.9304C39.1228 13.5714 38.5734 14.1209 37.9323 14.1209ZM26.394 12.8999H37.9018V8.84012H26.394V12.8999Z" fill="#34485C"/>
<path fill-rule="evenodd" clip-rule="evenodd" d="M50.6305 24.7049H39.0923C38.4207 24.7049 37.9018 24.1554 37.9018 23.5144V19.3936C37.9018 18.722 38.4207 18.2031 39.0923 18.2031H50.6305C51.3021 18.2031 51.821 18.722 51.821 19.3936V23.5144C51.821 24.1554 51.3021 24.7049 50.6305 24.7049ZM39.1228 23.4839H50.6V19.4241H39.1228V23.4839Z" fill="#FF4D72"/>
<path fill-rule="evenodd" clip-rule="evenodd" d="M50.6306 14.1209H39.0923C38.4208 14.1209 37.9019 13.5714 37.9019 12.9304V8.8096C37.9019 8.13806 38.4208 7.61914 39.0923 7.61914H50.6306C51.3022 7.61914 51.8211 8.13806 51.8211 8.8096V12.9304C51.8211 13.5714 51.3022 14.1209 50.6306 14.1209ZM39.1229 12.8999H50.6001V8.84012H39.1229V12.8999Z" fill="#FF4D72"/>
<path fill-rule="evenodd" clip-rule="evenodd" d="M57.5902 24.7049H51.7906C51.1495 24.7049 50.6001 24.1554 50.6001 23.5144V19.3936C50.6001 18.722 51.1495 18.2031 51.7906 18.2031H57.5902C58.3839 18.2031 58.3839 19.4241 57.5902 19.4241H51.8211V23.4839H57.5902C58.3839 23.4839 58.3839 24.7049 57.5902 24.7049Z" fill="#34485C"/>
<path fill-rule="evenodd" clip-rule="evenodd" d="M57.5902 14.1209H51.7906C51.1495 14.1209 50.6001 13.5714 50.6001 12.9304V8.8096C50.6001 8.13806 51.1495 7.61914 51.7906 7.61914H57.5902C58.3839 7.61914 58.3839 8.84012 57.5902 8.84012H51.8211V12.8999H57.5902C58.3839 12.8999 58.3839 14.1209 57.5902 14.1209Z" fill="#34485C"/>
<path fill-rule="evenodd" clip-rule="evenodd" d="M12.4749 24.7049H6.70573C5.91209 24.7049 5.91209 23.4839 6.70573 23.4839H12.4444V19.4241H6.70573C5.91209 19.4241 5.91209 18.2031 6.70573 18.2031H12.4749C13.1464 18.2031 13.6653 18.722 13.6653 19.3936V23.5144C13.6653 24.1554 13.1464 24.7049 12.4749 24.7049Z" fill="#34485C"/>
<path fill-rule="evenodd" clip-rule="evenodd" d="M12.4749 14.1209H6.70576C5.91212 14.1209 5.91212 12.8999 6.70576 12.8999H12.4444V8.84012H6.70576C5.91212 8.84012 5.91212 7.61914 6.70576 7.61914H12.4749C13.1464 7.61914 13.6654 8.13806 13.6654 8.8096V12.9304C13.6654 13.5714 13.1464 14.1209 12.4749 14.1209Z" fill="#34485C"/>
<path fill-rule="evenodd" clip-rule="evenodd" d="M37.9323 45.7971H26.3635C25.6919 45.7971 25.173 45.2782 25.173 44.6067V40.4859C25.173 39.8449 25.6919 39.2954 26.3635 39.2954H37.9323C38.5733 39.2954 39.1227 39.8449 39.1227 40.4859V44.6067C39.1227 45.2782 38.5733 45.7971 37.9323 45.7971ZM26.394 44.5762H37.9018V40.5164H26.394V44.5762Z" fill="#FF4D72"/>
<path fill-rule="evenodd" clip-rule="evenodd" d="M37.9323 56.3811H26.3635C25.6919 56.3811 25.173 55.8622 25.173 55.1907V51.0699C25.173 50.4288 25.6919 49.8794 26.3635 49.8794H37.9323C38.5733 49.8794 39.1227 50.4288 39.1227 51.0699V55.1907C39.1227 55.8622 38.5733 56.3811 37.9323 56.3811ZM26.394 55.1601H37.9018V51.1004H26.394V55.1601Z" fill="#34485C"/>
<path fill-rule="evenodd" clip-rule="evenodd" d="M57.5902 45.7971H51.7906C51.1495 45.7971 50.6001 45.2782 50.6001 44.6067V40.4859C50.6001 39.8449 51.1495 39.2954 51.7906 39.2954H57.5902C58.3839 39.2954 58.3839 40.5164 57.5902 40.5164H51.8211V44.5762H57.5902C58.3839 44.5762 58.3839 45.7971 57.5902 45.7971Z" fill="#FF4D72"/>
<path fill-rule="evenodd" clip-rule="evenodd" d="M57.5902 56.3811H51.7906C51.1495 56.3811 50.6001 55.8622 50.6001 55.1907V51.0699C50.6001 50.4288 51.1495 49.8794 51.7906 49.8794H57.5902C58.3839 49.8794 58.3839 51.1004 57.5902 51.1004H51.8211V55.1601H57.5902C58.3839 55.1601 58.3839 56.3811 57.5902 56.3811Z" fill="#34485C"/>
<path fill-rule="evenodd" clip-rule="evenodd" d="M12.4749 45.7971H6.70573C5.91209 45.7971 5.91209 44.5762 6.70573 44.5762H12.4444V40.5164H6.70573C5.91209 40.5164 5.91209 39.2954 6.70573 39.2954H12.4749C13.1464 39.2954 13.6653 39.8449 13.6653 40.4859V44.6067C13.6653 45.2782 13.1464 45.7971 12.4749 45.7971Z" fill="#FF4D72"/>
<path fill-rule="evenodd" clip-rule="evenodd" d="M12.4749 56.3811H6.70573C5.91209 56.3811 5.91209 55.1601 6.70573 55.1601H12.4444V51.1004H6.70573C5.91209 51.1004 5.91209 49.8794 6.70573 49.8794H12.4749C13.1464 49.8794 13.6653 50.4288 13.6653 51.0699V55.1907C13.6653 55.8622 13.1464 56.3811 12.4749 56.3811Z" fill="#34485C"/>
</svg>
