<svg width="64" height="64" viewBox="0 0 64 64" fill="none" xmlns="http://www.w3.org/2000/svg">
<path d="M19.375 53.1665C19.4764 53.2429 19.5942 53.295 19.7193 53.3186C19.8443 53.3423 19.9732 53.337 20.0958 53.303L46.6342 45.9548C46.8079 45.9068 46.9609 45.8036 47.07 45.6611C47.179 45.5186 47.2381 45.3445 47.2381 45.1655V18.8372C47.2378 18.6584 47.1786 18.4847 47.0696 18.3424C46.9605 18.2001 46.8076 18.0972 46.6342 18.0492L20.0958 10.6969C19.9732 10.6628 19.8443 10.6573 19.7192 10.6808C19.5941 10.7044 19.4762 10.7563 19.3747 10.8326C19.2732 10.9089 19.1909 11.0075 19.1341 11.1207C19.0774 11.2338 19.0478 11.3585 19.0476 11.4849V52.511C19.0473 52.638 19.0767 52.7633 19.1335 52.877C19.1903 52.9908 19.273 53.0899 19.375 53.1665ZM20.6983 12.5732L45.586 19.4599V44.5401L20.6983 51.4308V12.5732Z" fill="#FF4D72"/>
<path d="M9.11682 57.1492C10.9707 57.3355 14.6826 57.7149 16.5338 57.9012C16.6355 57.9104 16.7381 57.9016 16.8369 57.8752L49.9996 48.5949C50.1719 48.5468 50.3238 48.4433 50.4321 48.3003C50.5403 48.1573 50.5989 47.9827 50.5989 47.8032V32.8493C50.8207 32.8948 51.0264 32.9991 51.1945 33.1513C51.3625 33.3036 51.4869 33.4982 51.5545 33.715L53.2541 39.1037C53.2856 39.2079 53.3373 39.3047 53.4063 39.3886C53.4753 39.4725 53.5602 39.5418 53.6561 39.5925C53.752 39.6433 53.857 39.6744 53.965 39.6841C54.073 39.6938 54.1818 39.6819 54.2852 39.6491C54.3885 39.6163 54.4844 39.5632 54.5672 39.4929C54.6499 39.4226 54.718 39.3366 54.7673 39.2397C54.8167 39.1429 54.8464 39.0372 54.8547 38.9287C54.8631 38.8202 54.8499 38.7112 54.8159 38.6079L53.1163 33.2192C52.9444 32.6684 52.6132 32.1814 52.1646 31.8202C51.7161 31.4589 51.1706 31.2397 50.5975 31.1905V16.1969C50.5975 16.0174 50.5389 15.8428 50.4307 15.6998C50.3225 15.5569 50.1706 15.4534 49.9982 15.4052L16.856 6.13043C16.7554 6.10104 16.6505 6.08991 16.5461 6.09755L9.11682 6.85093C8.91432 6.87169 8.72678 6.96737 8.59074 7.1193C8.45471 7.27124 8.37994 7.46856 8.38099 7.6728V56.3315C8.38096 56.535 8.45619 56.7313 8.59212 56.8824C8.72806 57.0334 8.91502 57.1285 9.11682 57.1492ZM15.7966 56.1739L13.727 55.9712V8.03579L15.7966 7.82621V56.1739ZM48.9593 31.1782H48.5661C48.3489 31.1782 48.1406 31.2648 47.9869 31.4189C47.8333 31.5731 47.747 31.7821 47.747 32.0001C47.747 32.218 47.8333 32.4271 47.9869 32.5812C48.1406 32.7354 48.3489 32.8219 48.5661 32.8219H48.9593V47.1786L17.4348 56.0013V7.99881L48.9593 16.8216V31.1782ZM10.0192 8.41248L12.0888 8.20153V55.7986L10.0192 55.5877V8.41248Z" fill="#34485C"/>
<path d="M23.3136 20.1902C23.4242 20.1903 23.5338 20.1686 23.6359 20.1263C23.7381 20.084 23.831 20.022 23.9092 19.9438L26.4161 17.4388C27.177 16.6309 26.0377 15.4897 25.2264 16.25L22.725 18.7508C22.1869 19.2647 22.5849 20.2084 23.3136 20.1902Z" fill="#FF4D72"/>
<path d="M29.0521 16.629L22.7404 22.9439C22.6588 23.0199 22.5934 23.1115 22.5481 23.2133C22.5027 23.3151 22.4783 23.425 22.4763 23.5364C22.4744 23.6478 22.4949 23.7585 22.5366 23.8618C22.5784 23.9651 22.6405 24.059 22.7193 24.1378C22.7982 24.2166 22.8921 24.2787 22.9954 24.3205C23.0988 24.3622 23.2095 24.3827 23.321 24.3807C23.4324 24.3788 23.5423 24.3544 23.6442 24.309C23.746 24.2637 23.8376 24.1983 23.9136 24.1167L30.2322 17.8018C30.9765 17.0052 29.8545 15.8752 29.0521 16.629Z" fill="#FF4D72"/>
</svg>
