<svg width="49" height="48" viewBox="0 0 49 48" fill="none" xmlns="http://www.w3.org/2000/svg">
<path d="M20.9004 36.4285C20.9004 34.7716 22.2435 33.4285 23.9004 33.4285H25.9004C27.5572 33.4285 28.9004 34.7716 28.9004 36.4285V41.9999H20.9004V36.4285Z" fill="#FF4D72"/>
<path d="M44.015 16.1714L38.815 14.8857C38.7865 14.8857 38.7293 14.8571 38.6722 14.8571H34.5865V7.37141C34.5865 7.19998 34.5007 7.02855 34.3579 6.94284L31.7579 5.17141C31.6722 5.11427 31.5579 5.08569 31.4436 5.08569H18.3579C18.2436 5.08569 18.1579 5.11427 18.0436 5.17141L15.4436 6.94284C15.3008 7.02855 15.215 7.19998 15.215 7.37141V14.8857H11.1293C11.0722 14.8857 11.0436 14.8857 10.9865 14.9143L5.81504 16.2C5.58647 16.2571 5.41504 16.4857 5.41504 16.7143V42.4C5.41504 42.6857 5.64361 42.9428 5.9579 42.9428H43.9007C44.1865 42.9428 44.4436 42.7143 44.4436 42.4V16.7143C44.415 16.4571 44.2722 16.2286 44.015 16.1714ZM43.3579 17.1143V41.8571H34.615V15.9714H38.615L43.3579 17.1143ZM28.1579 32.5714H21.6722C20.7293 32.5714 19.9579 33.3428 19.9579 34.2857V41.8571H16.3008V7.65712L18.5293 6.14284H31.3008L33.5293 7.65712V41.8571H29.8722V34.2857C29.9008 33.3428 29.1293 32.5714 28.1579 32.5714ZM21.015 34.2857C21.015 33.9428 21.3008 33.6571 21.6722 33.6571H24.3865V41.8857H21.015V34.2857ZM28.815 34.2857V41.8571H25.4436V33.6285H28.1579C28.5293 33.6571 28.815 33.9428 28.815 34.2857ZM15.215 15.9714V41.8571H6.47218V17.1143L11.1865 15.9428L15.215 15.9714Z" fill="#34485C"/>
<path d="M12.7857 26.457H8.9286C8.64288 26.457 8.38574 26.6856 8.38574 26.9999V30.8285C8.38574 31.1142 8.61431 31.3713 8.9286 31.3713H12.7857C13.0715 31.3713 13.3286 31.1427 13.3286 30.8285V26.9999C13.3286 26.7142 13.1 26.457 12.7857 26.457ZM12.2429 27.5427V30.2856H9.47146V27.5427H12.2429Z" fill="#34485C"/>
<path d="M40.8717 18.2856H37.0145C36.7288 18.2856 36.4717 18.5142 36.4717 18.8285V22.6571C36.4717 22.9428 36.7003 23.1999 37.0145 23.1999H40.8717C41.1574 23.1999 41.4145 22.9714 41.4145 22.6571V18.8285C41.4145 18.5428 41.186 18.2856 40.8717 18.2856ZM40.3574 19.3714V22.1142H37.586V19.3714H40.3574Z" fill="#34485C"/>
<path d="M12.7857 18.2856H8.9286C8.64288 18.2856 8.38574 18.5142 8.38574 18.8285V22.6571C8.38574 22.9428 8.61431 23.1999 8.9286 23.1999H12.7857C13.0715 23.1999 13.3286 22.9714 13.3286 22.6571V18.8285C13.3286 18.5428 13.1 18.2856 12.7857 18.2856ZM12.2429 19.3714V22.1142H9.47146V19.3714H12.2429Z" fill="#34485C"/>
<path d="M12.7857 34.6287H8.9286C8.64288 34.6287 8.38574 34.8572 8.38574 35.1715V39.0001C8.38574 39.2858 8.61431 39.5429 8.9286 39.5429H12.7857C13.0715 39.5429 13.3286 39.3144 13.3286 39.0001V35.1715C13.3286 34.8572 13.1 34.6287 12.7857 34.6287ZM12.2429 35.7144V38.4572H9.47146V35.7144H12.2429Z" fill="#34485C"/>
<path d="M40.8717 34.6287H37.0145C36.7288 34.6287 36.4717 34.8572 36.4717 35.1715V39.0001C36.4717 39.2858 36.7003 39.5429 37.0145 39.5429H40.8717C41.1574 39.5429 41.4145 39.3144 41.4145 39.0001V35.1715C41.4145 34.8572 41.186 34.6287 40.8717 34.6287ZM40.3574 35.7144V38.4572H37.586V35.7144H40.3574Z" fill="#34485C"/>
<path d="M40.8717 26.457H37.0145C36.7288 26.457 36.4717 26.6856 36.4717 26.9999V30.8285C36.4717 31.1142 36.7003 31.3713 37.0145 31.3713H40.8717C41.1574 31.3713 41.4145 31.1427 41.4145 30.8285V26.9999C41.4145 26.7142 41.186 26.457 40.8717 26.457ZM40.3574 27.5427V30.2856H37.586V27.5427H40.3574Z" fill="#34485C"/>
<path d="M30.3292 24.8286H26.4721C26.1292 24.8286 25.8721 25.1143 25.8721 25.4286V29.2572C25.8721 29.6 26.1578 29.8572 26.4721 29.8572H30.3292C30.6721 29.8572 30.9292 29.5715 30.9292 29.2572V25.4286C30.9292 25.1143 30.6435 24.8286 30.3292 24.8286ZM29.7006 26.0572V28.6572H27.0721V26.0572H29.7006Z" fill="#34485C"/>
<path d="M23.3575 24.8286H19.5004C19.1575 24.8286 18.9004 25.1143 18.9004 25.4286V29.2572C18.9004 29.6 19.1861 29.8572 19.5004 29.8572H23.3575C23.7004 29.8572 23.9575 29.5715 23.9575 29.2572V25.4286C23.9861 25.1143 23.7004 24.8286 23.3575 24.8286ZM22.7575 26.0572V28.6572H20.129V26.0572H22.7575Z" fill="#34485C"/>
<path d="M30.3292 16.657H26.4721C26.1292 16.657 25.8721 16.9427 25.8721 17.257V21.0856C25.8721 21.4284 26.1578 21.6856 26.4721 21.6856H30.3292C30.6721 21.6856 30.9292 21.3998 30.9292 21.0856V17.2856C30.9292 16.9427 30.6435 16.657 30.3292 16.657ZM29.7006 17.8856V20.4856H27.0721V17.8856H29.7006Z" fill="#34485C"/>
<path d="M23.3575 16.6572H19.5004C19.1575 16.6572 18.9004 16.9429 18.9004 17.2572V21.0858C18.9004 21.4287 19.1861 21.6858 19.5004 21.6858H23.3575C23.7004 21.6858 23.9575 21.4001 23.9575 21.0858V17.2858C23.9861 16.9429 23.7004 16.6572 23.3575 16.6572ZM22.7575 17.8858V20.4858H20.129V17.8858H22.7575Z" fill="#34485C"/>
<path d="M23.3575 8.4856H19.5004C19.1575 8.4856 18.9004 8.77131 18.9004 9.0856V12.9142C18.9004 13.257 19.1861 13.5142 19.5004 13.5142H23.3575C23.7004 13.5142 23.9575 13.2285 23.9575 12.9142V9.11417C23.9861 8.77131 23.7004 8.4856 23.3575 8.4856ZM22.7575 9.71417V12.3142H20.129V9.71417H22.7575Z" fill="#34485C"/>
<path d="M30.3292 8.48584H26.4721C26.1292 8.48584 25.8721 8.77155 25.8721 9.08584V12.9144C25.8721 13.2573 26.1578 13.5144 26.4721 13.5144H30.3292C30.6721 13.5144 30.9292 13.2287 30.9292 12.9144V9.11441C30.9292 8.77155 30.6435 8.48584 30.3292 8.48584ZM29.7006 9.71441V12.3144H27.0721V9.71441H29.7006Z" fill="#34485C"/>
</svg>
