<svg width="49" height="48" viewBox="0 0 49 48" fill="none" xmlns="http://www.w3.org/2000/svg">
<path d="M31.5363 40.0821V44.0002H6.72168V28.8176H31.5363V32.7357" stroke="#34485C" stroke-miterlimit="10" stroke-linecap="round" stroke-linejoin="round"/>
<path d="M4.2998 28.8174H33.8488C30.6595 23.4035 25.3349 19.4663 19.0743 18.2393C12.8138 19.4663 7.48914 23.4035 4.2998 28.8174Z" stroke="#34485C" stroke-miterlimit="10" stroke-linecap="round" stroke-linejoin="round"/>
<path d="M14.3359 28.8174H23.8134C22.7905 23.4035 21.0827 19.4663 19.0747 18.2393C17.0667 19.4663 15.3589 23.4035 14.3359 28.8174Z" stroke="#34485C" stroke-miterlimit="10" stroke-linecap="round" stroke-linejoin="round"/>
<path d="M17.4967 44.0002H10.3135V36.4089C10.3135 34.4253 11.9214 32.8173 13.9051 32.8173C15.8887 32.8173 17.4967 34.4253 17.4967 36.4089V44.0002Z" fill="#FF4D72" stroke="#34485C" stroke-miterlimit="10" stroke-linecap="round" stroke-linejoin="round"/>
<path d="M26.5087 40.4084H22.5237C21.7307 40.4084 21.0879 39.7656 21.0879 38.9726V35.6406C21.0879 34.8476 21.7307 34.2048 22.5237 34.2048H26.5087C27.3018 34.2048 27.9446 34.8476 27.9446 35.6406V38.9726C27.9446 39.7656 27.3018 40.4084 26.5087 40.4084Z" stroke="#34485C" stroke-miterlimit="10" stroke-linecap="round" stroke-linejoin="round"/>
<path d="M32.0391 15.757C32.0391 16.9517 33.0075 17.9202 34.2022 17.9202C35.3969 17.9202 36.3653 16.9517 36.3653 15.757C36.3653 14.5624 35.3969 13.5939 34.2022 13.5939C33.0075 13.5939 32.0391 14.5624 32.0391 15.757Z" stroke="#34485C" stroke-miterlimit="10" stroke-linecap="round" stroke-linejoin="round"/>
<path d="M28.8057 12.2453C28.8057 13.44 29.7741 14.4084 30.9688 14.4084C32.1635 14.4084 33.1319 13.44 33.1319 12.2453C33.1319 11.0506 32.1635 10.0822 30.9688 10.0822C29.7741 10.0822 28.8057 11.0506 28.8057 12.2453Z" stroke="#34485C" stroke-miterlimit="10" stroke-linecap="round" stroke-linejoin="round"/>
<path d="M44.4603 44.0002H4.2998" stroke="#34485C" stroke-miterlimit="10" stroke-linecap="round" stroke-linejoin="round"/>
<path d="M31.6445 16.6535C34.2644 20.123 39.3635 28.8264 39.3635 44.0002H42.978C42.978 38.9917 42.4457 34.2212 41.3958 29.8213C40.5503 26.2786 39.3688 22.9651 37.8841 19.9728C37.2833 18.7619 36.6802 17.6999 36.1072 16.7821" stroke="#34485C" stroke-miterlimit="10" stroke-linecap="round" stroke-linejoin="round"/>
<path d="M33.081 11.7769L40.7251 4.13272C38.2388 3.62598 35.4533 4.61122 33.6591 6.40546C32.6479 7.41666 31.8935 8.74278 31.5186 10.1527" stroke="#34485C" stroke-miterlimit="10" stroke-linecap="round" stroke-linejoin="round"/>
<path d="M32.751 13.4717H44.4606C43.0608 11.3553 40.3945 10.0823 37.8571 10.0823C36.174 10.0823 34.4342 10.6423 33.0449 11.6371" stroke="#34485C" stroke-miterlimit="10" stroke-linecap="round" stroke-linejoin="round"/>
<path d="M29.0001 11.3506L21.7822 4.13271C24.2686 3.62597 27.054 4.61121 28.8483 6.40545C29.8427 7.39975 30.5885 8.69852 30.9697 10.082" stroke="#34485C" stroke-miterlimit="10" stroke-linecap="round" stroke-linejoin="round"/>
<path d="M29.1868 13.4717H18.0459C19.4457 11.3553 22.112 10.0823 24.6495 10.0823C26.1542 10.0823 27.7043 10.5299 29.0087 11.3357" stroke="#34485C" stroke-miterlimit="10" stroke-linecap="round" stroke-linejoin="round"/>
<path d="M28.8262 13.6705C28.0847 14.0135 27.5703 14.764 27.5703 15.6347C27.5703 16.8293 28.5388 17.7979 29.7334 17.7979C30.9281 17.7979 31.8965 16.8293 31.8965 15.6347C31.8965 15.1531 31.7393 14.7083 31.4731 14.3489" stroke="#34485C" stroke-miterlimit="10" stroke-linecap="round" stroke-linejoin="round"/>
</svg>
