<svg width="20" height="20" viewBox="0 0 20 20" fill="none" xmlns="http://www.w3.org/2000/svg">
<path fill-rule="evenodd" clip-rule="evenodd" d="M10.0308 6.42725C10.3759 6.42725 10.6558 6.70706 10.6558 7.05225V13.0093C10.6558 13.3545 10.3759 13.6343 10.0308 13.6343C9.68551 13.6343 9.40576 13.3545 9.40576 13.0093V7.05225C9.40576 6.70706 9.68551 6.42725 10.0308 6.42725Z" fill="#FF4D72"/>
<path fill-rule="evenodd" clip-rule="evenodd" d="M6.42383 10.0308C6.42383 9.68551 6.70365 9.40576 7.04883 9.40576H13.012C13.3572 9.40576 13.637 9.68551 13.637 10.0308C13.637 10.3759 13.3572 10.6558 13.012 10.6558H7.04883C6.70365 10.6558 6.42383 10.3759 6.42383 10.0308Z" fill="#FF4D72"/>
<path fill-rule="evenodd" clip-rule="evenodd" d="M4.13355 4.13355C3.05102 5.21609 2.5415 7.02266 2.5415 10.0305C2.5415 13.0384 3.05102 14.845 4.13355 15.9275C5.2161 17.0101 7.02266 17.5196 10.0305 17.5196C13.0384 17.5196 14.845 17.0101 15.9275 15.9275C17.01 14.845 17.5195 13.0384 17.5195 10.0305C17.5195 7.02266 17.01 5.21609 15.9275 4.13355C14.845 3.05101 13.0384 2.5415 10.0305 2.5415C7.02266 2.5415 5.2161 3.05101 4.13355 4.13355ZM3.24967 3.24967C4.70288 1.79646 6.95333 1.2915 10.0305 1.2915C13.1077 1.2915 15.3582 1.79646 16.8114 3.24967C18.2646 4.70288 18.7695 6.95333 18.7695 10.0305C18.7695 13.1078 18.2646 15.3582 16.8114 16.8114C15.3582 18.2646 13.1077 18.7696 10.0305 18.7696C6.95333 18.7696 4.70288 18.2646 3.24967 16.8114C1.79646 15.3582 1.2915 13.1078 1.2915 10.0305C1.2915 6.95333 1.79646 4.70288 3.24967 3.24967Z" fill="#34485C"/>
</svg>
