<svg width="32" height="32" viewBox="0 0 32 32" fill="none" xmlns="http://www.w3.org/2000/svg">
<path d="M13.2465 23.8992C13.1419 23.8992 13.0373 23.8662 12.9548 23.8057C12.7566 23.6625 12.6906 23.3983 12.8006 23.1781L15.641 17.4974L11.5401 16.1322C11.375 16.0772 11.2538 15.9451 11.2098 15.7744C11.1713 15.6093 11.2208 15.4277 11.3419 15.3066L19.0814 7.56708C19.175 7.4735 19.3016 7.41846 19.4337 7.41846C19.5383 7.41846 19.6429 7.45148 19.7254 7.51204C19.9236 7.65515 19.9897 7.91938 19.8796 8.13956L17.0392 13.8148L21.1401 15.1799C21.3053 15.235 21.4264 15.3671 21.4704 15.5377C21.5089 15.7084 21.4594 15.879 21.3383 16.0056L13.5988 23.7451C13.5052 23.8387 13.3786 23.8937 13.2465 23.8937V23.8992Z" fill="#FF4D72"/>
<path d="M28.7749 16.1604C28.4997 16.1604 28.274 15.9347 28.274 15.6594C28.274 9.07594 22.918 3.71997 16.3345 3.71997C12.5639 3.71997 8.96384 5.553 6.70145 8.62457L6.35466 9.09796L8.51247 8.96585C8.80421 8.96585 9.02439 9.16952 9.04091 9.43374C9.05192 9.56585 9.00788 9.69246 8.9143 9.79705C8.82623 9.89613 8.70513 9.95668 8.57302 9.96218L5.47943 10.1548C5.47943 10.1548 4.95099 10.0833 4.95099 9.65943V6.37318C4.95099 6.09795 5.17668 5.87227 5.45191 5.87227C5.72714 5.87227 5.95283 6.09795 5.95283 6.37318V7.98053L6.43723 7.40254C8.89228 4.4741 12.5969 2.72363 16.34 2.72363C23.474 2.72363 29.2758 8.52548 29.2758 15.6594C29.2758 15.9347 29.0501 16.1604 28.7749 16.1604Z" fill="#34485C"/>
<path d="M16.3401 28.5964C9.20612 28.5964 3.40427 22.7946 3.40427 15.6606C3.40427 15.3854 3.62996 15.1597 3.90519 15.1597C4.18042 15.1597 4.4061 15.3854 4.4061 15.6606C4.4061 22.2441 9.76208 27.6001 16.3456 27.6001C20.1162 27.6001 23.7162 25.767 25.9786 22.69L26.3254 22.2166L24.1676 22.3487C23.8814 22.3487 23.6557 22.1395 23.6392 21.8808C23.6227 21.6056 23.8318 21.3689 24.1071 21.3523L27.2062 21.1597C27.4814 21.1597 27.7346 21.4074 27.7346 21.6551V24.9413C27.7346 25.2166 27.5089 25.4423 27.2337 25.4423C26.9585 25.4423 26.7328 25.2166 26.7328 24.9413V23.334L26.2484 23.912C23.7878 26.8404 20.0887 28.5909 16.3456 28.5909L16.3401 28.5964Z" fill="#34485C"/>
</svg>
