<svg width="17" height="18" viewBox="0 0 17 18" fill="none" xmlns="http://www.w3.org/2000/svg">
<path fill-rule="evenodd" clip-rule="evenodd" d="M8.9958 10.063H2.65625C2.363 10.063 2.125 9.82499 2.125 9.53174C2.125 9.23849 2.363 9.00049 2.65625 9.00049H8.9958C9.28905 9.00049 9.52705 9.23849 9.52705 9.53174C9.52705 9.82499 9.28905 10.063 8.9958 10.063Z" fill="#FF4D72"/>
<path fill-rule="evenodd" clip-rule="evenodd" d="M9.52686 6.95223V12.111L13.621 9.53198L9.52686 6.95223ZM8.99561 13.6056C8.90706 13.6056 8.81923 13.5829 8.73919 13.539C8.56919 13.4455 8.46436 13.2677 8.46436 13.0744V5.98961C8.46436 5.79553 8.56919 5.61773 8.73919 5.52423C8.90848 5.43144 9.11602 5.43711 9.27823 5.53982L14.901 9.08218C15.0561 9.17993 15.1489 9.34923 15.1489 9.53198C15.1489 9.71402 15.0561 9.88402 14.901 9.98106L9.27823 13.5234C9.19252 13.578 9.09406 13.6056 8.99561 13.6056Z" fill="#34485C"/>
</svg>
