<svg width="76" height="42" viewBox="0 0 76 42" fill="none" xmlns="http://www.w3.org/2000/svg">
<g filter="url(#filter0_d_501_6507)">
<mask id="path-1-inside-1_501_6507" fill="white">
<path fill-rule="evenodd" clip-rule="evenodd" d="M39.366 3.5C38.9811 2.83333 38.0189 2.83333 37.634 3.5L35.0359 8L10 8C8.34314 8 7 9.34315 7 11L7 28C7 29.6569 8.34314 31 10 31L66 31C67.6569 31 69 29.6569 69 28V11C69 9.34315 67.6569 8 66 8L41.9641 8L39.366 3.5Z"/>
</mask>
<path fill-rule="evenodd" clip-rule="evenodd" d="M39.366 3.5C38.9811 2.83333 38.0189 2.83333 37.634 3.5L35.0359 8L10 8C8.34314 8 7 9.34315 7 11L7 28C7 29.6569 8.34314 31 10 31L66 31C67.6569 31 69 29.6569 69 28V11C69 9.34315 67.6569 8 66 8L41.9641 8L39.366 3.5Z" fill="white"/>
<path d="M37.634 3.5L36.7679 3L36.7679 3L37.634 3.5ZM39.366 3.5L40.2321 3L40.2321 3L39.366 3.5ZM35.0359 8V9H35.6133L35.9019 8.5L35.0359 8ZM41.9641 8L41.0981 8.5L41.3867 9H41.9641V8ZM38.5 4H38.5L40.2321 3C39.4622 1.66667 37.5378 1.66667 36.7679 3L38.5 4ZM35.9019 8.5L38.5 4L36.7679 3L34.1699 7.5L35.9019 8.5ZM10 9L35.0359 9V7L10 7V9ZM8 11C8 9.89543 8.89543 9 10 9V7C7.79085 7 6 8.79086 6 11H8ZM8 28L8 11H6L6 28H8ZM10 30C8.89543 30 8 29.1046 8 28H6C6 30.2091 7.79085 32 10 32V30ZM66 30L10 30V32L66 32V30ZM68 28C68 29.1046 67.1046 30 66 30V32C68.2091 32 70 30.2091 70 28H68ZM68 11V28H70V11H68ZM66 9C67.1046 9 68 9.89543 68 11H70C70 8.79086 68.2091 7 66 7V9ZM41.9641 9L66 9V7L41.9641 7V9ZM38.5 4L41.0981 8.5L42.8301 7.5L40.2321 3L38.5 4Z" fill="#F3A153" mask="url(#path-1-inside-1_501_6507)"/>
</g>
<defs>
<filter id="filter0_d_501_6507" x="0.0999999" y="0.0999999" width="75.8" height="41.8" filterUnits="userSpaceOnUse" color-interpolation-filters="sRGB">
<feFlood flood-opacity="0" result="BackgroundImageFix"/>
<feColorMatrix in="SourceAlpha" type="matrix" values="0 0 0 0 0 0 0 0 0 0 0 0 0 0 0 0 0 0 127 0" result="hardAlpha"/>
<feOffset dy="4"/>
<feGaussianBlur stdDeviation="3.45"/>
<feComposite in2="hardAlpha" operator="out"/>
<feColorMatrix type="matrix" values="0 0 0 0 0.952941 0 0 0 0 0.631373 0 0 0 0 0.32549 0 0 0 0.17 0"/>
<feBlend mode="normal" in2="BackgroundImageFix" result="effect1_dropShadow_501_6507"/>
<feBlend mode="normal" in="SourceGraphic" in2="effect1_dropShadow_501_6507" result="shape"/>
</filter>
</defs>
</svg>
