<svg width="64" height="64" viewBox="0 0 64 64" fill="none" xmlns="http://www.w3.org/2000/svg">
<path d="M56.1472 38.2568V46.1646C56.1472 46.7768 55.6507 47.2734 55.0385 47.2734H51.9095" stroke="#FF4D72" stroke-width="2" stroke-miterlimit="10" stroke-linecap="round" stroke-linejoin="round"/>
<path d="M16.7266 11.9835V8.9615C16.7266 8.34932 17.2231 7.85277 17.8353 7.85277H55.0386C55.6507 7.85277 56.1473 8.34932 56.1473 8.9615V34.8559" stroke="#FF4D72" stroke-width="2" stroke-miterlimit="10" stroke-linecap="round" stroke-linejoin="round"/>
<path d="M29.2637 12.2895H50.6017C51.2139 12.2895 51.7104 12.7861 51.7104 13.3983V50.6015C51.7104 51.2137 51.2139 51.7103 50.6017 51.7103H47.4378" stroke="#FF4D72" stroke-width="2" stroke-miterlimit="10" stroke-linecap="round" stroke-linejoin="round"/>
<path d="M12.2897 16.5408V13.3983C12.2897 12.7861 12.7863 12.2895 13.3985 12.2895H25.8627" stroke="#FF4D72" stroke-width="2" stroke-miterlimit="10" stroke-linecap="round" stroke-linejoin="round"/>
<path d="M46.1648 16.7267H8.96152C8.34933 16.7267 7.85278 17.2232 7.85278 17.8354V55.0387C7.85278 55.6508 8.34933 56.1474 8.96152 56.1474H46.1648C46.777 56.1474 47.2735 55.6508 47.2735 55.0387V17.8354C47.2735 17.2232 46.777 16.7267 46.1648 16.7267Z" stroke="#34485C" stroke-width="2" stroke-miterlimit="10" stroke-linecap="round" stroke-linejoin="round"/>
<path d="M18.1559 16.813L7.94995 27.1162L13.513 32.7754L17.7488 28.5397" stroke="#34485C" stroke-width="2" stroke-miterlimit="10" stroke-linecap="round" stroke-linejoin="round"/>
<path d="M29.4357 16.8528L20.1538 26.1357" stroke="#34485C" stroke-width="2" stroke-miterlimit="10" stroke-linecap="round" stroke-linejoin="round"/>
<path d="M13.3923 43.9751L8.04333 38.6262" stroke="#34485C" stroke-width="2" stroke-miterlimit="10" stroke-linecap="round" stroke-linejoin="round"/>
<path d="M42.5677 16.7497L47.1765 21.4558L41.6138 27.1158" stroke="#34485C" stroke-width="2" stroke-miterlimit="10" stroke-linecap="round" stroke-linejoin="round"/>
<path d="M31.2691 16.7713L47.1765 32.7758L41.6138 38.4358L24.8489 21.671" stroke="#34485C" stroke-width="2" stroke-miterlimit="10" stroke-linecap="round" stroke-linejoin="round"/>
<path d="M24.7333 32.8751L30.2386 27.3699" stroke="#34485C" stroke-width="2" stroke-miterlimit="10" stroke-linecap="round" stroke-linejoin="round"/>
<path d="M47.1766 44.0957L41.8666 49.503" stroke="#34485C" stroke-width="2" stroke-miterlimit="10" stroke-linecap="round" stroke-linejoin="round"/>
<path d="M8.82806 16.7713L13.2869 21.2301" stroke="#34485C" stroke-width="2" stroke-miterlimit="10" stroke-linecap="round" stroke-linejoin="round"/>
<path d="M13.5127 32.7758L7.94989 38.4357" stroke="#34485C" stroke-width="2" stroke-miterlimit="10" stroke-linecap="round" stroke-linejoin="round"/>
<path d="M47.1765 44.0957L41.6138 38.4357" stroke="#34485C" stroke-width="2" stroke-miterlimit="10" stroke-linecap="round" stroke-linejoin="round"/>
<path d="M13.5127 55.4156L7.94989 49.7556L24.7332 32.8751L30.3932 38.5351L13.5127 55.4156Z" stroke="#34485C" stroke-width="2" stroke-miterlimit="10" stroke-linecap="round" stroke-linejoin="round"/>
<path d="M30.2386 50.0095L24.3169 55.9311" stroke="#34485C" stroke-width="2" stroke-miterlimit="10" stroke-linecap="round" stroke-linejoin="round"/>
<path d="M47.1015 55.2436L36.8518 44.9939" stroke="#34485C" stroke-width="2" stroke-miterlimit="10" stroke-linecap="round" stroke-linejoin="round"/>
<path d="M34.4468 42.5887L30.3928 38.5347" stroke="#34485C" stroke-width="2" stroke-miterlimit="10" stroke-linecap="round" stroke-linejoin="round"/>
<path d="M36.5565 56.0182L24.7333 44.195" stroke="#34485C" stroke-width="2" stroke-miterlimit="10" stroke-linecap="round" stroke-linejoin="round"/>
</svg>
