<svg width="65" height="64" viewBox="0 0 65 64" fill="none" xmlns="http://www.w3.org/2000/svg">
<path d="M56.869 38.2568V46.1647C56.869 46.7769 56.3725 47.2734 55.7603 47.2734H52.6313" stroke="#FF4D72" stroke-width="2" stroke-miterlimit="10" stroke-linecap="round" stroke-linejoin="round"/>
<path d="M17.4482 11.9836V8.96152C17.4482 8.34933 17.9448 7.85278 18.557 7.85278H55.7602C56.3724 7.85278 56.869 8.34933 56.869 8.96152V34.8559" stroke="#FF4D72" stroke-width="2" stroke-miterlimit="10" stroke-linecap="round" stroke-linejoin="round"/>
<path d="M29.9858 12.2896H51.3238C51.936 12.2896 52.4326 12.7861 52.4326 13.3983V50.6015C52.4326 51.2137 51.936 51.7103 51.3238 51.7103H48.1599" stroke="#FF4D72" stroke-width="2" stroke-miterlimit="10" stroke-linecap="round" stroke-linejoin="round"/>
<path d="M13.0117 16.5408V13.3983C13.0117 12.7861 13.5083 12.2896 14.1205 12.2896H26.5847" stroke="#FF4D72" stroke-width="2" stroke-miterlimit="10" stroke-linecap="round" stroke-linejoin="round"/>
<path d="M46.8867 16.7266H9.68344C9.07126 16.7266 8.57471 17.2231 8.57471 17.8353V55.0386C8.57471 55.6507 9.07126 56.1473 9.68344 56.1473H46.8867C47.4989 56.1473 47.9954 55.6507 47.9954 55.0386V17.8353C47.9954 17.2231 47.4989 16.7266 46.8867 16.7266Z" stroke="#34485C" stroke-width="2" stroke-miterlimit="10" stroke-linecap="round" stroke-linejoin="round"/>
<path d="M18.8778 16.813L8.67188 27.1161L14.235 32.7754L18.4707 28.5397" stroke="#34485C" stroke-width="2" stroke-miterlimit="10" stroke-linecap="round" stroke-linejoin="round"/>
<path d="M30.1574 16.8528L20.8755 26.1356" stroke="#34485C" stroke-width="2" stroke-miterlimit="10" stroke-linecap="round" stroke-linejoin="round"/>
<path d="M14.1141 43.9751L8.76514 38.6262" stroke="#34485C" stroke-width="2" stroke-miterlimit="10" stroke-linecap="round" stroke-linejoin="round"/>
<path d="M43.2898 16.7498L47.8986 21.4558L42.3359 27.1158" stroke="#34485C" stroke-width="2" stroke-miterlimit="10" stroke-linecap="round" stroke-linejoin="round"/>
<path d="M31.9911 16.7712L47.8984 32.7758L42.3357 38.4357L25.5708 21.6709" stroke="#34485C" stroke-width="2" stroke-miterlimit="10" stroke-linecap="round" stroke-linejoin="round"/>
<path d="M25.4551 32.8751L30.9604 27.3699" stroke="#34485C" stroke-width="2" stroke-miterlimit="10" stroke-linecap="round" stroke-linejoin="round"/>
<path d="M47.8984 44.0957L42.5884 49.503" stroke="#34485C" stroke-width="2" stroke-miterlimit="10" stroke-linecap="round" stroke-linejoin="round"/>
<path d="M9.5498 16.7712L14.0086 21.2301" stroke="#34485C" stroke-width="2" stroke-miterlimit="10" stroke-linecap="round" stroke-linejoin="round"/>
<path d="M14.2347 32.7759L8.67188 38.4359" stroke="#34485C" stroke-width="2" stroke-miterlimit="10" stroke-linecap="round" stroke-linejoin="round"/>
<path d="M47.8982 44.0958L42.3354 38.4358" stroke="#34485C" stroke-width="2" stroke-miterlimit="10" stroke-linecap="round" stroke-linejoin="round"/>
<path d="M14.2347 55.4155L8.67188 49.7555L25.4552 32.875L31.1152 38.535L14.2347 55.4155Z" stroke="#34485C" stroke-width="2" stroke-miterlimit="10" stroke-linecap="round" stroke-linejoin="round"/>
<path d="M30.9607 50.0095L25.0391 55.9312" stroke="#34485C" stroke-width="2" stroke-miterlimit="10" stroke-linecap="round" stroke-linejoin="round"/>
<path d="M47.8234 55.2436L37.5737 44.9939" stroke="#34485C" stroke-width="2" stroke-miterlimit="10" stroke-linecap="round" stroke-linejoin="round"/>
<path d="M35.1688 42.5887L31.1147 38.5347" stroke="#34485C" stroke-width="2" stroke-miterlimit="10" stroke-linecap="round" stroke-linejoin="round"/>
<path d="M37.2783 56.0183L25.4551 44.1951" stroke="#34485C" stroke-width="2" stroke-miterlimit="10" stroke-linecap="round" stroke-linejoin="round"/>
</svg>
