<svg width="20" height="20" viewBox="0 0 20 20" fill="none" xmlns="http://www.w3.org/2000/svg">
<path fill-rule="evenodd" clip-rule="evenodd" d="M10 2.2915C9.18458 2.2915 8.48925 2.81236 8.23153 3.54145C8.11651 3.8669 7.75943 4.03748 7.43398 3.92245C7.10853 3.80741 6.93796 3.45034 7.05298 3.1249C7.48168 1.912 8.63842 1.0415 10 1.0415C11.3617 1.0415 12.5183 1.912 12.947 3.1249C13.0621 3.45034 12.8915 3.80741 12.566 3.92245C12.2406 4.03748 11.8835 3.8669 11.7685 3.54145C11.5108 2.81236 10.8154 2.2915 10 2.2915Z" fill="#FF4D72"/>
<path fill-rule="evenodd" clip-rule="evenodd" d="M7.8546 8.54465C8.19807 8.51032 8.50433 8.7609 8.53866 9.1044L8.95533 13.2711C8.98975 13.6145 8.73908 13.9208 8.39566 13.9552C8.05219 13.9895 7.74591 13.7389 7.71156 13.3954L7.2949 9.22873C7.26055 8.88532 7.51114 8.57898 7.8546 8.54465Z" fill="#FF4D72"/>
<path fill-rule="evenodd" clip-rule="evenodd" d="M12.1456 8.54465C12.4891 8.57898 12.7397 8.88532 12.7053 9.22873L12.2886 13.3954C12.2543 13.7389 11.9481 13.9895 11.6046 13.9552C11.2611 13.9208 11.0106 13.6145 11.0449 13.2711L11.4616 9.1044C11.4959 8.7609 11.8021 8.51032 12.1456 8.54465Z" fill="#FF4D72"/>
<path fill-rule="evenodd" clip-rule="evenodd" d="M2.29175 5C2.29175 4.65483 2.57157 4.375 2.91675 4.375H17.0835C17.4287 4.375 17.7085 4.65483 17.7085 5C17.7085 5.34517 17.4287 5.625 17.0835 5.625H2.91675C2.57157 5.625 2.29175 5.34517 2.29175 5Z" fill="#34485C"/>
<path fill-rule="evenodd" clip-rule="evenodd" d="M4.26411 6.45942C4.60853 6.43646 4.90635 6.69704 4.92931 7.04146L5.31259 12.7907C5.38747 13.9139 5.44083 14.6954 5.55796 15.2834C5.67159 15.8539 5.8302 16.1558 6.05805 16.3689C6.28589 16.582 6.59769 16.7203 7.17436 16.7957C7.76886 16.8734 8.55223 16.8747 9.6779 16.8747H10.3224C11.4481 16.8747 12.2314 16.8734 12.8259 16.7957C13.4026 16.7203 13.7144 16.582 13.9422 16.3689C14.1701 16.1558 14.3286 15.8539 14.4423 15.2834C14.5595 14.6954 14.6128 13.9139 14.6876 12.7907L15.071 7.04146C15.0939 6.69704 15.3917 6.43646 15.7361 6.45942C16.0806 6.48237 16.3411 6.78019 16.3182 7.12461L15.932 12.9177C15.8607 13.9867 15.8032 14.8501 15.6682 15.5277C15.5279 16.2321 15.2892 16.8205 14.7962 17.2817C14.3032 17.7429 13.7002 17.9419 12.9881 18.0351C12.303 18.1247 11.4376 18.1247 10.3663 18.1247H9.63398C8.56265 18.1247 7.69726 18.1247 7.01223 18.0351C6.30002 17.9419 5.69706 17.7429 5.20406 17.2817C4.71107 16.8205 4.47239 16.2321 4.33206 15.5277C4.19708 14.8501 4.13953 13.9867 4.06828 12.9177L3.68207 7.12461C3.65911 6.78019 3.91971 6.48237 4.26411 6.45942Z" fill="#34485C"/>
</svg>
