<svg width="64" height="64" viewBox="0 0 64 64" fill="none" xmlns="http://www.w3.org/2000/svg">
<path d="M41.0135 57.3442H6.40016C5.8135 57.3442 5.3335 56.8642 5.3335 56.2775V26.0162C5.3335 25.7282 5.45083 25.4615 5.64283 25.2588L22.9548 7.95751C23.3708 7.54151 24.0428 7.54151 24.4588 7.95751L41.7708 25.2695C41.9735 25.4722 42.0802 25.7388 42.0802 26.0268V56.2882C42.0802 56.8642 41.6108 57.3442 41.0135 57.3442ZM7.46683 55.2108H39.9468V26.4642L23.7122 10.2188L7.46683 26.4642V55.2108Z" fill="#34485C"/>
<path d="M29.3333 56.2381H30.3333V55.2381V42.9048C30.3333 41.8002 29.4378 40.9048 28.3333 40.9048H19.2856C18.1811 40.9048 17.2856 41.8002 17.2856 42.9048V55.2381V56.2381H18.2856H29.3333Z" fill="#FF4D72" stroke="#34485C" stroke-width="2"/>
<path d="M23.7121 26.6239C25.7916 26.6239 27.4774 24.9381 27.4774 22.8586C27.4774 20.7791 25.7916 19.0933 23.7121 19.0933C21.6326 19.0933 19.9468 20.7791 19.9468 22.8586C19.9468 24.9381 21.6326 26.6239 23.7121 26.6239Z" fill="#FF4D72"/>
<path d="M23.7124 27.6909C21.0457 27.6909 18.8804 25.5255 18.8804 22.8589C18.8804 20.1922 21.0457 18.0269 23.7124 18.0269C26.379 18.0269 28.5444 20.1922 28.5444 22.8589C28.5444 25.5255 26.3684 27.6909 23.7124 27.6909ZM23.7124 20.1709C22.2297 20.1709 21.0137 21.3762 21.0137 22.8695C21.0137 24.3629 22.219 25.5682 23.7124 25.5682C25.2057 25.5682 26.411 24.3629 26.411 22.8695C26.411 21.3762 25.195 20.1709 23.7124 20.1709Z" fill="#34485C"/>
<path d="M48.9497 57.3441C48.363 57.3441 47.883 56.8641 47.883 56.2774V25.4721L30.8804 8.48006C30.4644 8.06406 30.4644 7.39206 30.8804 6.97606C31.2964 6.56006 31.9684 6.56006 32.3844 6.97606L49.6964 24.2881C49.899 24.4907 50.0057 24.7574 50.0057 25.0454V56.2987C50.0164 56.8641 49.5364 57.3441 48.9497 57.3441Z" fill="#34485C"/>
<path d="M57.6002 57.3441C57.0135 57.3441 56.5335 56.8641 56.5335 56.2774V25.4721L39.5415 8.48006C39.1255 8.06406 39.1255 7.39206 39.5415 6.97606C39.9575 6.56006 40.6295 6.56006 41.0455 6.97606L58.3575 24.2881C58.5495 24.4801 58.6668 24.7467 58.6668 25.0347V56.2881C58.6668 56.8641 58.1868 57.3441 57.6002 57.3441Z" fill="#34485C"/>
</svg>
