<svg width="49" height="48" viewBox="0 0 49 48" fill="none" xmlns="http://www.w3.org/2000/svg">
<path d="M31.26 43.0081H5.3C4.86 43.0081 4.5 42.6481 4.5 42.2081V19.5121C4.5 19.2961 4.588 19.0961 4.732 18.9441L17.716 5.96813C18.028 5.65613 18.532 5.65613 18.844 5.96813L31.828 18.9521C31.98 19.1041 32.06 19.3041 32.06 19.5201V42.2161C32.06 42.6481 31.708 43.0081 31.26 43.0081ZM6.1 41.4081H30.46V19.8481L18.284 7.66413L6.1 19.8481V41.4081Z" fill="#34485C"/>
<path d="M22.5001 42.1785H23.2501V41.4285V32.4285C23.2501 31.462 22.4666 30.6785 21.5001 30.6785H15.2144C14.2479 30.6785 13.4644 31.462 13.4644 32.4285V41.4285V42.1785H14.2144H22.5001Z" fill="#FF4D72" stroke="#34485C" stroke-width="1.5"/>
<path d="M18.284 19.9681C19.8436 19.9681 21.108 18.7037 21.108 17.1441C21.108 15.5844 19.8436 14.3201 18.284 14.3201C16.7243 14.3201 15.46 15.5844 15.46 17.1441C15.46 18.7037 16.7243 19.9681 18.284 19.9681Z" fill="#FF4D72"/>
<path d="M18.2842 20.768C16.2842 20.768 14.6602 19.144 14.6602 17.144C14.6602 15.144 16.2842 13.52 18.2842 13.52C20.2842 13.52 21.9082 15.144 21.9082 17.144C21.9082 19.144 20.2762 20.768 18.2842 20.768ZM18.2842 15.128C17.1722 15.128 16.2602 16.032 16.2602 17.152C16.2602 18.272 17.1642 19.176 18.2842 19.176C19.4042 19.176 20.3082 18.272 20.3082 17.152C20.3082 16.032 19.3962 15.128 18.2842 15.128Z" fill="#34485C"/>
<path d="M37.2123 43.008C36.7723 43.008 36.4123 42.648 36.4123 42.208V19.104L23.6603 6.36005C23.3483 6.04805 23.3483 5.54405 23.6603 5.23205C23.9723 4.92005 24.4763 4.92005 24.7883 5.23205L37.7723 18.216C37.9243 18.368 38.0043 18.568 38.0043 18.784V42.224C38.0123 42.648 37.6523 43.008 37.2123 43.008Z" fill="#34485C"/>
<path d="M43.6999 43.008C43.2599 43.008 42.8999 42.648 42.8999 42.208V19.104L30.1559 6.36005C29.8439 6.04805 29.8439 5.54405 30.1559 5.23205C30.4679 4.92005 30.9719 4.92005 31.2839 5.23205L44.2679 18.216C44.4119 18.36 44.4999 18.56 44.4999 18.776V42.216C44.4999 42.648 44.1399 43.008 43.6999 43.008Z" fill="#34485C"/>
</svg>
