<svg width="17" height="18" viewBox="0 0 17 18" fill="none" xmlns="http://www.w3.org/2000/svg">
<path d="M6.97112 2.16788C5.80426 3.39917 5 5.9957 5 8.99994C5 12.0042 5.80426 14.6007 6.97112 15.832" stroke="#FF4D72" stroke-miterlimit="10" stroke-linecap="round" stroke-linejoin="round"/>
<path d="M10.0288 15.832C11.1957 14.6007 11.9999 12.0042 11.9999 8.99997C11.9999 5.9957 11.1957 3.39917 10.0288 2.16788" stroke="#FF4D72" stroke-miterlimit="10" stroke-linecap="round" stroke-linejoin="round"/>
<path d="M1.89844 6.66699H15.1018" stroke="#FF4D72" stroke-miterlimit="10" stroke-linecap="round" stroke-linejoin="round"/>
<path d="M1.89844 11.333H15.1018" stroke="#FF4D72" stroke-miterlimit="10" stroke-linecap="round" stroke-linejoin="round"/>
<path d="M15.5 9C15.5 12.866 12.366 16 8.5 16C4.63401 16 1.5 12.866 1.5 9C1.5 5.13401 4.63401 2 8.5 2C12.366 2 15.5 5.13401 15.5 9Z" stroke="#34485C" stroke-miterlimit="10" stroke-linecap="round" stroke-linejoin="round"/>
</svg>
